SplineFontDB: 3.0
FontName: InconsolataLGC-oldstyle
FullName: Inconsolata LGC-oldstyle
FamilyName: Inconsolata LGC-oldstyle
Weight: Medium
Copyright: Created by Raph Levien using his own tools and FontForge. Copyright 2006 Raph Levien. Released under the SIL Open Font License, http://scripts.sil.org/OFL.\n\nHellenisation of the Roman font, by Dimosthenis Kaponis, using FontForge. Hellenic glyphs Copyright 2010-2012 Dimosthenis Kaponis. Released under the SIL Open Font License, http://scripts.sil.org/OFL.\n\nCyrillic glyphs added by MihailJP, using FontForge. Cyrillic glyphs Copyright 2012 MihailJP. Released under the SIL Open Font License, http://scripts.sil.org/OFL.
Version: 1.1.0
ItalicAngle: 0
UnderlinePosition: -100
UnderlineWidth: 50
Ascent: 820
Descent: 180
InvalidEm: 0
sfntRevision: 0x00011999
LayerCount: 2
Layer: 0 0 "Back" 1
Layer: 1 0 "Fore" 0
XUID: [1021 886 -890085229 3227350]
StyleMap: 0x0040
FSType: 8
OS2Version: 3
OS2_WeightWidthSlopeOnly: 0
OS2_UseTypoMetrics: 0
CreationTime: 1161020814
ModificationTime: 1482052009
PfmFamily: 17
TTFWeight: 500
TTFWidth: 5
LineGap: 200
VLineGap: 0
Panose: 2 11 6 9 3 0 3 0 0 0
OS2TypoAscent: 820
OS2TypoAOffset: 0
OS2TypoDescent: -180
OS2TypoDOffset: 0
OS2TypoLinegap: 0
OS2WinAscent: 1049
OS2WinAOffset: 0
OS2WinDescent: 205
OS2WinDOffset: 0
HheadAscent: 1049
HheadAOffset: 0
HheadDescent: -205
HheadDOffset: 0
OS2SubXSize: 650
OS2SubYSize: 699
OS2SubXOff: 0
OS2SubYOff: 140
OS2SupXSize: 650
OS2SupYSize: 699
OS2SupXOff: 0
OS2SupYOff: 479
OS2StrikeYSize: 49
OS2StrikeYPos: 258
OS2CapHeight: 722
OS2XHeight: 529
OS2Vendor: 'PfEd'
OS2CodePages: 6000009f.dfd70000
OS2UnicodeRanges: a00002af.0000797b.00000000.00000000
MarkAttachClasses: 1
DEI: 91125
LangName: 1033
Encoding: UnicodeBmp
UnicodeInterp: none
NameList: AGL For New Fonts
DisplaySize: -48
AntiAlias: 1
FitToEm: 0
WinInfo: 19 19 8
BeginPrivate: 8
BlueValues 31 [-14 0 529 542 722 730 749 777]
OtherBlues 11 [-201 -193]
BlueScale 9 0.0353571
BlueShift 1 1
StdHW 4 [68]

StartChar: exclam
Encoding: 33 33 2
Width: 600
GlyphClass: 2
Flags: W
LayerCount: 2
Fore
SplineSet
356.001953125 55.4912109375 m 0
 356.001953125 17.7001953125 325.295898438 -13.0166015625 287.478515625 -13.0166015625 c 0
 249.671875 -13.0166015625 218.954101562 17.6865234375 218.954101562 55.4931640625 c 0
 218.954101562 93.2861328125 249.66015625 124.001953125 287.478515625 124.001953125 c 0
 325.284179688 124.001953125 356.001953125 93.296875 356.001953125 55.4912109375 c 0
289.271484375 774.000976562 m 0
 311.01953125 774.000976562 335.400390625 759.407226562 344.34375 724.3203125 c 0
 346.088867188 717.475585938 348.7578125 704.489257812 348.7578125 677.25 c 0
 348.7578125 632.978515625 340.892578125 589.116210938 337.998046875 545 c 2
 316.998046875 225 l 1
 258.998046875 225 l 1
 241.998046875 545 l 2
 237.953125 621.13671875 230.563476562 649.2734375 230.563476562 686.669921875 c 0
 230.563476562 708.377929688 233.142578125 724.01171875 238.4609375 736.817382812 c 0
 248.801757812 761.720703125 269.201171875 774.000976562 289.271484375 774.000976562 c 0
EndSplineSet
Validated: 524289
EndChar

StartChar: quotedbl
Encoding: 34 34 3
Width: 600
GlyphClass: 2
Flags: W
LayerCount: 2
Fore
SplineSet
456 706 m 2
 455.999023438 595.999023438 l 1
 457.638671875 491.999023438 l 1
 377.278320312 491.999023438 l 1
 373.998046875 541.999023438 377.278320312 541.999023438 375.638671875 591.999023438 c 1
 380.763671875 611.499023438 373.999023438 625.256835938 373.999023438 647.999023438 c 2
 373.999023438 705.999023438 l 2
 373.999023438 751.78125 401.19140625 772.142578125 419.513671875 772.142578125 c 0
 438.178710938 772.142578125 456 758.432617188 456 706 c 2
253.999023438 705.999023438 m 2
 253.998046875 595.998046875 l 1
 255.637695312 491.998046875 l 1
 175.27734375 491.998046875 l 1
 171.997070312 541.998046875 175.27734375 541.998046875 173.637695312 591.998046875 c 1
 178.762695312 611.498046875 171.998046875 625.255859375 171.998046875 647.998046875 c 2
 171.998046875 705.998046875 l 2
 171.998046875 751.780273438 199.190429688 772.141601562 217.512695312 772.141601562 c 0
 236.177734375 772.141601562 253.999023438 758.431640625 253.999023438 705.999023438 c 2
EndSplineSet
Validated: 524321
EndChar

StartChar: numbersign
Encoding: 35 35 4
Width: 600
GlyphClass: 2
Flags: W
LayerCount: 2
Fore
SplineSet
211 723 m 1
 281 725.998046875 l 1
 256.940429688 527.364257812 l 1
 384.587890625 528.889648438 l 1
 407.000976562 716.999023438 l 1
 479.000976562 719.999023438 l 1
 455.758789062 529.741210938 l 1
 561.000976562 530.999023438 l 1
 555.000976562 474.999023438 l 1
 448.942382812 473.938476562 l 1
 425.119140625 278.9140625 l 1
 540.000976562 280.999023438 l 1
 534.000976562 226.999023438 l 1
 418.548828125 225.1328125 l 1
 393.000976562 15.9990234375 l 1
 323.000976562 11.9990234375 l 1
 348.259765625 223.997070312 l 1
 219.943359375 221.922851562 l 1
 195 15.9990234375 l 1
 127 12.9990234375 l 1
 151.586914062 220.819335938 l 1
 39 218.999023438 l 1
 44 271.999023438 l 1
 157.88671875 274.065429688 l 1
 181.216796875 471.26171875 l 1
 55 470 l 1
 59 525 l 1
 187.756835938 526.5390625 l 1
 211 723 l 1
250.227539062 471.950195312 m 1
 226.408203125 275.30859375 l 1
 354.649414062 277.635742188 l 1
 377.954101562 473.228515625 l 1
 250.227539062 471.950195312 l 1
EndSplineSet
Validated: 524289
EndChar

StartChar: dollar
Encoding: 36 36 5
Width: 600
GlyphClass: 2
Flags: W
LayerCount: 2
Fore
SplineSet
282 754 m 1
 357.000976562 754.001953125 l 2
 357.544921875 752.763671875 357.826171875 751.41796875 357.826171875 750.047851562 c 0
 357.826171875 741.463867188 350.000976562 741.129882812 350.000976562 730.001953125 c 2
 350.000976562 685.532226562 l 1
 418.46875 678.6328125 479.44921875 647.799804688 522.000976562 597.001953125 c 1
 472.000976562 534.001953125 l 2
 469.530273438 534.649414062 466.40625 536.861328125 465.999023438 542.033203125 c 0
 465.735351562 545.38671875 466.586914062 548.591796875 464.874023438 552.133789062 c 0
 464.3671875 553.182617188 463.572265625 554.43359375 459.966796875 558.805664062 c 0
 435.884765625 588.016601562 400.198242188 609.607421875 350.000976562 617.169921875 c 1
 350.000976562 394.0078125 l 1
 376.209960938 385.213867188 402.685546875 376.233398438 426.693359375 365.90625 c 0
 451.098632812 355.408203125 542.790039062 316.114257812 542.790039062 210.306640625 c 0
 542.790039062 127.201171875 481.208007812 35.896484375 350.000976562 18.7900390625 c 1
 350.000976562 -54 l 1
 282.000976562 -54 l 1
 282.000976562 16.6513671875 l 1
 202.131835938 21.638671875 130.57421875 53.0654296875 79.0009765625 109.000976562 c 1
 129.000976562 178.000976562 l 1
 134.732421875 175.387695312 134.1796875 168.719726562 134.1015625 167.26953125 c 0
 133.830078125 162.202148438 133.224609375 159.078125 137.66796875 154.350585938 c 0
 170.200195312 119.732421875 221.08203125 90.2109375 282.000976562 83.4423828125 c 1
 282.000976562 338.141601562 l 1
 260.848632812 345.221679688 239.279296875 353.278320312 218.421875 363.137695312 c 0
 121.0078125 409.184570312 101.837890625 474.448242188 101.837890625 516.64453125 c 0
 101.837890625 600.059570312 175.20703125 670.81640625 282 684.5859375 c 1
 282 754 l 1
350.000976562 316.850585938 m 1
 350.001953125 85.8447265625 l 1
 424.319335938 100.223632812 467.129882812 152.5625 467.129882812 204.904296875 c 0
 467.129882812 228.696289062 458.248046875 267.248046875 409.600585938 293.706054688 c 0
 393.6875 302.361328125 373.119140625 309.564453125 350.000976562 316.850585938 c 1
282.001953125 418.09765625 m 1
 282.000976562 618.619140625 l 1
 209.129882812 610.104492188 178.408203125 566.6796875 178.408203125 526.616210938 c 0
 178.408203125 501.336914062 190.350585938 466.610351562 241.421875 437.197265625 c 0
 253.40625 430.294921875 267.162109375 424.025390625 282.001953125 418.09765625 c 1
EndSplineSet
Validated: 524289
EndChar

StartChar: percent
Encoding: 37 37 6
Width: 600
GlyphClass: 2
Flags: W
LayerCount: 2
Fore
SplineSet
463 722 m 1
 541 722 l 1
 137 0 l 1
 63 0 l 1
 463 722 l 1
171.904296875 735.106445312 m 0
 242.474609375 735.106445312 302.16015625 670.55078125 302.16015625 582.1875 c 0
 302.16015625 496.123046875 243.528320312 431.982421875 172.952148438 431.982421875 c 0
 101.83984375 431.982421875 42.8515625 496.911132812 42.8515625 583.448242188 c 0
 42.8515625 672.526367188 103.041992188 735.106445312 171.904296875 735.106445312 c 0
170.330078125 674.005859375 m 0
 147.48046875 674.005859375 112.978515625 656.125 112.978515625 587.430664062 c 0
 112.978515625 508.954101562 151.26171875 493.912109375 172.149414062 493.912109375 c 0
 195.202148438 493.912109375 229.091796875 512.142578125 229.091796875 579.149414062 c 0
 229.091796875 661.66796875 189.09765625 674.005859375 170.330078125 674.005859375 c 0
569.017578125 138.59375 m 0
 569.017578125 51.74609375 509.983398438 -12.123046875 439.6953125 -12.123046875 c 0
 369.048828125 -12.123046875 309.979492188 52.0537109375 309.979492188 138.262695312 c 0
 309.979492188 225.08984375 369.21875 289.001953125 439.588867188 289.001953125 c 0
 510.126953125 289.001953125 569.017578125 224.872070312 569.017578125 138.59375 c 0
439.3203125 229.005859375 m 0
 414.436523438 229.005859375 378.994140625 208.942382812 378.994140625 138.341796875 c 0
 378.994140625 69.892578125 413.149414062 46.771484375 440.303710938 46.771484375 c 0
 465.114257812 46.771484375 500.008789062 66.7958984375 500.008789062 135.904296875 c 0
 500.008789062 210.331054688 463.157226562 229.005859375 439.3203125 229.005859375 c 0
EndSplineSet
Validated: 524289
EndChar

StartChar: ampersand
Encoding: 38 38 7
Width: 600
GlyphClass: 2
Flags: W
LayerCount: 2
Fore
SplineSet
275.21875 729.11328125 m 0
 362.08984375 729.11328125 430.046875 664.094726562 430.046875 574.84375 c 0
 430.046875 499.04296875 380.584960938 423.323242188 304.998046875 382.001953125 c 1
 434.998046875 201.001953125 l 1
 462.524414062 232.965820312 478.37109375 266.739257812 487.028320312 294.095703125 c 0
 487.896484375 296.841796875 488.579101562 299.923828125 488.579101562 303.140625 c 0
 488.579101562 307.708984375 486.978515625 312.212890625 486.978515625 316.940429688 c 0
 486.978515625 322.598632812 489.254882812 326.513671875 491.999023438 329.002929688 c 2
 566.999023438 277.002929688 l 1
 540.905273438 230.063476562 511.51171875 184.94921875 479 142.001953125 c 1
 560 37.001953125 l 1
 492 -13.998046875 l 1
 428 88.001953125 l 1
 382.005859375 30.9921875 310.649414062 -12.029296875 232.618164062 -12.029296875 c 0
 128.3359375 -12.029296875 51.73046875 66.275390625 51.73046875 169.43359375 c 0
 51.73046875 258.732421875 108.95703125 348.314453125 197.999023438 397.000976562 c 1
 155.127929688 448.798828125 115.987304688 513.45703125 115.987304688 577.0859375 c 0
 115.987304688 663.563476562 187.112304688 729.11328125 275.21875 729.11328125 c 0
195.895507812 575.614257812 m 0
 195.895507812 545.142578125 208.497070312 503.948242188 265.997070312 432.001953125 c 1
 319.75390625 461.716796875 354.162109375 516.514648438 354.162109375 569.306640625 c 0
 354.162109375 624.185546875 316.435546875 660.404296875 273.732421875 660.404296875 c 0
 232.64453125 660.404296875 195.895507812 626.4296875 195.895507812 575.614257812 c 0
237.997070312 343.001953125 m 1
 176.423828125 303.102539062 139.361328125 237.44921875 139.361328125 177.451171875 c 0
 139.361328125 110.153320312 186.015625 62.828125 245.170898438 62.828125 c 0
 322.403320312 62.828125 385.997070312 143.001953125 385.997070312 143.001953125 c 1
 237.997070312 343.001953125 l 1
EndSplineSet
Validated: 524289
EndChar

StartChar: quotesingle
Encoding: 39 39 8
Width: 600
GlyphClass: 2
Flags: W
LayerCount: 2
Fore
SplineSet
372 706 m 2
 372 595.998046875 l 1
 374 491.998046875 l 1
 276 491.998046875 l 1
 272 541.998046875 276 541.998046875 274 591.998046875 c 1
 280.25 611.498046875 272 625.255859375 272 647.998046875 c 2
 272 705.998046875 l 2
 272 751.780273438 305.162109375 772.142578125 327.504882812 772.142578125 c 0
 350.266601562 772.142578125 372 758.432617188 372 706 c 2
EndSplineSet
Validated: 524321
EndChar

StartChar: parenleft
Encoding: 40 40 9
Width: 600
GlyphClass: 2
Flags: W
LayerCount: 2
Fore
SplineSet
464 772 m 1
 498.999023438 701.000976562 l 1
 495.073242188 698.763671875 491.328125 698.611328125 489.66796875 698.611328125 c 0
 485.072265625 698.611328125 481.39453125 699.932617188 477.322265625 699.932617188 c 0
 472.715820312 699.932617188 469.926757812 698.140625 466.833984375 696.315429688 c 0
 331.452148438 616.467773438 251.272460938 468.859375 251.272460938 303.345703125 c 0
 251.272460938 123.314453125 344.629882812 -46.9677734375 503 -138.999023438 c 1
 465 -199.999023438 l 1
 281.456054688 -103.657226562 170.6796875 88.9931640625 170.6796875 299.462890625 c 0
 170.6796875 511.567382812 284.677734375 693.118164062 464 772 c 1
EndSplineSet
Validated: 524289
EndChar

StartChar: parenright
Encoding: 41 41 10
Width: 600
GlyphClass: 2
Flags: W
LayerCount: 2
Fore
SplineSet
100 699 m 1
 122.000976562 771.000976562 l 1
 310.266601562 684.352539062 432.000976562 496.633789062 432.000976562 290.290039062 c 0
 432.000976562 82.10546875 308.169921875 -110.3828125 116.000976562 -201.999023438 c 1
 94.0009765625 -131.999023438 l 1
 250.594726562 -49.1162109375 350.028320312 112.59765625 350.028320312 286.978515625 c 0
 350.028320312 458.955078125 253.15234375 617.580078125 100 699 c 1
EndSplineSet
Validated: 524289
EndChar

StartChar: asterisk
Encoding: 42 42 11
Width: 600
GlyphClass: 2
Flags: W
LayerCount: 2
Fore
SplineSet
257 601 m 1
 351 601 l 1
 349.036132812 587.216796875 345.490234375 584.40625 344 570 c 2
 326 396 l 1
 510 480 l 1
 541 409 l 1
 342 349 l 1
 488 174 l 1
 425 124 l 1
 300 316 l 1
 170 123 l 1
 107 174 l 1
 258 348 l 1
 58 409 l 1
 88 484 l 1
 275 396 l 1
 257 601 l 1
EndSplineSet
Validated: 524289
EndChar

StartChar: plus
Encoding: 43 43 12
Width: 600
GlyphClass: 2
Flags: W
LayerCount: 2
Fore
SplineSet
267 606 m 1
 340 606 l 1
 340 408 l 1
 538 408 l 1
 538 337 l 1
 340 337 l 1
 340 120 l 1
 267 120 l 1
 267 337 l 1
 62 337 l 1
 62 408 l 1
 267 408 l 1
 267 606 l 1
EndSplineSet
Validated: 1
EndChar

StartChar: comma
Encoding: 44 44 13
Width: 600
GlyphClass: 2
Flags: W
LayerCount: 2
Fore
SplineSet
364.15234375 22.8349609375 m 0
 364.15234375 -37.494140625 321.708007812 -113.059570312 241.001953125 -195.002929688 c 1
 201.001953125 -160.002929688 l 1
 228.483398438 -134.728515625 247.953125 -106.53125 259.272460938 -87.935546875 c 0
 264.930664062 -78.640625 276.4296875 -58.8359375 276.4296875 -39.66015625 c 0
 276.4296875 -15.8046875 259.353515625 -5.134765625 249.286132812 1.560546875 c 0
 239.048828125 8.369140625 216.974609375 21.6923828125 216.974609375 52.8515625 c 0
 216.974609375 87.8486328125 245.537109375 118.9296875 283.672851562 118.9296875 c 0
 324.887695312 118.9296875 364.15234375 82.1328125 364.15234375 22.8349609375 c 0
EndSplineSet
Validated: 524289
EndChar

StartChar: hyphen
Encoding: 45 45 14
Width: 600
GlyphClass: 2
Flags: W
LayerCount: 2
Fore
SplineSet
92 403 m 1
 509 403 l 1
 509 326 l 1
 92 326 l 1
 92 403 l 1
EndSplineSet
Validated: 1
EndChar

StartChar: period
Encoding: 46 46 15
Width: 600
GlyphClass: 2
Flags: W
LayerCount: 2
Fore
SplineSet
355.001953125 53.4931640625 m 0
 355.001953125 17.0087890625 324.552734375 -13.0458984375 286.44140625 -13.0458984375 c 0
 248.415039062 -13.0458984375 217.952148438 16.98046875 217.952148438 53.5087890625 c 0
 217.952148438 89.962890625 248.3828125 120.001953125 286.461914062 120.001953125 c 0
 324.555664062 120.001953125 355.001953125 89.9609375 355.001953125 53.4931640625 c 0
EndSplineSet
Validated: 524289
EndChar

StartChar: slash
Encoding: 47 47 16
Width: 600
GlyphClass: 2
Flags: W
LayerCount: 2
Fore
SplineSet
84 -15 m 1
 447 770 l 1
 516 735 l 1
 152 -49 l 1
 84 -15 l 1
EndSplineSet
Validated: 1
EndChar

StartChar: zero
Encoding: 48 48 17
Width: 600
GlyphClass: 2
Flags: WO
HStem: -13.7402 73.3398<234.059 369.069> 466.764 74.4395<227.828 374.5>
VStem: 71 66.6484<172.249 366.938> 465.604 69.3965<172.302 366.381>
LayerCount: 2
Fore
SplineSet
71 263.731445312 m 0
 71 416.8203125 175 541.203125 303 541.203125 c 0
 431 541.203125 535 416.8203125 535 263.731445312 c 0
 535 110.643554688 431 -13.740234375 303 -13.740234375 c 0
 175 -13.740234375 71 110.643554688 71 263.731445312 c 0
389.283852855 436.439123341 m 1
 363.919691339 455.639594765 333.84882005 466.763671875 301.625976562 466.763671875 c 0
 211.155273438 466.763671875 137.6484375 379.073242188 137.6484375 271.145507812 c 0
 137.6484375 227.510713179 149.663757459 184.580035355 169.957681962 148.916605155 c 1
 389.283852855 436.439123341 l 1
432.970931645 388.186492308 m 1
 210.982690916 97.1722683425 l 1
 236.958464895 73.803994564 268.129494893 59.599609375 301.625976562 59.599609375 c 0
 392.096679688 59.599609375 465.603515625 163.21875 465.603515625 271.145507812 c 0
 465.603515625 315.011941678 453.460507997 355.535261368 432.970931645 388.186492308 c 1
EndSplineSet
Validated: 524289
EndChar

StartChar: one
Encoding: 49 49 18
Width: 600
GlyphClass: 2
Flags: W
HStem: -1 21G<276 357>
VStem: 276 81<-1 462>
LayerCount: 2
Fore
SplineSet
357 563 m 5
 357 -1 l 1
 276 -1 l 1
 276 462 l 5
 131 419 l 5
 112 464 l 5
 301 563 l 5
 357 563 l 5
EndSplineSet
Validated: 1
EndChar

StartChar: two
Encoding: 50 50 19
Width: 600
GlyphClass: 2
Flags: W
HStem: 0.00292969 81<274.591 518.998> 0.00292969 72.999<213.997 518.647> 475.45 71.5596<210.654 379.057>
VStem: 431.225 80.3066<302.111 426.812>
LayerCount: 2
Fore
SplineSet
100 445 m 1x70
 142.551757812 504.719726562 220.170898438 547.009765625 302.102539062 547.009765625 c 0
 419.970703125 547.009765625 511.53125 465.693359375 511.53125 353.1953125 c 0
 511.53125 247.357421875 401.569335938 194.250976562 356 169 c 0
 319.219726562 148.619140625 265 120 213.997070312 73.001953125 c 1x70
 490.997070312 71.001953125 l 2
 496.28125 71.001953125 498.689453125 71.7431640625 503.389648438 75.7958984375 c 0
 505.797851562 77.873046875 511.4765625 83.498046875 518.998046875 81.0029296875 c 1
 518.998046875 0.0029296875 l 1xb0
 94.998046875 0.0029296875 l 1
 94.998046875 51.0029296875 l 1
 143 114 213.426757812 170.0546875 266 202 c 0
 332.723541022 242.543521388 431.224609375 280.280273438 431.224609375 358.24609375 c 0
 431.224609375 435.848632812 369.479492188 475.450195312 292.553710938 475.450195312 c 0
 227.005815253 475.450195312 164.650390625 430.225585938 142 398 c 5
 100 445 l 1x70
EndSplineSet
Validated: 524289
EndChar

StartChar: three
Encoding: 51 51 20
Width: 600
GlyphClass: 2
Flags: W
HStem: -192.19 73.4512<200.845 353.92> 165.578 62.4209<217.999 337.348> 472.425 71.8652<202.529 357.923>
VStem: 409.043 76.9961<293.025 423.908> 424.301 77.7236<-48.6731 101.316>
LayerCount: 2
Fore
SplineSet
486.0390625 361.353515625 m 0xf0
 486.0390625 291.159179688 442.78515625 229.131835938 377.998046875 205 c 1
 452.904296875 177.627929688 502.024414062 104.533203125 502.024414062 18.625 c 0
 502.024414062 -93.5546875 418.0390625 -192.190429688 279.720703125 -192.190429688 c 0
 207.412109375 -192.190429688 138.421875 -163.834960938 89.998046875 -110 c 1
 150.998046875 -37 l 1
 161.290039062 -47.5361328125 156.1328125 -58.7666015625 165.97265625 -69.853515625 c 0
 171.102539062 -75.6337890625 211.731445312 -118.739257812 278.994140625 -118.739257812 c 0
 363.522460938 -118.739257812 424.30078125 -50.845703125 424.30078125 28.4482421875 c 0xe8
 424.30078125 114.505859375 352.454101562 165.578125 254.686523438 165.578125 c 0
 242.416992188 165.578125 230.158203125 164.709960938 217.999023438 162.999023438 c 1
 217.999023438 227.999023438 l 1
 286.5 228.149414062 319.344726562 240.747070312 332.0390625 246.322265625 c 0
 382.01953125 268.2734375 409.04296875 315.9453125 409.04296875 359.9296875 c 0
 409.04296875 420.916992188 357.626953125 472.424804688 283.533203125 472.424804688 c 0
 238.88671875 472.424804688 192.676757812 453.091796875 159 417 c 1
 114 467 l 1
 159.315429688 516.50390625 222.364257812 544.290039062 287.4921875 544.290039062 c 0
 401.6875 544.290039062 486.0390625 459.912109375 486.0390625 361.353515625 c 0xf0
EndSplineSet
Validated: 524289
EndChar

StartChar: four
Encoding: 52 52 21
Width: 600
GlyphClass: 2
Flags: W
HStem: 13 71<146 357 441 534> 516 20G<359.739 441>
VStem: 358 83<-187 12 84 407>
LayerCount: 2
Fore
SplineSet
373 536 m 5
 441 536 l 5
 441 84 l 5
 534 84 l 5
 534 12 l 5
 441 12 l 5
 441 -187 l 5
 357 -187 l 5
 357 13 l 5
 66 13 l 5
 66 73 l 5
 373 536 l 5
358 407 m 5
 146 84 l 5
 358 84 l 5
 358 407 l 5
EndSplineSet
Validated: 1
EndChar

StartChar: five
Encoding: 53 53 22
Width: 600
GlyphClass: 2
Flags: W
HStem: -193.017 71.0029<218.435 371.005> 222.107 66.9072<215.319 368.45> 469.001 72.999<200.999 498.999>
VStem: 443.031 83.0137<-45.2316 144.931>
LayerCount: 2
Fore
SplineSet
133 542 m 1
 498.999023438 542.000976562 l 1
 498.999023438 469.000976562 l 1
 200.999023438 469.000976562 l 1
 189.999023438 261.000976562 l 1
 227.408203125 279.662109375 267.739257812 289.014648438 307.612304688 289.014648438 c 0
 428.501953125 289.014648438 526.044921875 202.830078125 526.044921875 48.267578125 c 0
 526.044921875 -108.229492188 422.797851562 -193.016601562 297.987304688 -193.016601562 c 0
 212.186523438 -193.016601562 131.879882812 -152.67578125 84 -82 c 1
 156 -28 l 1
 165.915039062 -35.072265625 159.967773438 -46.484375 164.635742188 -55.3125 c 0
 168.651367188 -62.90625 219.024414062 -122.013671875 296.989257812 -122.013671875 c 0
 374.499023438 -122.013671875 443.03125 -61.236328125 443.03125 49.806640625 c 0
 443.03125 164.869140625 371.2734375 222.107421875 295.26171875 222.107421875 c 0
 245.95703125 222.107421875 194.844726562 197.881835938 160 154 c 1
 108 175 l 1
 133 542 l 1
EndSplineSet
Validated: 524289
EndChar

StartChar: six
Encoding: 54 54 23
Width: 600
GlyphClass: 2
Flags: W
HStem: -12 72<251.413 378.789> 395 71<242.448 377.91> 658 72<269.627 415.95>
VStem: 88 83<159.044 519.597> 440 79<128.08 325.804>
LayerCount: 2
Fore
SplineSet
343 730 m 0
 401 730 459 706 501 664 c 1
 445 602 l 1
 434 610 435 621 428 628 c 0
 423 633 391 658 343 658 c 0
 291 658 172 626 168 379 c 1
 200 433 258 466 321 466 c 0
 423 466 519 380 519 230 c 0
 519 81 423 -12 313 -12 c 0
 249 -12 184 20 142 84 c 0
 96 154 88 244 88 329 c 0
 88 398 94 482 119 551 c 0
 163 677 257 730 343 730 c 0
313 395 m 0
 260 395 205 357 172 298 c 0
 171 289 171 280 171 271 c 0
 171 150 234 60 316 60 c 0
 378 60 440 113 440 225 c 0
 440 350 371 395 313 395 c 0
EndSplineSet
Validated: 1
EndChar

StartChar: seven
Encoding: 55 55 24
Width: 600
GlyphClass: 2
Flags: W
HStem: 465 77<101 410>
VStem: 167 91<-180 -119.242>
LayerCount: 2
Fore
SplineSet
101 542 m 1
 510.000976562 541.999023438 l 1
 510.000976562 496.999023438 l 1
 461.138671875 385.326171875 415.446289062 272.265625 373 158 c 0
 331.552734375 46.4248046875 293.200195312 -66.2998046875 258 -180 c 1
 167 -180 l 1
 209.791992188 -50.2158203125 255.810546875 78.5029296875 305 206 c 0
 338.534179688 292.91796875 373.540039062 379.267578125 410 465 c 1
 101 465 l 1
 101 542 l 1
EndSplineSet
Validated: 524289
EndChar

StartChar: eight
Encoding: 56 56 25
Width: 600
GlyphClass: 2
Flags: W
HStem: -12.0635 73.0586<227.205 378.537> 663.016 68.0449<235.12 371.293>
VStem: 79.8447 83.1475<122.609 264.743> 113.953 77.9648<496.134 621.773> 417.999 79.2012<487.035 616.408> 439.254 82.1094<118.609 256.004>
LayerCount: 2
Fore
SplineSet
309.221679688 731.060546875 m 0xd0
 415.173828125 731.060546875 497.200195312 655.220703125 497.200195312 560.080078125 c 0xd8
 497.200195312 490.518554688 451.98828125 422.755859375 381.999023438 386 c 1
 463.397460938 348.44921875 521.36328125 271.38671875 521.36328125 186.379882812 c 0
 521.36328125 76.3798828125 425.924804688 -12.0634765625 299.12109375 -12.0634765625 c 0
 174.776367188 -12.0634765625 79.8447265625 73.990234375 79.8447265625 181.557617188 c 0xe4
 79.8447265625 264.874023438 138.310546875 343.716796875 224 384.000976562 c 1
 158.829101562 417.287109375 113.953125 482.052734375 113.953125 553.06640625 c 0
 113.953125 650.3359375 198.715820312 731.060546875 309.221679688 731.060546875 c 0xd0
284.999023438 350.999023438 m 1
 216.28125 322.470703125 162.9921875 260.53515625 162.9921875 192.303710938 c 0
 162.9921875 119.654296875 224.27734375 60.9951171875 302.82421875 60.9951171875 c 0
 380.008789062 60.9951171875 439.25390625 117.608398438 439.25390625 187.22265625 c 0xe4
 439.25390625 257.77734375 377.892578125 321.690429688 284.999023438 350.999023438 c 1
303.001953125 663.015625 m 0
 239.98828125 663.015625 191.91796875 616.893554688 191.91796875 559.981445312 c 0
 191.91796875 464.567382812 318.999023438 414.999023438 318.999023438 414.999023438 c 1
 375.247070312 445.250976562 417.999023438 499.153320312 417.999023438 554.723632812 c 0xd8
 417.999023438 615.014648438 367.540039062 663.015625 303.001953125 663.015625 c 0
EndSplineSet
Validated: 524289
EndChar

StartChar: nine
Encoding: 57 57 26
Width: 600
GlyphClass: 2
Flags: W
HStem: -198 74<183.295 340.53> 76 71<229.501 366.475> 471 72<230.189 359.852>
VStem: 89 79<213.762 401.092> 434 83<-1.53116 376.461>
LayerCount: 2
Fore
SplineSet
262 -198 m 4
 202 -198 145 -174 102 -132 c 5
 158 -70 l 5
 170 -78 167 -90 177 -98 c 5
 177 -98 212 -124 264 -124 c 4
 316 -124 376 -98 407 -25 c 4
 414 -7 433 42 436 154 c 5
 402 105 347 76 287 76 c 4
 182 76 89 165 89 304 c 4
 89 444 183 543 296 543 c 4
 371 543 454 497 492 386 c 4
 509 337 517 275 517 184 c 4
 517 66 498 3 486 -30 c 4
 442 -145 350 -198 262 -198 c 4
295 147 m 4
 347 147 400 181 432 235 c 5
 433 247 434 259 434 270 c 4
 434 395 369 471 294 471 c 4
 228 471 168 412 168 307 c 4
 168 200 231 147 295 147 c 4
EndSplineSet
Validated: 1
EndChar

StartChar: colon
Encoding: 58 58 27
Width: 600
GlyphClass: 2
Flags: W
LayerCount: 2
Fore
SplineSet
355.001953125 423.493164062 m 0
 355.001953125 387.008789062 324.551757812 356.954101562 286.44140625 356.954101562 c 0
 248.415039062 356.954101562 217.952148438 386.98046875 217.952148438 423.508789062 c 0
 217.952148438 459.962890625 248.3828125 490.001953125 286.461914062 490.001953125 c 0
 324.555664062 490.001953125 355.001953125 459.9609375 355.001953125 423.493164062 c 0
355.001953125 53.4931640625 m 0
 355.001953125 17.0087890625 324.551757812 -13.0458984375 286.44140625 -13.0458984375 c 0
 248.415039062 -13.0458984375 217.952148438 16.98046875 217.952148438 53.5087890625 c 0
 217.952148438 89.962890625 248.3828125 120.001953125 286.461914062 120.001953125 c 0
 324.555664062 120.001953125 355.001953125 89.9609375 355.001953125 53.4931640625 c 0
EndSplineSet
Validated: 524289
EndChar

StartChar: semicolon
Encoding: 59 59 28
Width: 600
GlyphClass: 2
Flags: W
LayerCount: 2
Fore
SplineSet
364.15234375 22.8349609375 m 0
 364.15234375 -37.494140625 321.706054688 -113.056640625 241 -195 c 1
 201 -160 l 1
 228.481445312 -134.725585938 247.951171875 -106.529296875 259.26953125 -87.93359375 c 0
 264.927734375 -78.6376953125 276.426757812 -58.833984375 276.426757812 -39.658203125 c 0
 276.426757812 -15.802734375 259.350585938 -5.1328125 249.284179688 1.5625 c 0
 239.046875 8.37109375 216.97265625 21.6943359375 216.97265625 52.8525390625 c 0
 216.97265625 87.849609375 245.536132812 118.9296875 283.671875 118.9296875 c 0
 324.88671875 118.9296875 364.15234375 82.1328125 364.15234375 22.8349609375 c 0
355.001953125 423.493164062 m 0
 355.001953125 387.008789062 324.551757812 356.954101562 286.44140625 356.954101562 c 0
 248.415039062 356.954101562 217.952148438 386.98046875 217.952148438 423.508789062 c 0
 217.952148438 459.962890625 248.3828125 490.001953125 286.461914062 490.001953125 c 0
 324.555664062 490.001953125 355.001953125 459.9609375 355.001953125 423.493164062 c 0
EndSplineSet
Validated: 524289
EndChar

StartChar: less
Encoding: 60 60 29
Width: 600
GlyphClass: 2
Flags: W
LayerCount: 2
Fore
SplineSet
541 575 m 1
 139 370 l 1
 544 142 l 1
 544 55 l 1
 50 343 l 1
 50 399 l 1
 541 657 l 1
 541 575 l 1
EndSplineSet
Validated: 1
EndChar

StartChar: equal
Encoding: 61 61 30
Width: 600
GlyphClass: 2
Flags: W
LayerCount: 2
Fore
SplineSet
62 508 m 1
 538 508 l 1
 538 437 l 1
 62 437 l 1
 62 508 l 1
62 268 m 1
 538 268 l 1
 538 197 l 1
 62 197 l 1
 62 268 l 1
EndSplineSet
Validated: 1
EndChar

StartChar: greater
Encoding: 62 62 31
Width: 600
GlyphClass: 2
Flags: W
LayerCount: 2
Fore
SplineSet
59 575 m 1
 59 657 l 1
 550 399 l 1
 550 343 l 1
 56 55 l 1
 56 142 l 1
 461 370 l 1
 59 575 l 1
EndSplineSet
Validated: 1
EndChar

StartChar: question
Encoding: 63 63 32
Width: 600
GlyphClass: 2
Flags: W
LayerCount: 2
Fore
SplineSet
381.001953125 51.4931640625 m 0
 381.001953125 15.0087890625 350.552734375 -15.0458984375 312.44140625 -15.0458984375 c 0
 274.415039062 -15.0458984375 243.952148438 14.98046875 243.952148438 51.5087890625 c 0
 243.952148438 87.962890625 274.3828125 118.001953125 312.461914062 118.001953125 c 0
 350.555664062 118.001953125 381.001953125 87.9609375 381.001953125 51.4931640625 c 0
84.0009765625 650 m 1
 134.42578125 727.69140625 220.638671875 771.060546875 307.403320312 771.060546875 c 0
 438.700195312 771.060546875 513.241210938 674.633789062 513.241210938 566.639648438 c 0
 513.241210938 457.756835938 436.647460938 413.666992188 398.405273438 379.676757812 c 0
 350.693359375 337.26953125 348.000976562 302.8359375 348.000976562 262.000976562 c 2
 348.000976562 214.000976562 l 1
 272.000976562 214.000976562 l 1
 272.000976562 262.000976562 l 2
 272.000976562 314.014648438 275.260742188 354.806640625 326.450195312 411.013671875 c 0
 361.47265625 449.46875 421.577148438 496.796875 421.577148438 572.709960938 c 0
 421.577148438 641.182617188 368.94921875 695.153320312 299.634765625 695.153320312 c 0
 241.046875 695.153320312 179.54296875 656.112304688 143.000976562 595 c 1
 84.0009765625 650 l 1
EndSplineSet
Validated: 524289
EndChar

StartChar: at
Encoding: 64 64 33
Width: 600
GlyphClass: 2
Flags: W
LayerCount: 2
Fore
SplineSet
514 35 m 1
 465 4 409 -13 352 -13 c 0
 207 -13 46 95 46 364 c 0
 46 627 198 733 324 733 c 0
 408 733 486 687 523 605 c 0
 548 549 549 493 549 438 c 2
 549 203 l 1
 479 203 l 1
 479 247 l 1
 450 213 408 193 363 193 c 0
 280 193 213 260 213 344 c 0
 213 406 251 468 323 497 c 0
 369 515 415 515 459 515 c 2
 476 515 l 1
 476 601 408 671 321 671 c 0
 221 671 113 576 113 367 c 0
 113 141 246 53 358 53 c 0
 403 53 446 66 483 91 c 1
 514 35 l 1
479 457 m 1
 460 457 l 2
 419 457 370 457 331 430 c 0
 300 408 285 377 285 347 c 0
 285 297 326 257 377 257 c 0
 410 257 444 275 462 310 c 0
 478 342 479 380 479 421 c 2
 479 435 l 1
 479 457 l 1
EndSplineSet
Validated: 1
EndChar

StartChar: A
Encoding: 65 65 34
Width: 600
GlyphClass: 2
Flags: W
LayerCount: 2
Fore
SplineSet
27 -1 m 1
 282 735 l 1
 291 735 l 1
 570 0 l 1
 486 0 l 1
 406 211 l 1
 177 211 l 1
 107 -1 l 1
 27 -1 l 1
388 274 m 1
 286 549 l 1
 193 274 l 1
 388 274 l 1
EndSplineSet
Validated: 1
EndChar

StartChar: B
Encoding: 66 66 35
Width: 600
GlyphClass: 2
Flags: W
LayerCount: 2
Fore
SplineSet
66 722 m 1
 271.000976562 721.999023438 l 2
 315.400390625 721.999023438 360.705078125 721.499023438 405.879882812 701.85546875 c 0
 473.724609375 672.353515625 511.000976562 610.489257812 511.000976562 545.609375 c 0
 511.000976562 476.390625 468.7890625 413.432617188 404.000976562 387 c 1
 484.89453125 359.735351562 539.123046875 283.98046875 539.123046875 199.903320312 c 0
 539.123046875 125.489257812 496.411132812 54.7900390625 418.711914062 21.7724609375 c 0
 368.818359375 0.5703125 319.110351562 0 270 0 c 2
 66 0 l 1
 66 722 l 1
146.000976562 652.999023438 m 1
 146.000976562 422.999023438 l 1
 259.000976562 422.999023438 l 2
 291.145507812 422.999023438 325.727539062 423.130859375 358.963867188 437.513671875 c 0
 404.424804688 457.1875 429.169921875 496.92578125 429.169921875 538.13671875 c 0
 429.169921875 579.682617188 403.799804688 620.584960938 355.923828125 639.923828125 c 0
 323.833984375 652.885742188 290.834960938 652.999023438 260.000976562 652.999023438 c 2
 146.000976562 652.999023438 l 1
146.000976562 354.999023438 m 1
 146.001953125 70.9990234375 l 1
 284.001953125 70.9990234375 l 2
 315.206054688 70.9990234375 345.805664062 71.5458984375 376.986328125 85.595703125 c 0
 426.877929688 108.077148438 454.34765625 156.377929688 454.34765625 208.008789062 c 0
 454.34765625 260.225585938 425.928710938 311.752929688 372.336914062 337.188476562 c 0
 336.297851562 354.294921875 300.473632812 354.999023438 264.000976562 354.999023438 c 2
 146.000976562 354.999023438 l 1
EndSplineSet
Validated: 524289
EndChar

StartChar: C
Encoding: 67 67 36
Width: 600
GlyphClass: 2
Flags: W
LayerCount: 2
Fore
SplineSet
331.618164062 728 m 0
 427.541992188 728 514.174804688 672.041015625 552.999023438 584.999023438 c 1
 475.999023438 546.999023438 l 1
 470.668945312 550.735351562 470.71484375 557.018554688 470.71484375 558.375 c 0
 470.71484375 561.256835938 471.206054688 564.141601562 471.206054688 567.015625 c 0
 471.206054688 572.40234375 469.514648438 575.395507812 467.21484375 579.3671875 c 0
 438.07421875 629.698242188 385.396484375 663.166992188 328.881835938 663.166992188 c 0
 226.815429688 663.166992188 135.986328125 555.778320312 135.986328125 363.96875 c 0
 135.986328125 168.838867188 229.416992188 57.994140625 335.654296875 57.994140625 c 0
 392.31640625 57.994140625 449.701171875 90.884765625 482.999023438 146 c 1
 542.999023438 107 l 1
 497.693359375 32.978515625 417.216796875 -12.001953125 331.108398438 -12.001953125 c 0
 212.177734375 -12.001953125 56.966796875 77.8505859375 56.966796875 356.806640625 c 0
 56.966796875 645.837890625 219.327148438 728 331.618164062 728 c 0
EndSplineSet
Validated: 524289
EndChar

StartChar: D
Encoding: 68 68 37
Width: 600
GlyphClass: 2
Flags: W
LayerCount: 2
Fore
SplineSet
72 722 m 1
 241.000976562 722 l 2
 304.677734375 722 356.645507812 717.43359375 409.104492188 683.299804688 c 0
 501.966796875 622.875976562 543.181640625 501.212890625 543.181640625 362.19921875 c 0
 543.181640625 204.202148438 486.700195312 81.193359375 383.192382812 27.978515625 c 0
 332.291992188 1.810546875 284.390625 -1 227 -1 c 2
 72 -1 l 1
 72 722 l 1
149.000976562 653 m 1
 149 63 l 1
 223 63 l 2
 268.397460938 63 312.737304688 65.01953125 358.001953125 95.5625 c 0
 415.690429688 134.48828125 461.352539062 213.696289062 461.352539062 351.331054688 c 0
 461.352539062 455.016601562 438.9453125 557.73828125 371.850585938 613.3515625 c 0
 327.166015625 650.389648438 281.4921875 653 236.000976562 653 c 2
 149.000976562 653 l 1
EndSplineSet
Validated: 524289
EndChar

StartChar: E
Encoding: 69 69 38
Width: 600
GlyphClass: 2
Flags: W
LayerCount: 2
Fore
SplineSet
78 723 m 1
 521 723 l 1
 521 651 l 1
 155 651 l 1
 155 414 l 1
 457 414 l 1
 457 340 l 1
 155 340 l 1
 155 72 l 1
 518 72 l 1
 518 0 l 1
 78 0 l 1
 78 723 l 1
EndSplineSet
Validated: 1
EndChar

StartChar: F
Encoding: 70 70 39
Width: 600
GlyphClass: 2
Flags: W
LayerCount: 2
Fore
SplineSet
100 723 m 1
 516 723 l 1
 516 652 l 1
 182 652 l 1
 182 425 l 1
 452 425 l 1
 452 355 l 1
 182 355 l 1
 182 0 l 1
 100 0 l 1
 100 723 l 1
EndSplineSet
Validated: 1
EndChar

StartChar: G
Encoding: 71 71 40
Width: 600
GlyphClass: 2
Flags: W
LayerCount: 2
Fore
SplineSet
331.255859375 729.021484375 m 0
 420.2109375 729.021484375 499.721679688 682.819335938 541.000976562 607.999023438 c 1
 484.000976562 549.999023438 l 1
 474.934570312 555.814453125 472.125 564.987304688 468.569335938 572.77734375 c 0
 446.486328125 621.162109375 395.192382812 658.067382812 330.75390625 658.067382812 c 0
 269.931640625 658.067382812 205.563476562 624.732421875 168.3125 554.633789062 c 0
 140.06640625 501.478515625 131.993164062 436.709960938 131.993164062 369.474609375 c 0
 131.993164062 293.212890625 140.466796875 191.911132812 200.744140625 123.215820312 c 0
 240.012695312 78.4619140625 291.334960938 59.9970703125 338.045898438 59.9970703125 c 0
 381.069335938 59.9970703125 427.485351562 75.1279296875 468 104 c 1
 468 276 l 1
 337 276 l 1
 337 346 l 1
 543 346 l 1
 543 64 l 1
 474.934570312 13.8818359375 397.762695312 -11.048828125 330.883789062 -11.048828125 c 0
 204.890625 -11.048828125 51.88671875 79.109375 51.88671875 352.37109375 c 0
 51.88671875 669.165039062 235.234375 729.021484375 331.255859375 729.021484375 c 0
EndSplineSet
Validated: 524289
EndChar

StartChar: H
Encoding: 72 72 41
Width: 600
GlyphClass: 2
Flags: W
LayerCount: 2
Fore
SplineSet
73 722 m 1
 163 722 l 2
 163.822265625 720.356445312 164.251953125 718.529296875 164.251953125 716.663085938 c 0
 164.251953125 707.548828125 157 706.379882812 157 694 c 2
 157 413 l 1
 440 413 l 1
 440 722 l 1
 528 722 l 2
 528.872070312 720.544921875 529.3359375 718.865234375 529.3359375 717.137695312 c 0
 529.3359375 708.364257812 521 708.005859375 521 696 c 2
 521 -1 l 1
 439 -1 l 1
 439 344 l 1
 157 344 l 1
 157 0 l 1
 73 0 l 1
 73 722 l 1
EndSplineSet
Validated: 524289
EndChar

StartChar: I
Encoding: 73 73 42
Width: 600
GlyphClass: 2
Flags: W
LayerCount: 2
Fore
SplineSet
112 722 m 1
 470 722 l 1
 470 654 l 1
 327 654 l 1
 327 66 l 1
 477 66 l 1
 477 -1 l 1
 104 -1 l 1
 104 67 l 1
 246 67 l 1
 246 654 l 1
 112 654 l 1
 112 722 l 1
EndSplineSet
Validated: 1
EndChar

StartChar: J
Encoding: 74 74 43
Width: 600
GlyphClass: 2
Flags: W
LayerCount: 2
Fore
SplineSet
209 722 m 1
 539 722 l 1
 539 654 l 1
 428 654 l 1
 428 242 l 2
 428 190 428 135 400 83 c 0
 366 21 304 -13 235 -13 c 0
 172 -13 110 16 67 67 c 1
 121 133 l 1
 128 127 123 119 128 112 c 0
 131 109 176 59 237 59 c 0
 271 59 303 76 322 105 c 0
 347.137695312 142.241210938 348.004882812 189.018554688 348.004882812 231.610351562 c 2
 348 241 l 1
 348 654 l 1
 209 654 l 1
 209 722 l 1
EndSplineSet
Validated: 524289
EndChar

StartChar: K
Encoding: 75 75 44
Width: 600
GlyphClass: 2
Flags: W
LayerCount: 2
Fore
SplineSet
59 723 m 1
 156 723 l 1
 157 715 152 710 149 706 c 0
 145 701 145 698 145 693 c 2
 145 389 l 1
 447 728 l 1
 467 723 487 722 507 722 c 2
 537 722 l 1
 264 410 l 1
 556 -1 l 1
 499 -1 453 -5 453 -5 c 1
 202 361 l 1
 145 299 l 1
 145 0 l 1
 59 0 l 1
 59 723 l 1
EndSplineSet
Validated: 1
EndChar

StartChar: L
Encoding: 76 76 45
Width: 600
GlyphClass: 2
Flags: W
LayerCount: 2
Fore
SplineSet
87 722 m 1
 181 721.999023438 l 1
 182.251953125 713.76171875 178.670898438 707.036132812 176.95703125 703.775390625 c 0
 173.54296875 697.27734375 171 693.46875 171 683 c 2
 171 69 l 1
 519 69 l 1
 519 -1 l 1
 87 -1 l 1
 87 722 l 1
EndSplineSet
Validated: 524289
EndChar

StartChar: M
Encoding: 77 77 46
Width: 600
GlyphClass: 2
Flags: W
LayerCount: 2
Fore
SplineSet
57 722 m 1
 121 722 l 1
 300 369 l 1
 482 723 l 1
 543 723 l 1
 543 -1 l 1
 466 -1 l 1
 466 545 l 1
 310 254 l 1
 279 254 l 1
 133 541 l 1
 133 -1 l 1
 57 -1 l 1
 57 722 l 1
EndSplineSet
Validated: 1
EndChar

StartChar: N
Encoding: 78 78 47
Width: 600
GlyphClass: 2
Flags: W
LayerCount: 2
Fore
SplineSet
68 0 m 1
 68 722 l 1
 147 722 l 1
 450 187 l 1
 450 723 l 1
 536 723 l 1
 536.928710938 716.254882812 533.916015625 710.682617188 532.62109375 708.219726562 c 0
 529.84375 702.9375 528 700.057617188 528 692 c 2
 528 -1 l 1
 464 -1 l 1
 146 568 l 1
 146 0 l 1
 68 0 l 1
EndSplineSet
Validated: 524289
EndChar

StartChar: O
Encoding: 79 79 48
Width: 600
GlyphClass: 2
Flags: W
LayerCount: 2
Fore
SplineSet
556.0078125 359.50390625 m 0
 556.0078125 296.094726562 551.430664062 206.2734375 513.071289062 128.645507812 c 0
 465.540039062 32.45703125 382.427734375 -11.0146484375 304.486328125 -11.0146484375 c 0
 193.977539062 -11.0146484375 44.0009765625 78.3994140625 44.0009765625 362.11328125 c 0
 44.0009765625 645.883789062 196.08203125 730 303.76171875 730 c 0
 382.353515625 730 464.443359375 686.669921875 511.791992188 593.90234375 c 0
 551.171875 516.748046875 556.0078125 427.049804688 556.0078125 359.50390625 c 0
300.36328125 654.010742188 m 0
 224.498046875 654.010742188 123.974609375 587.912109375 123.974609375 372.66015625 c 0
 123.974609375 143.053710938 223.623046875 67.9873046875 304.837890625 67.9873046875 c 0
 353.418945312 67.9873046875 409.359375 95.4453125 442.76953125 165.716796875 c 0
 472.359375 227.951171875 475.088867188 301.614257812 475.088867188 348.897460938 c 0
 475.088867188 410.010742188 471.389648438 479.154296875 446.987304688 539.849609375 c 0
 413.337890625 623.543945312 351.59375 654.010742188 300.36328125 654.010742188 c 0
EndSplineSet
Validated: 524289
EndChar

StartChar: P
Encoding: 80 80 49
Width: 600
GlyphClass: 2
Flags: W
LayerCount: 2
Fore
SplineSet
162 646 m 1
 161 390 l 1
 307 390 l 2
 335 390 363 391 391 405 c 0
 433 426 455 469 455 515 c 0
 455 562 432 608 387 630 c 0
 357 645 328 646 298 646 c 2
 162 646 l 1
78 722 m 1
 298 722 l 2
 345 722 389 721 435 697 c 0
 503 662 538 592 538 519 c 0
 538 446 503 376 436 342 c 0
 392 320 349 319 304 319 c 2
 162 319 l 1
 162 0 l 1
 78 0 l 1
 78 722 l 1
EndSplineSet
Validated: 1
EndChar

StartChar: Q
Encoding: 81 81 50
Width: 600
GlyphClass: 2
Flags: W
LayerCount: 2
Fore
SplineSet
300 656 m 0
 222 656 123 586 123 374 c 0
 123 145 221 64 305 64 c 0
 366 64 478 108 478 348 c 0
 478 409 474 479 449 541 c 0
 414 626 351 656 300 656 c 0
556 358 m 0
 556 294 551 205 513 128 c 0
 473 48 409 4 343 -8 c 1
 344 -48 355 -95 428 -95 c 0
 454 -95 485 -91 522 -89 c 1
 520 -168 l 1
 497 -168 l 1
 454 -168 l 2
 407 -168 373 -166 341 -150 c 0
 290 -125 272 -77 272 -13 c 2
 272 -8 l 1
 167 8 44 105 44 362 c 0
 44 646 196 730 304 730 c 0
 383 730 466 686 513 592 c 0
 551 515 556 426 556 358 c 0
EndSplineSet
Validated: 1
EndChar

StartChar: R
Encoding: 82 82 51
Width: 600
GlyphClass: 2
Flags: W
LayerCount: 2
Fore
SplineSet
75 722 m 1
 287.999023438 722.000976562 l 2
 334.666015625 722.000976562 380.247070312 720.951171875 425.987304688 697.719726562 c 0
 492.447265625 663.965820312 528.142578125 596.481445312 528.142578125 523.978515625 c 0
 528.142578125 428.39453125 468.499023438 345.903320312 381 322 c 1
 548 0 l 1
 457 0 l 1
 297 319 l 1
 157 319 l 1
 157 0 l 1
 75 0 l 1
 75 722 l 1
156.999023438 646.000976562 m 1
 156.999023438 390.001953125 l 1
 296.999023438 390.001953125 l 2
 325.46484375 390.001953125 352.9921875 390.6796875 380.830078125 404.764648438 c 0
 422.658203125 425.927734375 445.001953125 468.9453125 445.001953125 514.987304688 c 0
 445.001953125 561.986328125 421.627929688 607.921875 376.618164062 630.500976562 c 0
 347.189453125 645.263671875 318.1640625 646.000976562 287.999023438 646.000976562 c 2
 156.999023438 646.000976562 l 1
EndSplineSet
Validated: 524289
EndChar

StartChar: S
Encoding: 83 83 52
Width: 600
GlyphClass: 2
Flags: W
LayerCount: 2
Fore
SplineSet
514 636 m 1
 463.001953125 566.998046875 l 2
 460.46875 567.767578125 457.130859375 570.056640625 456.8984375 576.4765625 c 0
 456.745117188 580.736328125 457.327148438 583.15234375 454.259765625 587.624023438 c 0
 426.295898438 628.399414062 374.583984375 659.13671875 307.323242188 659.13671875 c 0
 224.66796875 659.13671875 176.928710938 608.65625 176.928710938 553.30078125 c 0
 176.928710938 523.78515625 190.278320312 480.956054688 250.701171875 445.618164062 c 0
 316.767578125 406.979492188 418.491210938 386.475585938 481.295898438 327.333007812 c 0
 526.491210938 284.774414062 537.390625 234.350585938 537.390625 196.565429688 c 0
 537.390625 105.696289062 472.479492188 -12.0703125 296.743164062 -12.0703125 c 0
 207.646484375 -12.0703125 126.780273438 19.1650390625 70 80.998046875 c 1
 118 163.998046875 l 1
 123.540039062 161.186523438 123.28515625 154.810546875 123.258789062 152.897460938 c 0
 123.192382812 148.116210938 122.893554688 145.186523438 126.518554688 140.596679688 c 0
 158.80078125 99.7109375 219.841796875 60.94921875 299.099609375 60.94921875 c 0
 403.920898438 60.94921875 456.762695312 129.107421875 456.762695312 191.928710938 c 0
 456.762695312 224.217773438 443.541015625 261.930664062 396.185546875 291.611328125 c 0
 341.6171875 325.8125 237.400390625 350.796875 170.522460938 400.176757812 c 0
 110.322265625 444.626953125 93.7998046875 498.90625 93.7998046875 541.00390625 c 0
 93.7998046875 639.749023438 183.362304688 726.0078125 313.760742188 726.0078125 c 0
 392.465820312 726.0078125 465.1015625 694.098632812 514 636 c 1
EndSplineSet
Validated: 524289
EndChar

StartChar: T
Encoding: 84 84 53
Width: 600
GlyphClass: 2
Flags: W
LayerCount: 2
Fore
SplineSet
46 723 m 1
 546 723 l 1
 546 650 l 1
 333 650 l 1
 333 -1 l 1
 251 -1 l 1
 251 650 l 1
 46 650 l 1
 46 723 l 1
EndSplineSet
Validated: 1
EndChar

StartChar: U
Encoding: 85 85 54
Width: 600
GlyphClass: 2
Flags: W
LayerCount: 2
Fore
SplineSet
68 722 m 1
 159.002929688 721.998046875 l 2
 159.793945312 720.161132812 160.203125 718.169921875 160.203125 716.1484375 c 0
 160.203125 709.233398438 155.633789062 704.49609375 152.57421875 700.193359375 c 0
 148.298828125 694.180664062 148.002929688 690.264648438 148.002929688 684.999023438 c 2
 148.002929688 247.999023438 l 2
 148.002929688 212.140625 148.704101562 177.153320312 165.338867188 141.576171875 c 0
 191.301757812 86.05078125 245.807617188 55.9189453125 303.069335938 55.9189453125 c 0
 359.416015625 55.9189453125 413.78515625 85.341796875 440.46875 140.546875 c 0
 458.2265625 177.286132812 459.001953125 213.69140625 459.001953125 250.998046875 c 2
 459.001953125 721.998046875 l 1
 536.001953125 721.998046875 l 1
 536.001953125 252.998046875 l 2
 536.001953125 200.190429688 534.41015625 150.171875 507.086914062 99.8125 c 0
 466.01953125 24.1240234375 384.911132812 -13.07421875 301.461914062 -13.07421875 c 0
 216.265625 -13.07421875 136.155273438 24.9765625 96.1416015625 99.216796875 c 0
 69.4091796875 148.813476562 68 197.959960938 68 249 c 2
 68 722 l 1
EndSplineSet
Validated: 524289
EndChar

StartChar: V
Encoding: 86 86 55
Width: 600
GlyphClass: 2
Flags: W
LayerCount: 2
Fore
SplineSet
39 723 m 1
 124 723 l 1
 309 168 l 1
 484 722 l 1
 564 722 l 1
 322 -5 l 1
 285 -5 l 1
 39 723 l 1
EndSplineSet
Validated: 1
EndChar

StartChar: W
Encoding: 87 87 56
Width: 600
GlyphClass: 2
Flags: W
LayerCount: 2
Fore
SplineSet
30 722 m 1
 105 722 l 1
 183 234 l 1
 299 669 l 1
 324 669 l 1
 441 232 l 1
 507 722 l 1
 575 722 l 1
 461 -5 l 1
 429 -5 l 1
 305 472 l 1
 179 -5 l 1
 146 -5 l 1
 30 722 l 1
EndSplineSet
Validated: 1
EndChar

StartChar: X
Encoding: 88 88 57
Width: 600
GlyphClass: 2
Flags: W
LayerCount: 2
Fore
SplineSet
449 723 m 1
 530 723 l 1
 347.291992188 370.083984375 l 1
 552 0 l 1
 461 0 l 1
 300.473632812 286.15625 l 1
 146 0 l 1
 57 0 l 1
 254.44140625 368.201171875 l 1
 61 723 l 1
 148 723 l 1
 300.153320312 448.564453125 l 1
 449 723 l 1
EndSplineSet
Validated: 524289
EndChar

StartChar: Y
Encoding: 89 89 58
Width: 600
GlyphClass: 2
Flags: W
LayerCount: 2
Fore
SplineSet
43 723 m 1
 135 723 l 1
 312 372 l 1
 472 722 l 1
 558 722 l 1
 353 285 l 1
 353 0 l 1
 265 0 l 1
 265 285 l 1
 43 723 l 1
EndSplineSet
Validated: 1
EndChar

StartChar: Z
Encoding: 90 90 59
Width: 600
GlyphClass: 2
Flags: W
LayerCount: 2
Fore
SplineSet
82 722 m 1
 528 722 l 1
 527 665 l 1
 170 71 l 1
 511 71 l 2
 525 71 531 78 542 78 c 2
 546 78 l 1
 546 -1 l 1
 68 -1 l 1
 68 56 l 1
 432 649 l 1
 82 649 l 1
 82 722 l 1
EndSplineSet
Validated: 1
EndChar

StartChar: bracketleft
Encoding: 91 91 60
Width: 600
GlyphClass: 2
Flags: W
LayerCount: 2
Fore
SplineSet
162 776 m 1
 493 776 l 1
 493 707 l 1
 236 707 l 1
 236 -37 l 1
 494 -37 l 1
 494 -103 l 1
 162 -103 l 1
 162 776 l 1
EndSplineSet
Validated: 1
EndChar

StartChar: backslash
Encoding: 92 92 61
Width: 600
GlyphClass: 2
Flags: W
LayerCount: 2
Fore
SplineSet
516 -15 m 1
 448 -49 l 1
 84 735 l 1
 153 770 l 1
 516 -15 l 1
EndSplineSet
Validated: 1
EndChar

StartChar: bracketright
Encoding: 93 93 62
Width: 600
GlyphClass: 2
Flags: W
LayerCount: 2
Fore
SplineSet
438 776 m 1
 438 -103 l 1
 106 -103 l 1
 106 -37 l 1
 364 -37 l 1
 364 707 l 1
 107 707 l 1
 107 776 l 1
 438 776 l 1
EndSplineSet
Validated: 1
EndChar

StartChar: asciicircum
Encoding: 94 94 63
Width: 600
GlyphClass: 2
Flags: W
LayerCount: 2
Fore
SplineSet
118 425 m 1
 295 722 l 1
 320 722 l 1
 477 426 l 1
 415 397 l 1
 303 600 l 1
 176 397 l 1
 118 425 l 1
EndSplineSet
Validated: 1
EndChar

StartChar: underscore
Encoding: 95 95 64
Width: 600
GlyphClass: 2
Flags: W
LayerCount: 2
Fore
SplineSet
50 -22 m 1
 550 -22 l 1
 550 -93 l 1
 50 -93 l 1
 50 -22 l 1
EndSplineSet
Validated: 1
EndChar

StartChar: grave
Encoding: 96 96 65
Width: 600
GlyphClass: 2
Flags: W
LayerCount: 2
Fore
SplineSet
293.08984375 353.122070312 m 2
 229.977539062 463.064453125 l 1
 170.353515625 563.322265625 l 1
 168.000976562 744 l 1
 196.592773438 701.400390625 196.688476562 694.026367188 225.328125 647.740234375 c 1
 236.666992188 616.728515625 244.362304688 618.1875 257.411132812 595.45703125 c 2
 290.689453125 537.487304688 l 2
 316.95703125 491.729492188 329.435546875 410.240234375 329.971679688 369.046875 c 0
 330.518554688 327.08203125 323.173828125 300.716796875 293.08984375 353.122070312 c 2
EndSplineSet
Validated: 524321
EndChar

StartChar: a
Encoding: 97 97 66
Width: 600
GlyphClass: 2
Flags: W
LayerCount: 2
Fore
SplineSet
115 467 m 1
 164 518 233 540.999023438 304 540.999023438 c 0
 386 540.999023438 453 510.999023438 488 452.999023438 c 0
 512 411.999023438 514 370.999023438 514 327.999023438 c 2
 514 -0.0009765625 l 1
 435 -0.0009765625 l 1
 435 57.9990234375 l 1
 377 10.9990234375 310 -13.0009765625 245 -13.0009765625 c 0
 134 -13.0009765625 67 58.9990234375 67 136.999023438 c 0
 67 195.999023438 105 256.999023438 188 287.999023438 c 0
 250.962890625 311.147460938 326.786132812 312.004882812 399.591796875 312.004882812 c 0
 405.416992188 312.004882812 411.221679688 312 417 312 c 2
 434 312 l 1
 434 331 l 2
 434 359 434 393 417 422 c 0
 402 447 371 473 308 473 c 0
 259 473 199 459 156 414 c 1
 115 467 l 1
437 247.999023438 m 1
 418 247.999023438 l 2
 398.587890625 247.999023438 377.182617188 248.373046875 355.5 248.373046875 c 0
 315.747070312 248.373046875 275.05859375 247.1171875 244 239.999023438 c 0
 178 223.999023438 151 180.999023438 151 141.999023438 c 0
 151 94.9990234375 192 50.9990234375 262 50.9990234375 c 0
 331 50.9990234375 382 92.9990234375 401 112.999023438 c 0
 437 150.999023438 437 185.999023438 437 212.999023438 c 2
 437 247.999023438 l 1
EndSplineSet
Validated: 524289
EndChar

StartChar: b
Encoding: 98 98 67
Width: 600
GlyphClass: 2
Flags: W
LayerCount: 2
Fore
SplineSet
79 771 m 1
 177 771 l 1
 179 764 173 760 171 758 c 0
 165 754 164 751 164 745 c 2
 164 448 l 1
 198 506 260 542 327 542 c 0
 431 542 540 456 540 271 c 0
 540 79 427 -13 319 -13 c 0
 255 -13 197 18 162 70 c 1
 133 0 l 1
 79 0 l 1
 79 771 l 1
298 470 m 0
 246 470 198 441 178 393 c 0
 166 364 164 330 164 282 c 0
 164 236 164 205 167 177 c 0
 181 76 261 62 297 62 c 0
 349 62 453 92 453 254 c 0
 453 441 348 470 298 470 c 0
EndSplineSet
Validated: 1
EndChar

StartChar: c
Encoding: 99 99 68
Width: 600
GlyphClass: 2
Flags: W
LayerCount: 2
Fore
SplineSet
539 442 m 1
 480.001953125 372.998046875 l 1
 470.827148438 379.921875 477.127929688 390.806640625 472.705078125 399.750976562 c 0
 469.635742188 405.958007812 426.166015625 469.072265625 335.782226562 469.072265625 c 0
 238.505859375 469.072265625 160.970703125 393.766601562 160.970703125 273.125 c 0
 160.970703125 149.418945312 239.6015625 62.9775390625 342.7578125 62.9775390625 c 0
 395.8125 62.9775390625 447.2109375 86.44140625 483.001953125 126.998046875 c 1
 531.001953125 70.998046875 l 1
 480.517578125 16.5791015625 409.688476562 -13.0029296875 335.782226562 -13.0029296875 c 0
 186.048828125 -13.0029296875 75 104.890625 75 264.5078125 c 0
 75 423.37890625 185.4765625 540.02734375 341.051757812 540.02734375 c 0
 426.180664062 540.02734375 497.315429688 503.102539062 539 442 c 1
EndSplineSet
Validated: 524289
EndChar

StartChar: d
Encoding: 100 100 69
Width: 600
GlyphClass: 2
Flags: W
LayerCount: 2
Fore
SplineSet
440 452 m 1
 439.999023438 771.001953125 l 1
 528.999023438 771.001953125 l 1
 529.427734375 763.1171875 525.03125 757.360351562 522.642578125 753.666992188 c 0
 518.513671875 747.284179688 517.989257812 744.041992188 517.998046875 738.001953125 c 2
 518.998046875 49.001953125 l 2
 519.021484375 32.9775390625 519.823242188 16.2109375 523.998046875 0.0009765625 c 1
 440.998046875 0.0009765625 l 1
 436.755859375 12.8486328125 435.998046875 26.423828125 435.998046875 39.0009765625 c 2
 435.998046875 85.0009765625 l 1
 402.751953125 25.5830078125 340.196289062 -11.7421875 272.5 -11.7421875 c 0
 170.169921875 -11.7421875 61.9970703125 73.6689453125 61.9970703125 269.087890625 c 0
 61.9970703125 471.408203125 183.848632812 543.088867188 284.754882812 543.088867188 c 0
 357.904296875 543.088867188 414.55078125 506.411132812 440 452 c 1
288.63671875 475.04296875 m 0
 227.727539062 475.04296875 142.872070312 433.44140625 142.872070312 282.733398438 c 0
 142.872070312 108.365234375 231.93359375 61.8115234375 291.868164062 61.8115234375 c 0
 347.079101562 61.8115234375 401.869140625 98.720703125 422.2578125 162.216796875 c 0
 430.840820312 188.9453125 433.288085938 218.615234375 433.288085938 258.528320312 c 0
 433.288085938 317.622070312 430.951171875 347.169921875 424.389648438 371.7890625 c 0
 403.44140625 450.384765625 335.051757812 475.04296875 288.63671875 475.04296875 c 0
EndSplineSet
Validated: 524289
EndChar

StartChar: e
Encoding: 101 101 70
Width: 600
GlyphClass: 2
Flags: W
LayerCount: 2
Fore
SplineSet
310 542 m 0
 396 542 495 496.000976562 519 354.000976562 c 0
 522.846679688 334.126953125 524.637695312 313.01953125 524.637695312 290.942382812 c 0
 524.637695312 278.583007812 524.077148438 265.919921875 523 253 c 1
 147 253 l 1
 154 94 256 55 327 55 c 0
 380 55 429 76 464 115 c 1
 510 70 l 1
 465 16 396 -12 320 -12 c 0
 177 -12 66 82 66 259 c 0
 66 452 183 542 310 542 c 0
150 317.000976562 m 1
 441.000976562 317.000976562 l 1
 441.721679688 323.202148438 442.073242188 329.345703125 442.073242188 335.409179688 c 0
 442.073242188 413.426757812 383.798828125 478.000976562 304 478.000976562 c 0
 247 478.000976562 166 442.000976562 150 317.000976562 c 1
EndSplineSet
Validated: 524289
EndChar

StartChar: f
Encoding: 102 102 71
Width: 600
GlyphClass: 2
Flags: W
LayerCount: 2
Fore
SplineSet
408 777 m 0
 475 777 532 751 570 705 c 1
 532 628 l 2
 528 628 523 630 523 638 c 0
 522 643 523 646 519 651 c 0
 497 685 455 712 404 712 c 0
 360 712 319 692 297 653 c 0
 278.818359375 621.181640625 277.9921875 584.404296875 277.9921875 549.430664062 c 0
 277.9921875 545.93359375 278 542.455078125 278 539 c 2
 278 498 l 1
 451 498 l 1
 451 432 l 1
 278 432 l 1
 278 0 l 1
 198 0 l 1
 198 432 l 1
 83 432 l 1
 83 498 l 1
 198 498 l 1
 198 550 l 2
 198 597 200 641 227 685 c 0
 264 745 334 777 408 777 c 0
EndSplineSet
Validated: 524289
EndChar

StartChar: g
Encoding: 103 103 72
Width: 600
GlyphClass: 2
Flags: W
LayerCount: 2
Fore
SplineSet
156 364 m 0
 156 300 208 248 272 248 c 0
 337 248 389 300 389 364 c 0
 389 428 337 481 273 481 c 0
 208 481 156 428 156 364 c 0
278 547 m 0
 326 547 370 529 403 496 c 1
 440.05859375 526.732421875 486.921875 543.575195312 534.727539062 543.575195312 c 0
 539.811523438 543.575195312 544.905273438 543.384765625 549.999023438 543 c 1
 559.999023438 475 l 1
 549.999023438 477 539.999023438 478 528.999023438 478 c 0
 496.999023438 478 464.999023438 469 436.999023438 452 c 1
 454.999023438 426 463.999023438 394 463.999023438 362 c 0
 463.999023438 265 377.999023438 181 272.999023438 181 c 0
 249.999023438 181 227.999023438 185 205.999023438 193 c 1
 200.999023438 189 167.999023438 162 167.999023438 134 c 0
 167.999023438 117 179.999023438 105 199.999023438 99 c 0
 211.999023438 96 235.999023438 92 275.999023438 92 c 0
 300.614257812 92 325.903320312 93.3466796875 350.967773438 93.3466796875 c 0
 386.998046875 93.3466796875 422.564453125 90.564453125 455 77 c 0
 511 55 537 8 537 -38 c 0
 537 -109 473 -199 294 -199 c 0
 108 -199 54 -132 54 -74 c 0
 54 -32 84 7 141 43 c 1
 107 61 98 92 98 114 c 0
 98 148 120 184 158 216 c 1
 109 248 80 301 80 359 c 0
 80 463 172 547 278 547 c 0
197 28 m 1
 167 12 131.000976562 -16.0009765625 131.000976562 -54.0009765625 c 0
 131.000976562 -73.0009765625 140.000976562 -102.000976562 183.000976562 -119.000976562 c 0
 223.000976562 -135.000976562 268.000976562 -136.000976562 292.000976562 -136.000976562 c 0
 328.000976562 -136.000976562 373.000976562 -134.000976562 411.000976562 -113.000976562 c 0
 448.000976562 -93.0009765625 461.000976562 -66.0009765625 461.000976562 -43.0009765625 c 0
 461.000976562 -19.0009765625 447.000976562 10.9990234375 398.000976562 18.9990234375 c 0
 382.500976562 20.9990234375 364.250976562 21.2490234375 345.000976562 21.2490234375 c 0
 338.583984375 21.2490234375 332.056640625 21.2216796875 325.481445312 21.2216796875 c 0
 312.333007812 21.2216796875 299 21.3330078125 286 22 c 0
 245 23 217 26 197 28 c 1
EndSplineSet
Validated: 524289
EndChar

StartChar: h
Encoding: 104 104 73
Width: 600
GlyphClass: 2
Flags: W
LayerCount: 2
Fore
SplineSet
91 0 m 1
 91 770 l 1
 187 770 l 2
 187.37890625 768.885742188 187.572265625 767.711914062 187.572265625 766.526367188 c 0
 187.572265625 760.484375 182.866210938 756.916015625 180.206054688 754.110351562 c 0
 176.270507812 749.956054688 176.000976562 746.930664062 176.000976562 743 c 2
 176.000976562 436 l 1
 214.872070312 495.001953125 280.12109375 542.002929688 351.958007812 542.002929688 c 0
 412.282226562 542.002929688 466.544921875 508.12890625 492.900390625 448.568359375 c 0
 511.73046875 406.014648438 512.001953125 362.334960938 512.001953125 321.000976562 c 2
 512.001953125 0.0009765625 l 1
 430.001953125 0.0009765625 l 1
 430.001953125 319.000976562 l 2
 430.001953125 356.393554688 429.763671875 401.823242188 401.111328125 436.061523438 c 0
 382.098632812 458.78125 355.909179688 469.580078125 329.341796875 469.580078125 c 0
 273.362304688 469.580078125 222.490234375 422.787109375 202.30859375 395.893554688 c 0
 180.287109375 366.55078125 176 340.651367188 176 305 c 2
 176 0 l 1
 91 0 l 1
EndSplineSet
Validated: 524289
EndChar

StartChar: i
Encoding: 105 105 74
Width: 600
GlyphClass: 2
Flags: W
LayerCount: 2
Fore
SplineSet
133 530 m 1
 345 530 l 1
 345 67 l 1
 469 67 l 1
 469 0 l 1
 126 0 l 1
 126 67 l 1
 261 67 l 1
 261 462 l 1
 133 462 l 1
 133 530 l 1
305.002929688 760 m 0
 338.170898438 760 365.01953125 733.279296875 365.01953125 700.4921875 c 0
 365.01953125 667.7265625 338.182617188 640.991210938 304.990234375 640.991210938 c 0
 271.818359375 640.991210938 244.981445312 667.71484375 244.981445312 700.485351562 c 0
 244.981445312 733.263671875 271.822265625 760 305.002929688 760 c 0
EndSplineSet
Validated: 524289
EndChar

StartChar: j
Encoding: 106 106 75
Width: 600
GlyphClass: 2
Flags: W
LayerCount: 2
Fore
SplineSet
156 530 m 1
 437 529.999023438 l 1
 437 36.9990234375 l 2
 437 -8.685546875 435.772460938 -52.10546875 413.163085938 -96.3818359375 c 0
 377.27734375 -166.657226562 303.23828125 -202.181640625 227.69921875 -202.181640625 c 0
 162.017578125 -202.181640625 103.90234375 -175.02734375 66 -128 c 1
 120 -56 l 1
 127.204101562 -61.947265625 125.358398438 -69.4814453125 130.110351562 -77.248046875 c 0
 134.377929688 -84.2216796875 169.008789062 -130.015625 233.015625 -130.015625 c 0
 277.791015625 -130.015625 319.505859375 -106.297851562 339.458984375 -63.2392578125 c 0
 352.497070312 -35.1015625 353 -7.275390625 353 21 c 2
 353 461 l 1
 156 461 l 1
 156 530 l 1
396.002929688 759.999023438 m 0
 429.170898438 759.999023438 456.01953125 733.279296875 456.01953125 700.4921875 c 0
 456.01953125 667.7265625 429.182617188 640.991210938 395.990234375 640.991210938 c 0
 362.818359375 640.991210938 335.981445312 667.71484375 335.981445312 700.484375 c 0
 335.981445312 733.262695312 362.822265625 759.999023438 396.002929688 759.999023438 c 0
EndSplineSet
Validated: 524289
EndChar

StartChar: k
Encoding: 107 107 76
Width: 600
GlyphClass: 2
Flags: W
LayerCount: 2
Fore
SplineSet
87 770 m 1
 182 770 l 1
 183.286132812 762.17578125 178.153320312 756.8515625 175.466796875 753.358398438 c 0
 171.419921875 748.09375 171.000976562 745.014648438 171.000976562 740 c 2
 171.000976562 286 l 1
 436.000976562 532 l 1
 456.53125 526.94921875 477.705078125 526 498.000976562 526 c 2
 528.000976562 526 l 1
 305.000976562 316 l 1
 565.000976562 -1 l 2
 562.299804688 -0.982421875 559.59765625 -0.9736328125 556.896484375 -0.9736328125 c 0
 501.401367188 -0.9736328125 457 -5 457 -5 c 1
 241 265 l 1
 171 200 l 1
 171 -1 l 1
 87 -1 l 1
 87 770 l 1
EndSplineSet
Validated: 524289
EndChar

StartChar: l
Encoding: 108 108 77
Width: 600
GlyphClass: 2
Flags: W
LayerCount: 2
Fore
SplineSet
108 770 m 1
 342 770 l 1
 342 67 l 1
 498 67 l 1
 498 0 l 1
 101 0 l 1
 101 67 l 1
 258 67 l 1
 258 703 l 1
 108 703 l 1
 108 770 l 1
EndSplineSet
Validated: 1
EndChar

StartChar: m
Encoding: 109 109 78
Width: 600
GlyphClass: 2
Flags: W
LayerCount: 2
Fore
SplineSet
54 0 m 1
 54 528.999023438 l 1
 131 528.999023438 l 1
 130 476.999023438 l 1
 154 513.999023438 195 541.999023438 238 541.999023438 c 0
 286 541.999023438 324 508.999023438 332 464.999023438 c 1
 353 511.999023438 400 541.999023438 451 541.999023438 c 0
 480 541.999023438 513 530.999023438 533 499.999023438 c 0
 553.571289062 469.999023438 555.041015625 432.65234375 555.041015625 394.885742188 c 0
 555.041015625 388.591796875 555 382.286132812 555 376 c 2
 555 -1 l 1
 476 -1 l 1
 476 375 l 2
 476 384 476.421875 393.84375 476.421875 403.845703125 c 0
 476.421875 420.515625 475.25 437.625 469 452 c 0
 460 471 444 481 427 481 c 0
 395 481 374 448 365 433 c 0
 346 401 343 378 343 350 c 2
 343 0 l 1
 265 0 l 1
 265 368 l 2
 265 376 265.263671875 384.397460938 265.263671875 392.950195312 c 0
 265.263671875 407.916992188 264.455078125 423.364257812 260 438 c 0
 251 467 230 478 211 478 c 0
 190 478 166 464 147 429 c 0
 132 401 130 378 130 353 c 2
 130 0 l 1
 54 0 l 1
EndSplineSet
Validated: 524289
EndChar

StartChar: n
Encoding: 110 110 79
Width: 600
GlyphClass: 2
Flags: W
LayerCount: 2
Fore
SplineSet
89 0 m 1
 89.0009765625 529 l 1
 174.000976562 529 l 1
 174.000976562 436 l 1
 212.872070312 495.001953125 278.12109375 542.002929688 349.958007812 542.002929688 c 0
 410.282226562 542.002929688 464.544921875 508.12890625 490.900390625 448.568359375 c 0
 509.73046875 406.014648438 510.001953125 362.334960938 510.001953125 321.000976562 c 2
 510.001953125 0.0009765625 l 1
 428.001953125 0.0009765625 l 1
 428.001953125 319.000976562 l 2
 428.001953125 356.393554688 427.763671875 401.823242188 399.111328125 436.061523438 c 0
 380.098632812 458.78125 353.909179688 469.580078125 327.341796875 469.580078125 c 0
 271.362304688 469.580078125 220.490234375 422.787109375 200.30859375 395.893554688 c 0
 178.287109375 366.55078125 174 340.651367188 174 305 c 2
 174 0 l 1
 89 0 l 1
EndSplineSet
Validated: 524289
EndChar

StartChar: o
Encoding: 111 111 80
Width: 600
GlyphClass: 2
Flags: W
LayerCount: 2
Fore
SplineSet
543.11328125 262.303710938 m 0
 543.11328125 86.8037109375 430.327148438 -14 304.969726562 -14 c 0
 171.548828125 -14 56.8681640625 99.5322265625 56.8681640625 260.578125 c 0
 56.8681640625 424.139648438 172.530273438 541.004882812 307.440429688 541.004882812 c 0
 427.750976562 541.004882812 543.11328125 445.083984375 543.11328125 262.303710938 c 0
301.759765625 470.103515625 m 0
 220.796875 470.103515625 144.987304688 397.57421875 144.987304688 267.805664062 c 0
 144.987304688 137.224609375 221.250976562 57.9921875 305.616210938 57.9921875 c 0
 382.885742188 57.9921875 459.168945312 125.599609375 459.168945312 258.84375 c 0
 459.168945312 404.202148438 378.129882812 470.103515625 301.759765625 470.103515625 c 0
EndSplineSet
Validated: 524289
EndChar

StartChar: p
Encoding: 112 112 81
Width: 600
GlyphClass: 2
Flags: W
LayerCount: 2
Fore
SplineSet
79 529 m 1
 164 529 l 1
 164 448 l 1
 200 506 263 541 331 541 c 0
 435 541 546 458 546 271 c 0
 546 77 432 -14 324 -14 c 0
 260 -14 200 18 165 70 c 1
 165 -193 l 1
 80 -193 l 1
 79 529 l 1
301 470 m 0
 247 470 198 441 178 393 c 0
 166 366 164 334 164 289 c 0
 164 212 164 169 179 133 c 0
 200 85 250 60 300 60 c 0
 350 60 459 87 459 253 c 0
 459 446 347 470 301 470 c 0
EndSplineSet
Validated: 1
EndChar

StartChar: q
Encoding: 113 113 82
Width: 600
GlyphClass: 2
Flags: W
LayerCount: 2
Fore
SplineSet
443 452 m 1
 443 529 l 1
 522 529 l 1
 522 -193 l 1
 439 -193 l 1
 439 85 l 1
 406 26 344 -12 277 -12 c 0
 160 -12 59 98 59 270 c 0
 59 450 173 543 289 543 c 0
 406 543 443 452 443 452 c 1
292 475 m 0
 221 475 143 420 143 282 c 0
 143 132 220 62 295 62 c 0
 350 62 405 99 425 162 c 0
 434 189 436 219 436 258 c 0
 436 322 434 356 423 385 c 0
 400 450 339 475 292 475 c 0
EndSplineSet
Validated: 1
EndChar

StartChar: r
Encoding: 114 114 83
Width: 600
GlyphClass: 2
Flags: W
LayerCount: 2
Fore
SplineSet
125 529 m 1
 212 529 l 1
 209 427 l 1
 243.670898438 502.68359375 322.16796875 541.802734375 399.501953125 541.802734375 c 0
 458.958984375 541.802734375 507.697265625 518.11328125 541 483.999023438 c 1
 502 403.999023438 l 1
 493.106445312 412.50390625 489.30859375 421.666992188 482.352539062 430.552734375 c 0
 467.489257812 449.541015625 439.485351562 470.204101562 394.944335938 470.204101562 c 0
 357.514648438 470.204101562 294.325195312 457.032226562 246.22265625 380.98046875 c 0
 210.237304688 324.087890625 209 288.944335938 209 257 c 2
 209 -1 l 1
 125 -1 l 1
 125 529 l 1
EndSplineSet
Validated: 524289
EndChar

StartChar: s
Encoding: 115 115 84
Width: 600
GlyphClass: 2
Flags: W
LayerCount: 2
Fore
SplineSet
511 459 m 1
 461.998046875 385.998046875 l 2
 459.952148438 386.485351562 455.918945312 388.385742188 455.96484375 395.31640625 c 0
 455.9921875 399.387695312 456.751953125 402.168945312 453.48828125 406.381835938 c 0
 433.33984375 432.384765625 382.002929688 479.073242188 306.537109375 479.073242188 c 0
 246.685546875 479.073242188 194.999023438 449.384765625 194.999023438 406.78515625 c 0
 194.999023438 388.999023438 204.201171875 363.326171875 247.4453125 342.427734375 c 0
 296.92578125 318.515625 382.174804688 306.561523438 441.99609375 272.981445312 c 0
 504.634765625 237.8203125 519.69921875 189.923828125 519.69921875 153.283203125 c 0
 519.69921875 73.376953125 444.137695312 -12.001953125 299.462890625 -12.001953125 c 0
 219.049804688 -12.001953125 138.142578125 14.2158203125 76.0009765625 71.998046875 c 1
 124.000976562 154.998046875 l 1
 129.709960938 152.329101562 129.204101562 145.692382812 129.130859375 144.102539062 c 0
 128.91796875 139.46875 128.40234375 136.20703125 132.350585938 131.71875 c 0
 149.100585938 112.6796875 207.223632812 57.9990234375 297.965820312 57.9990234375 c 0
 373.59375 57.9990234375 434.069335938 92.1669921875 434.069335938 141.756835938 c 0
 434.069335938 160.88671875 424.919921875 188.764648438 381.24609375 209.208007812 c 0
 342.1953125 227.486328125 283.741210938 241.548828125 238.96875 257.732421875 c 0
 210.234375 268.119140625 109.997070312 301.798828125 109.997070312 394.23046875 c 0
 109.997070312 473.299804688 190.547851562 542.00390625 313.49609375 542.00390625 c 0
 391.799804688 542.00390625 462.083007812 512.905273438 511 459 c 1
EndSplineSet
Validated: 524289
EndChar

StartChar: t
Encoding: 116 116 85
Width: 600
GlyphClass: 2
Flags: W
LayerCount: 2
Fore
SplineSet
228 671 m 1
 319 686 l 2
 320 684 320 682 320 680 c 0
 320 671 314 665 312 655 c 0
 307 625 299 530 299 530 c 1
 472 530 l 1
 472 461 l 1
 298 461 l 1
 291 392 288 323 288 254 c 0
 288 177 291 157 291 152 c 0
 300 89 341 67 380 67 c 0
 413 67 454 82 499 115 c 1
 525 49 l 1
 480 16 419 -10 356 -10 c 0
 302 -10 260 11 235 46 c 0
 204 90 204 143 204 190 c 0
 204 280 208 370 215 461 c 1
 91 461 l 1
 92 529 l 1
 218 529 l 1
 228 671 l 1
EndSplineSet
Validated: 1
EndChar

StartChar: u
Encoding: 117 117 86
Width: 600
GlyphClass: 2
Flags: W
LayerCount: 2
Fore
SplineSet
83 529 m 1
 167 529 l 1
 167 234 l 2
 167 198 167 157 186 120 c 0
 207 78 245 55 287 55 c 0
 338 55 385 89 409 133 c 0
 427 166 430 197 430 238 c 2
 430 529 l 1
 514 529 l 1
 514 48 l 2
 514 32 515 16 520 0 c 1
 432 0 l 1
 430 14 430 27 430 41 c 2
 431 81 l 1
 397 23 334 -13 268 -13 c 0
 199 -13 134 25 103 95 c 0
 82 141 82 188 82 234 c 2
 83 529 l 1
EndSplineSet
Validated: 1
EndChar

StartChar: v
Encoding: 118 118 87
Width: 600
GlyphClass: 2
Flags: W
LayerCount: 2
Fore
SplineSet
56 530 m 1
 156 530 l 1
 158 520.530273438 152.294921875 514.36328125 152.294921875 507.31640625 c 0
 152.294921875 504.529296875 153.032226562 502.450195312 154 500 c 2
 307 113 l 1
 392 310 l 2
 421.966796875 379.454101562 449.990234375 452.86328125 464 530 c 1
 539 530 l 1
 521.385742188 449.3125 491.663085938 372.126953125 460 298 c 2
 331 -4 l 1
 266 -4 l 1
 56 530 l 1
EndSplineSet
Validated: 524289
EndChar

StartChar: w
Encoding: 119 119 88
Width: 600
GlyphClass: 2
Flags: W
LayerCount: 2
Fore
SplineSet
28 530 m 1
 112.999023438 530 l 1
 115.999023438 521 112.999023438 513 110.999023438 507 c 0
 107.999023438 498 107.999023438 494 109.999023438 486 c 2
 186.999023438 104 l 1
 277.999023438 480 l 1
 328.999023438 480 l 1
 440.999023438 105 l 1
 481.834960938 372.2109375 490.360351562 448.705078125 490.360351562 507.287109375 c 0
 490.360351562 514.694335938 490.224609375 521.81640625 490 529 c 1
 567 529 l 1
 544 351 515 175 479 -1 c 1
 401 -1 l 1
 303 342 l 1
 210 -1 l 1
 135 -1 l 1
 28 530 l 1
EndSplineSet
Validated: 524289
EndChar

StartChar: x
Encoding: 120 120 89
Width: 600
GlyphClass: 2
Flags: W
LayerCount: 2
Fore
SplineSet
430 530 m 1
 515 530 l 1
 343.447265625 272.196289062 l 1
 538 0 l 1
 443 -0 l 1
 297.059570312 205.834960938 l 1
 159 0 l 1
 65 -0 l 1
 250.856445312 269.048828125 l 1
 68 530 l 1
 159 530 l 1
 297.737304688 333.91796875 l 1
 430 530 l 1
EndSplineSet
Validated: 524289
EndChar

StartChar: y
Encoding: 121 121 90
Width: 600
GlyphClass: 2
Flags: W
LayerCount: 2
Fore
SplineSet
63 529 m 1
 167.000976562 528.999023438 l 1
 167.65234375 518.578125 161.833984375 512.75390625 161.833984375 504.224609375 c 0
 161.833984375 500.8515625 162.6953125 498.28515625 164.000976562 494.998046875 c 2
 319.000976562 104.998046875 l 1
 420.000976562 388.998046875 l 2
 436.209960938 434.576171875 451.255859375 481.530273438 460.000976562 529.998046875 c 1
 547.000976562 529.998046875 l 1
 531.434570312 478.241210938 513.03515625 427.41015625 494 376.998046875 c 2
 329 -60.001953125 l 2
 317.684570312 -89.96875 306.504882812 -117.888671875 283.380859375 -143.90625 c 0
 248.106445312 -183.594726562 198.5078125 -201.181640625 150.696289062 -201.181640625 c 0
 107.171875 -201.181640625 66.548828125 -186.252929688 36 -157.001953125 c 1
 79 -82.001953125 l 1
 85.8369140625 -87.3583984375 85.2470703125 -95.0849609375 88.240234375 -100.8203125 c 0
 91.1865234375 -106.465820312 111.208984375 -132.772460938 150.446289062 -132.772460938 c 0
 175.240234375 -132.772460938 202.435546875 -121.950195312 224.473632812 -98.482421875 c 0
 241.247070312 -80.62109375 251.822265625 -58.0556640625 261 -37 c 2
 278 2 l 1
 63 529 l 1
EndSplineSet
Validated: 524289
EndChar

StartChar: z
Encoding: 122 122 91
Width: 600
GlyphClass: 2
Flags: W
LayerCount: 2
Fore
SplineSet
92 530 m 1
 503.999023438 530 l 1
 503.999023438 473 l 1
 180.999023438 71 l 1
 495.999023438 71 l 2
 510.399414062 71 515.889648438 78.2900390625 527.049804688 78.2900390625 c 0
 528.290039062 78.2900390625 529.599609375 78.2001953125 531 78 c 2
 531 -1 l 1
 68 -1 l 1
 68 56 l 1
 396 457 l 1
 92 457 l 1
 92 530 l 1
EndSplineSet
Validated: 524289
EndChar

StartChar: braceleft
Encoding: 123 123 92
Width: 600
GlyphClass: 2
Flags: W
LayerCount: 2
Fore
SplineSet
71 329 m 1
 94 329 l 2
 115 329 146 329 172 355 c 0
 199 384 202 425 202 453 c 0
 202 481 199 508 199 536 c 0
 199 580 205 645 256 692 c 0
 303 735 366 738 422 738 c 2
 448 738 l 1
 483 738 l 1
 483 672 l 1
 443 672 l 2
 426 672 411 673 397 673 c 0
 369 673 347 670 326 657 c 0
 281 629 279 573 279 549 c 0
 279 522 283 496 283 468 c 0
 283 441 280 406 264 375 c 0
 247 340 218 312 182 297 c 1
 226 282 280 238 280 117 c 0
 280 81 276 50 276 20 c 0
 276 -20 282 -71 324 -100 c 0
 350 -118 380 -119 417 -119 c 2
 439 -119 l 1
 482 -119 l 1
 482 -184 l 1
 440 -184 l 1
 404 -184 l 2
 348 -184 300 -181 259 -149 c 0
 198 -102 194 -23 194 19 c 0
 194 64 199 99 199 135 c 0
 199 185 191 219 168 241 c 0
 144 264 115 264 95 264 c 2
 71 264 l 1
 71 329 l 1
EndSplineSet
Validated: 1
EndChar

StartChar: bar
Encoding: 124 124 93
Width: 600
GlyphClass: 2
Flags: W
LayerCount: 2
Fore
SplineSet
261 756 m 1
 339 756 l 1
 339 -175 l 1
 261 -175 l 1
 261 756 l 1
EndSplineSet
Validated: 1
EndChar

StartChar: braceright
Encoding: 125 125 94
Width: 600
GlyphClass: 2
Flags: W
LayerCount: 2
Fore
SplineSet
529 329 m 1
 529 264 l 1
 505 264 l 2
 485 264 456 264 432 241 c 0
 409 219 401 185 401 135 c 0
 401 99 406 64 406 19 c 0
 406 -23 402 -102 341 -149 c 0
 300 -181 252 -184 196 -184 c 2
 160 -184 l 1
 118 -184 l 1
 118 -119 l 1
 161 -119 l 1
 183 -119 l 2
 220 -119 250 -118 276 -100 c 0
 318 -71 324 -20 324 20 c 0
 324 50 320 81 320 117 c 0
 320 238 374 282 418 297 c 1
 382 312 353 340 336 375 c 0
 320 406 317 441 317 468 c 0
 317 496 321 522 321 549 c 0
 321 573 319 629 274 657 c 0
 253 670 231 673 203 673 c 0
 189 673 174 672 157 672 c 2
 117 672 l 1
 117 738 l 1
 152 738 l 1
 178 738 l 2
 234 738 297 735 344 692 c 0
 395 645 401 580 401 536 c 0
 401 508 398 481 398 453 c 0
 398 425 401 384 428 355 c 0
 454 329 485 329 506 329 c 2
 529 329 l 1
EndSplineSet
Validated: 1
EndChar

StartChar: asciitilde
Encoding: 126 126 95
Width: 600
GlyphClass: 2
Flags: W
LayerCount: 2
Fore
SplineSet
116 396 m 1
 58 434.000976562 l 1
 92.1982421875 492.03515625 151.499023438 538.051757812 217.153320312 538.051757812 c 0
 312.78125 538.051757812 343.146484375 451 409.264648438 451 c 0
 447.270507812 451 474.649414062 480.654296875 508 526.000976562 c 1
 561 482.000976562 l 1
 530.810546875 436.286132812 473.380859375 375.377929688 400.536132812 375.377929688 c 0
 306.6171875 375.377929688 282.907226562 467.595703125 212.174804688 467.595703125 c 0
 179.422851562 467.595703125 145.323242188 443.982421875 116 396 c 1
EndSplineSet
Validated: 524289
EndChar

StartChar: exclamdown
Encoding: 161 161 97
Width: 600
GlyphClass: 2
Flags: W
LayerCount: 2
Fore
SplineSet
218.956054688 705.494140625 m 0
 218.956054688 743.28515625 249.662109375 774.001953125 287.478515625 774.001953125 c 0
 325.286132812 774.001953125 356.00390625 743.298828125 356.00390625 705.491210938 c 0
 356.00390625 667.69921875 325.297851562 636.983398438 287.48046875 636.983398438 c 0
 249.673828125 636.983398438 218.956054688 667.6875 218.956054688 705.494140625 c 0
285.685546875 -13.015625 m 0
 263.938476562 -13.015625 239.5546875 1.578125 230.612304688 36.6650390625 c 0
 228.8671875 43.509765625 226.198242188 56.49609375 226.198242188 83.7353515625 c 0
 226.198242188 128.006835938 234.063476562 171.869140625 236.958007812 215.985351562 c 2
 257.958007812 535.985351562 l 1
 315.958007812 535.985351562 l 1
 332.958007812 215.985351562 l 2
 337.002929688 139.84765625 344.392578125 111.7109375 344.392578125 74.3154296875 c 0
 344.392578125 52.607421875 341.814453125 36.97265625 336.49609375 24.1669921875 c 0
 326.155273438 -0.736328125 305.755859375 -13.015625 285.685546875 -13.015625 c 0
EndSplineSet
Validated: 524289
EndChar

StartChar: cent
Encoding: 162 162 98
Width: 600
GlyphClass: 2
Flags: W
LayerCount: 2
Fore
SplineSet
340 723 m 1
 417.998046875 714.999023438 l 1
 418.7734375 707.497070312 415.209960938 701.296875 413.82421875 698.826171875 c 0
 410.8515625 693.525390625 409.045898438 690.93359375 407.999023438 683 c 2
 395.456054688 587.822265625 l 1
 458.44140625 575.2421875 504.75390625 541.293945312 533 498 c 1
 482 432 l 1
 476.607421875 435.7578125 476.706054688 442.015625 476.706054688 443.548828125 c 0
 476.706054688 450.098632812 478.70703125 455.065429688 472.749023438 462.133789062 c 0
 457.795898438 479.87109375 428.657226562 504.643554688 386.192382812 517.517578125 c 1
 332.751953125 112.000976562 l 1
 333.46875 112 l 2
 389.461914062 112 444.705078125 135.58984375 485 177.000976562 c 1
 527 121.000976562 l 1
 477.291015625 66.42578125 406.7109375 37.990234375 331.603515625 37.990234375 c 0
 328.724609375 37.990234375 325.861328125 38.0302734375 323.013671875 38.109375 c 2
 306 -90.9990234375 l 1
 239 -82.9990234375 l 1
 255.421875 48.0546875 l 1
 141.432617188 79.5751953125 66 182.291015625 66 315.8359375 c 0
 66 471.21484375 168.407226562 585.20703125 323.672851562 592.708984375 c 1
 340 723 l 1
265.041992188 124.834960938 m 1
 315.271484375 525.68359375 l 1
 219.935546875 519.9921875 147.947265625 447.75390625 147.947265625 326.54296875 c 0
 147.947265625 225.645507812 194.969726562 152.958984375 265.041992188 124.834960938 c 1
EndSplineSet
Validated: 524289
EndChar

StartChar: sterling
Encoding: 163 163 99
Width: 600
GlyphClass: 2
Flags: W
LayerCount: 2
Fore
SplineSet
494 663 m 1
 443 599.002929688 l 1
 433.54296875 605.936523438 434.26953125 615.248046875 427.51171875 622.674804688 c 0
 422.592773438 628.080078125 390.005859375 656.129882812 341.34765625 656.129882812 c 0
 279.172851562 656.129882812 217.78125 609.40234375 217.78125 512.95703125 c 0
 217.78125 488.176757812 221.729492188 463.31640625 227.168945312 438.000976562 c 1
 342.000976562 438.000976562 l 1
 342.000976562 372.000976562 l 1
 242.811523438 372.000976562 l 1
 251.234375 336.143554688 258.537109375 298.852539062 258.537109375 259.182617188 c 0
 258.537109375 201.958007812 243.517578125 148.500976562 216.000976562 104.000976562 c 1
 226.250976562 105.791992188 236.64453125 106.67578125 247.063476562 106.67578125 c 0
 324.103515625 106.67578125 372.006835938 58.9169921875 438.359375 58.9169921875 c 0
 470.325195312 58.9169921875 500.467773438 70.85546875 524 91.0009765625 c 1
 555 31.0009765625 l 1
 528.90625 10.25390625 484.713867188 -17.1630859375 434.140625 -17.1630859375 c 0
 360.258789062 -17.1630859375 311.802734375 34.666015625 227.672851562 34.666015625 c 0
 203.994140625 34.666015625 159.283203125 30.265625 85 -9 c 1
 55 57 l 1
 108.912109375 81.9052734375 122.94921875 87.453125 141.287109375 115.98046875 c 0
 167.052734375 156.0625 181.213867188 204.698242188 181.213867188 256.8515625 c 0
 181.213867188 296.572265625 172.952148438 334.482421875 163.8203125 372 c 1
 88 372 l 1
 88 438 l 1
 148.325195312 438 l 1
 143.399414062 462.328125 139.930664062 486.841796875 139.930664062 511.927734375 c 0
 139.930664062 641.883789062 235.856445312 722.005859375 343.37109375 722.005859375 c 0
 398.584960938 722.005859375 452.41796875 701.137695312 494 663 c 1
EndSplineSet
Validated: 524289
EndChar

StartChar: currency
Encoding: 164 164 100
Width: 600
GlyphClass: 2
Flags: W
LayerCount: 2
Fore
SplineSet
301 516 m 0
 237 516 184 464 184 400 c 0
 184 336 237 284 301 284 c 0
 365 284 417 336 417 400 c 0
 417 464 365 516 301 516 c 0
89 570 m 1
 130 611 l 1
 195 546 l 1
 225 567 262 580 301 580 c 0
 339 580 375 568 405 547 c 1
 469 611 l 1
 510 570 l 1
 446 506 l 1
 468 476 481 439 481 400 c 0
 481 361 468 324 447 295 c 1
 510 231 l 1
 469 190 l 1
 405 254 l 1
 376 232 340 220 301 220 c 0
 261 220 225 233 195 255 c 1
 130 190 l 1
 89 231 l 1
 154 296 l 1
 133 325 121 361 121 400 c 0
 121 439 133 475 154 504 c 1
 89 570 l 1
EndSplineSet
Validated: 1
EndChar

StartChar: yen
Encoding: 165 165 101
Width: 600
GlyphClass: 2
Flags: W
LayerCount: 2
Fore
SplineSet
52 723 m 1
 142 723 l 1
 310 421 l 1
 464 722 l 1
 550 722 l 1
 348 342 l 1
 348 318 l 1
 504 318 l 1
 504 252 l 1
 348 252 l 1
 348 179 l 1
 504 179 l 1
 504 114 l 1
 348 114 l 1
 348 0 l 1
 269 0 l 1
 269 114 l 1
 107 114 l 1
 107 179 l 1
 269 179 l 1
 269 252 l 1
 107 252 l 1
 107 318 l 1
 269 318 l 1
 269 342 l 1
 52 723 l 1
EndSplineSet
Validated: 1
EndChar

StartChar: brokenbar
Encoding: 166 166 102
Width: 600
GlyphClass: 2
Flags: W
LayerCount: 2
Fore
SplineSet
261 756 m 1
 339 756 l 1
 339 342 l 1
 261 342 l 1
 261 756 l 1
339 -175 m 1
 261 -175 l 1
 261 227 l 1
 339 227 l 1
 339 -175 l 1
EndSplineSet
Validated: 1
EndChar

StartChar: section
Encoding: 167 167 103
Width: 600
GlyphClass: 2
Flags: W
LayerCount: 2
Fore
SplineSet
488 676 m 1
 423.000976562 617.998046875 l 1
 414.502929688 624.418945312 416.79296875 633.706054688 413.888671875 641.760742188 c 0
 404.459960938 667.915039062 369.873046875 709.913085938 308.353515625 709.913085938 c 0
 247.311523438 709.913085938 202.995117188 669.157226562 202.995117188 620.919921875 c 0
 202.995117188 597.4296875 213.7265625 561.521484375 264.349609375 534.75 c 0
 297.608398438 517.161132812 341.068359375 507.39453125 387.73828125 485.109375 c 0
 468.615234375 446.490234375 494.176757812 395.662109375 494.176757812 353.918945312 c 0
 494.176757812 305.477539062 458.969726562 262.525390625 408.540039062 241.875 c 1
 459.314453125 207.379882812 483.176757812 156.538085938 483.176757812 107.272460938 c 0
 483.176757812 16.9873046875 402.923828125 -63.0234375 285.775390625 -63.0234375 c 0
 208.625 -63.0234375 133.5 -27.5068359375 85.0009765625 35.998046875 c 1
 146.000976562 106.998046875 l 1
 154.995117188 103.318359375 153.115234375 93.220703125 155.625 86.7060546875 c 0
 159.140625 77.5810546875 198.684570312 13.7587890625 286.0234375 13.7587890625 c 0
 356.942382812 13.7587890625 400.23046875 57.0380859375 400.23046875 105.025390625 c 0
 400.23046875 132.110351562 386.388671875 163.981445312 346.982421875 187.298828125 c 0
 298.94921875 215.720703125 233.162109375 219.874023438 175.365234375 254.02734375 c 0
 123.913085938 284.431640625 101.678710938 326.186523438 101.678710938 366.086914062 c 0
 101.678710938 418.4296875 140.913085938 463.115234375 196.205078125 482.822265625 c 1
 140.944335938 517.145507812 118.900390625 567.7109375 118.900390625 613.6328125 c 0
 118.900390625 701.981445312 199.381835938 778.26953125 307.936523438 778.26953125 c 0
 384.595703125 778.26953125 452.27734375 738.83203125 488 676 c 1
238.745117188 461.793945312 m 1
 207.924804688 451.721679688 185.9609375 423.139648438 185.9609375 389.456054688 c 0
 185.9609375 363.600585938 199.373046875 327.896484375 248.470703125 303.874023438 c 0
 283.420898438 286.774414062 323.541015625 281.477539062 365.240234375 264.584960938 c 1
 390.577148438 277.357421875 407.454101562 303.5859375 407.454101562 333.71875 c 0
 407.454101562 360.13671875 394.181640625 398.1640625 340.303710938 424.751953125 c 0
 310.541015625 439.438476562 274.629882812 447.454101562 238.745117188 461.793945312 c 1
EndSplineSet
Validated: 524289
EndChar

StartChar: dieresis
Encoding: 168 168 104
Width: 600
GlyphClass: 2
Flags: W
LayerCount: 2
Fore
SplineSet
257.018554688 711.498046875 m 0
 257.018554688 679.2109375 230.7890625 652.981445312 198.501953125 652.981445312 c 0
 166.211914062 652.981445312 139.98046875 679.208984375 139.98046875 711.499023438 c 0
 139.98046875 743.7890625 166.208984375 770.01953125 198.499023438 770.01953125 c 0
 230.7890625 770.01953125 257.018554688 743.7890625 257.018554688 711.498046875 c 0
463.002929688 711.51171875 m 0
 463.002929688 679.16796875 436.958007812 652.991210938 405.006835938 652.991210938 c 0
 373.0625 652.991210938 346.999023438 679.155273438 346.999023438 711.514648438 c 0
 346.999023438 743.862304688 373.052734375 770.03515625 405.008789062 770.03515625 c 0
 436.936523438 770.03515625 463.002929688 743.876953125 463.002929688 711.51171875 c 0
EndSplineSet
Validated: 524289
EndChar

StartChar: copyright
Encoding: 169 169 105
Width: 600
GlyphClass: 2
Flags: W
LayerCount: 2
Fore
SplineSet
313.620117188 491.090820312 m 0
 386.543945312 491.090820312 443.025390625 445.505859375 458.000976562 383.999023438 c 1
 398.000976562 360.999023438 l 1
 391.517578125 368.85546875 395.373046875 377.022460938 393.506835938 384.630859375 c 0
 391.42578125 393.116210938 373.381835938 433.15234375 316.116210938 433.15234375 c 0
 261.422851562 433.15234375 207.998046875 399.046875 207.998046875 326.991210938 c 0
 207.998046875 256.911132812 256.400390625 201.947265625 317.235351562 201.947265625 c 0
 353.532226562 201.947265625 386.837890625 222.045898438 404.000976562 254 c 1
 455.000976562 220 l 1
 422.95703125 171.426757812 369.075195312 140.973632812 312.130859375 140.973632812 c 0
 217.884765625 140.973632812 142.846679688 222.733398438 142.846679688 319.4296875 c 0
 142.846679688 418.337890625 220.235351562 491.090820312 313.620117188 491.090820312 c 0
306.30859375 21.88671875 m 0
 152.946289062 21.88671875 25.7509765625 152.28515625 25.7509765625 317.374023438 c 0
 25.7509765625 483.338867188 153.373046875 614.018554688 306.767578125 614.018554688 c 0
 459.737304688 614.018554688 587.018554688 483.765625 587.018554688 318.260742188 c 0
 587.018554688 152.430664062 459.47265625 21.88671875 306.30859375 21.88671875 c 0
78.728515625 317.797851562 m 0
 78.728515625 179.709960938 182.938476562 71.908203125 307.828125 71.908203125 c 0
 432.333007812 71.908203125 537.006835938 179.645507812 537.006835938 318.68359375 c 0
 537.006835938 457.350585938 432.661132812 564.999023438 308.14453125 564.999023438 c 0
 183.439453125 564.999023438 78.728515625 457.057617188 78.728515625 317.797851562 c 0
EndSplineSet
Validated: 524289
EndChar

StartChar: ordfeminine
Encoding: 170 170 106
Width: 600
GlyphClass: 2
Flags: W
LayerCount: 2
Fore
SplineSet
152 656 m 1
 194 704 253 721 308 721 c 0
 371 721 424 696 448 645 c 0
 460 619 461 592 461 562 c 2
 461 309 l 1
 388 309 l 1
 388 348 l 1
 354 316 309 298 264 298 c 0
 184 298 128 355 128 419 c 0
 128 457 149 500 197 526 c 0
 239.82421875 549.05859375 290.78515625 551.092773438 339.274414062 551.092773438 c 0
 349.6640625 551.092773438 359.94140625 551 370 551 c 2
 387 551 l 1
 387 565 l 2
 387 585 387 605 374 625 c 0
 361 645 337 659 301 659 c 0
 260 659 218 644 192 608 c 1
 152 656 l 1
390 491 m 1
 371 491.000976562 l 2
 357.666992188 491.000976562 342.555664062 491.395507812 327.247070312 491.395507812 c 0
 308.111328125 491.395507812 288.666992188 490.778320312 272 488 c 0
 221 479 203 447 203 422 c 0
 203 390 231 361 276 361 c 0
 311 361 344 378 364 397 c 0
 389 420 390 444 390 471 c 2
 390 491 l 1
98 239.000976562 m 1
 503 239.000976562 l 1
 503 176.000976562 l 1
 98 176.000976562 l 1
 98 239.000976562 l 1
EndSplineSet
Validated: 524289
EndChar

StartChar: guillemotleft
Encoding: 171 171 107
Width: 600
GlyphClass: 2
Flags: W
LayerCount: 2
Fore
SplineSet
298 293 m 1
 474 464 l 1
 519 416 l 1
 379 279 l 1
 527 117 l 1
 481 71 l 1
 298 266 l 1
 298 293 l 1
88 293 m 1
 264 464 l 1
 309 416 l 1
 169 279 l 1
 317 117 l 1
 271 71 l 1
 88 266 l 1
 88 293 l 1
EndSplineSet
Validated: 1
EndChar

StartChar: logicalnot
Encoding: 172 172 108
Width: 600
GlyphClass: 2
Flags: W
LayerCount: 2
Fore
SplineSet
116 402 m 1
 490 402 l 1
 490 182 l 1
 416 182 l 1
 416 329 l 1
 116 329 l 1
 116 402 l 1
EndSplineSet
Validated: 1
EndChar

StartChar: softhyphen
Encoding: 173 173 109
Width: 600
GlyphClass: 2
Flags: W
LayerCount: 2
Fore
SplineSet
92 403 m 1
 509 403 l 1
 509 326 l 1
 92 326 l 1
 92 403 l 1
EndSplineSet
Validated: 1
EndChar

StartChar: registered
Encoding: 174 174 110
Width: 600
GlyphClass: 2
Flags: W
LayerCount: 2
Fore
SplineSet
306 22 m 0
 153 22 26 152 26 317 c 0
 26 483 153 614 307 614 c 0
 460 614 587 484 587 318 c 0
 587 152 459 22 306 22 c 0
79 318 m 0
 79 180 183 72 308 72 c 0
 432 72 537 180 537 319 c 0
 537 457 433 565 308 565 c 0
 183 565 79 457 79 318 c 0
190 154 m 1
 190 492 l 1
 299 492 l 2
 325 492 352 492 379 481 c 0
 418 464 439 429 439 394 c 0
 439 353 411 316 371 305 c 1
 446 160 l 1
 391 152 l 1
 319 297 l 1
 243 297 l 1
 243 154 l 1
 190 154 l 1
243 445 m 1
 243 343 l 1
 303 343 l 2
 322 343 345 343 363 355 c 0
 379 364 386 379 386 394 c 0
 386 409 378 425 360 435 c 0
 342 445 319 445 300 445 c 2
 243 445 l 1
EndSplineSet
Validated: 1
EndChar

StartChar: macron
Encoding: 175 175 111
Width: 600
GlyphClass: 2
Flags: W
LayerCount: 2
Fore
SplineSet
153 720 m 1
 447 720 l 1
 447 655 l 1
 153 655 l 1
 153 720 l 1
EndSplineSet
Validated: 1
EndChar

StartChar: degree
Encoding: 176 176 112
Width: 600
GlyphClass: 2
Flags: W
LayerCount: 2
Fore
SplineSet
463.000976562 584.452148438 m 0
 463.000976562 498.74609375 392.95703125 428.901367188 306.438476562 428.901367188 c 0
 219.962890625 428.901367188 149.901367188 498.734375 149.901367188 584.4765625 c 0
 149.901367188 670.166992188 219.932617188 740.0078125 306.436523438 740.0078125 c 0
 392.955078125 740.0078125 463.000976562 670.157226562 463.000976562 584.452148438 c 0
307.634765625 679 m 0
 260.518554688 679 220.977539062 638.291015625 220.977539062 585.821289062 c 0
 220.977539062 533.608398438 260.369140625 492.876953125 307.591796875 492.876953125 c 0
 354.563476562 492.876953125 394.08203125 533.5546875 394.08203125 586.129882812 c 0
 394.08203125 638.326171875 354.7109375 679 307.634765625 679 c 0
EndSplineSet
Validated: 524289
EndChar

StartChar: plusminus
Encoding: 177 177 113
Width: 600
GlyphClass: 2
Flags: W
LayerCount: 2
Fore
SplineSet
63 93 m 1
 540 93 l 1
 540 20 l 1
 63 20 l 1
 63 93 l 1
267 666 m 1
 340 666 l 1
 340 468 l 1
 538 468 l 1
 538 397 l 1
 340 397 l 1
 340 180 l 1
 267 180 l 1
 267 397 l 1
 62 397 l 1
 62 468 l 1
 267 468 l 1
 267 666 l 1
EndSplineSet
Validated: 1
EndChar

StartChar: uni00B2
Encoding: 178 178 114
Width: 600
GlyphClass: 2
Flags: W
LayerCount: 2
Fore
SplineSet
139 642 m 1
 173.775390625 702.486328125 238.827148438 738.2890625 309.096679688 738.2890625 c 0
 401.3359375 738.2890625 464.000976562 678.772460938 464.000976562 608.5625 c 0
 464.000976562 553.701171875 426.30078125 516.004882812 409.840820312 500.834960938 c 0
 363.815429688 458.41796875 299.740234375 428.352539062 234.999023438 356.000976562 c 1
 445.999023438 356.000976562 l 2
 451.283203125 356.000976562 453.69140625 356.7421875 458.391601562 360.794921875 c 0
 460.799804688 362.872070312 466.478515625 368.497070312 474 366.000976562 c 1
 474 293.000976562 l 1
 150 293.000976562 l 1
 150 344.000976562 l 1
 214.5546875 433.276367188 299.668945312 489.779296875 334.37109375 517.997070312 c 0
 367.994140625 545.338867188 394.114257812 573.311523438 394.114257812 608.166992188 c 0
 394.114257812 644.932617188 362.276367188 678.91796875 306.875976562 678.91796875 c 0
 262.373046875 678.91796875 224.55078125 655.762695312 204.173828125 629.982421875 c 0
 197.923828125 622.076171875 198.745117188 616.904296875 193 606 c 1
 139 642 l 1
EndSplineSet
Validated: 524289
EndChar

StartChar: uni00B3
Encoding: 179 179 115
Width: 600
GlyphClass: 2
Flags: W
LayerCount: 2
Fore
SplineSet
308.544921875 739.110351562 m 0
 394.883789062 739.110351562 460.2109375 681.24609375 460.2109375 614.548828125 c 0
 460.2109375 572.149414062 433.4296875 536.233398438 395.001953125 523.998046875 c 1
 444.0625 515.326171875 480.002929688 473.420898438 480.002929688 424.666992188 c 0
 480.002929688 348.94140625 397.313476562 290.98828125 304.905273438 290.98828125 c 0
 241.700195312 290.98828125 181.600585938 318.469726562 140.001953125 365.999023438 c 1
 194.001953125 425.999023438 l 1
 204.213867188 415.15234375 199.36328125 404.24609375 210.15625 393.712890625 c 0
 216.258789062 387.755859375 251.2265625 355.986328125 306.080078125 355.986328125 c 0
 362.890625 355.986328125 408.455078125 389.768554688 408.455078125 431.008789062 c 0
 408.455078125 452.32421875 395.327148438 495.1015625 306.637695312 495.1015625 c 0
 294.627929688 495.1015625 283.18359375 494.368164062 272.000976562 493 c 1
 272.000976562 551 l 1
 279.63671875 550.270507812 287.301757812 549.89453125 294.97265625 549.89453125 c 0
 370.889648438 549.89453125 391.541015625 582.897460938 391.541015625 609.502929688 c 0
 391.541015625 644.172851562 357.16015625 678.0390625 305.041992188 678.0390625 c 0
 265.850585938 678.0390625 224.827148438 658.778320312 197 624.000976562 c 1
 155 667.000976562 l 1
 193.930664062 713.015625 250.215820312 739.110351562 308.544921875 739.110351562 c 0
EndSplineSet
Validated: 524289
EndChar

StartChar: acute
Encoding: 180 180 116
Width: 600
GlyphClass: 2
Flags: W
LayerCount: 2
Fore
SplineSet
348 810 m 1
 421 761 l 1
 304 605 l 1
 246 640 l 1
 348 810 l 1
EndSplineSet
Validated: 1
EndChar

StartChar: micro
Encoding: 181 181 117
Width: 600
GlyphClass: 2
Flags: W
LayerCount: 2
Fore
SplineSet
38 -193 m 1
 39 -59 61 87 61 234 c 2
 61 529 l 1
 137 529 l 1
 137 215 l 2
 137 180 138 147 154 115 c 0
 175 73 212 50 249 50 c 0
 291 50 332 79 352 126 c 0
 365 156 367 186 367 222 c 2
 367 529 l 1
 441 529 l 1
 441 134 l 2
 441 116 441 95 451 78 c 0
 459 62 473 55 487 55 c 0
 527 55 551 111 551 111 c 1
 582 52 l 1
 560 18 523 -12 480 -12 c 0
 431 -12 391 28 385 78 c 1
 358 23 303 -13 243 -13 c 0
 187 -13 135 19 111 70 c 1
 111 -18 111 -106 110 -193 c 1
 38 -193 l 1
EndSplineSet
Validated: 1
EndChar

StartChar: paragraph
Encoding: 182 182 118
Width: 600
GlyphClass: 2
Flags: W
LayerCount: 2
Fore
SplineSet
515 771 m 1
 515.001953125 -79.001953125 l 1
 448.001953125 -79.001953125 l 1
 448.001953125 704.998046875 l 1
 360.001953125 704.998046875 l 1
 360.001953125 -79.001953125 l 1
 291.001953125 -79.001953125 l 1
 291.001953125 372.998046875 l 1
 173.557617188 380.689453125 83.943359375 470.14453125 83.943359375 574.543945312 c 0
 83.943359375 645.649414062 125.96875 713.3828125 202.879882812 746.68359375 c 0
 258.505859375 770.76953125 316.231445312 771 370 771 c 2
 515 771 l 1
EndSplineSet
Validated: 524289
EndChar

StartChar: periodcentered
Encoding: 183 183 119
Width: 600
GlyphClass: 2
Flags: W
LayerCount: 2
Fore
SplineSet
355.001953125 383.493164062 m 0
 355.001953125 347.008789062 324.551757812 316.954101562 286.44140625 316.954101562 c 0
 248.415039062 316.954101562 217.952148438 346.98046875 217.952148438 383.508789062 c 0
 217.952148438 419.962890625 248.3828125 450.001953125 286.461914062 450.001953125 c 0
 324.555664062 450.001953125 355.001953125 419.9609375 355.001953125 383.493164062 c 0
EndSplineSet
Validated: 524289
EndChar

StartChar: cedilla
Encoding: 184 184 120
Width: 600
GlyphClass: 2
Flags: W
LayerCount: 2
Fore
SplineSet
313 0 m 1
 363 0 l 1
 357 -55 l 1
 376 -56 l 2
 391 -57 406 -58 421 -65 c 0
 443 -76 455 -96 455 -119 c 0
 455 -160 414 -205 329 -205 c 0
 285 -205 235 -192 192 -162 c 1
 221 -114 l 1
 257 -143 301 -155 336 -155 c 0
 381 -155 389 -137 389 -127 c 0
 389 -120 385 -112 376 -107 c 0
 364 -99 347 -99 334 -99 c 2
 300 -99 l 1
 313 0 l 1
EndSplineSet
Validated: 1
EndChar

StartChar: uni00B9
Encoding: 185 185 121
Width: 600
GlyphClass: 2
Flags: W
LayerCount: 2
Fore
SplineSet
356 733 m 1
 356 293 l 1
 282 293 l 1
 282 641 l 1
 170 612 l 1
 151 648 l 1
 306 733 l 1
 356 733 l 1
EndSplineSet
Validated: 1
EndChar

StartChar: ordmasculine
Encoding: 186 186 122
Width: 600
GlyphClass: 2
Flags: W
LayerCount: 2
Fore
SplineSet
301.826171875 721.010742188 m 0
 385.223632812 721.010742188 470.107421875 653.806640625 470.107421875 514.754882812 c 0
 470.107421875 364.791992188 379.364257812 296.939453125 294.598632812 296.939453125 c 0
 202.82421875 296.939453125 120.827148438 374.4453125 120.827148438 500.868164062 c 0
 120.827148438 633.778320312 205.501953125 721.010742188 301.826171875 721.010742188 c 0
190.986328125 506.212890625 m 0
 190.986328125 409.1953125 244.899414062 363.923828125 296.393554688 363.923828125 c 0
 345.9296875 363.923828125 401 406.471679688 401 506.206054688 c 0
 401 605.5078125 349.543945312 655.999023438 296.205078125 655.999023438 c 0
 243.333007812 655.999023438 190.986328125 606.055664062 190.986328125 506.212890625 c 0
97.9990234375 238.999023438 m 1
 502.999023438 238.999023438 l 1
 502.999023438 175.999023438 l 1
 97.9990234375 175.999023438 l 1
 97.9990234375 238.999023438 l 1
EndSplineSet
Validated: 524289
EndChar

StartChar: guillemotright
Encoding: 187 187 123
Width: 600
GlyphClass: 2
Flags: W
LayerCount: 2
Fore
SplineSet
317 293 m 1
 317 266 l 1
 134 71 l 1
 88 117 l 1
 236 279 l 1
 96 416 l 1
 141 464 l 1
 317 293 l 1
527 293 m 1
 527 266 l 1
 344 71 l 1
 298 117 l 1
 446 279 l 1
 306 416 l 1
 351 464 l 1
 527 293 l 1
EndSplineSet
Validated: 1
EndChar

StartChar: onequarter
Encoding: 188 188 124
Width: 600
GlyphClass: 2
Flags: W
LayerCount: 2
Fore
SplineSet
98 -19 m 1
 461 770 l 1
 516 739 l 1
 152 -49 l 1
 98 -19 l 1
466.599609375 279.900390625 m 1
 502.599609375 279.900390625 l 1
 502.599609375 52.7001953125 l 1
 561 52.7001953125 l 1
 561 8.7001953125 l 1
 502.599609375 8.7001953125 l 1
 502.599609375 -80.900390625 l 1
 449.799804688 -80.900390625 l 1
 449.799804688 9.5 l 1
 281 9.5 l 1
 281 42.2998046875 l 1
 466.599609375 279.900390625 l 1
450.599609375 189.5 m 1
 341.799804688 52.7001953125 l 1
 450.599609375 52.7001953125 l 1
 450.599609375 189.5 l 1
177.400390625 785 m 1
 177.400390625 433 l 1
 118.200195312 433 l 1
 118.200195312 711.400390625 l 1
 28.599609375 688.200195312 l 1
 13.400390625 717 l 1
 137.400390625 785 l 1
 177.400390625 785 l 1
EndSplineSet
Validated: 524289
EndChar

StartChar: onehalf
Encoding: 189 189 125
Width: 600
GlyphClass: 2
Flags: W
LayerCount: 2
Fore
SplineSet
98 -19 m 1
 461 770 l 1
 516 739 l 1
 152 -49 l 1
 98 -19 l 1
312.5 194.727539062 m 1
 340.3203125 243.1171875 392.361328125 271.758789062 448.577148438 271.758789062 c 0
 522.369140625 271.758789062 572.500976562 224.14453125 572.500976562 167.9765625 c 0
 572.500976562 124.087890625 542.340820312 93.931640625 529.172851562 81.794921875 c 0
 492.352539062 47.861328125 441.092773438 23.8095703125 389.299804688 -34.072265625 c 1
 558.099609375 -34.072265625 l 2
 562.327148438 -34.072265625 564.25390625 -33.4794921875 568.013671875 -30.236328125 c 0
 569.940429688 -28.5751953125 574.483398438 -24.0751953125 580.5 -26.072265625 c 1
 580.5 -84.4716796875 l 1
 321.299804688 -84.4716796875 l 1
 321.299804688 -43.671875 l 1
 372.944335938 27.748046875 441.03515625 72.9501953125 468.796875 95.5244140625 c 0
 495.6953125 117.3984375 516.590820312 139.776367188 516.590820312 167.661132812 c 0
 516.590820312 197.073242188 491.12109375 224.26171875 446.80078125 224.26171875 c 0
 411.198242188 224.26171875 380.940429688 205.737304688 364.639648438 185.11328125 c 0
 359.639648438 178.7890625 360.295898438 174.651367188 355.700195312 165.927734375 c 1
 312.5 194.727539062 l 1
177.400390625 785 m 1
 177.400390625 433 l 1
 118.200195312 433 l 1
 118.200195312 711.400390625 l 1
 28.599609375 688.200195312 l 1
 13.400390625 717 l 1
 137.400390625 785 l 1
 177.400390625 785 l 1
EndSplineSet
Validated: 524289
EndChar

StartChar: threequarters
Encoding: 190 190 126
Width: 600
GlyphClass: 2
Flags: W
LayerCount: 2
Fore
SplineSet
104 -19 m 1
 467 770 l 1
 522 739 l 1
 158 -49 l 1
 104 -19 l 1
155.8359375 792.297851562 m 0
 224.907226562 792.297851562 277.166992188 746.0078125 277.166992188 692.650390625 c 0
 277.166992188 658.73046875 255.7421875 629.998046875 225 620.209960938 c 1
 264.249023438 613.272460938 293.000976562 579.748046875 293.000976562 540.745117188 c 0
 293.000976562 480.1640625 226.849609375 433.801757812 152.922851562 433.801757812 c 0
 102.359375 433.801757812 54.279296875 455.787109375 21 493.809570312 c 1
 64.2001953125 541.809570312 l 1
 72.3701171875 533.1328125 68.4892578125 524.407226562 77.123046875 515.981445312 c 0
 82.005859375 511.215820312 109.98046875 485.799804688 153.86328125 485.799804688 c 0
 199.3125 485.799804688 235.763671875 512.825195312 235.763671875 545.817382812 c 0
 235.763671875 562.869140625 225.260742188 597.090820312 154.309570312 597.090820312 c 0
 144.702148438 597.090820312 135.546875 596.50390625 126.600585938 595.41015625 c 1
 126.600585938 641.809570312 l 1
 132.708984375 641.225585938 138.840820312 640.924804688 144.977539062 640.924804688 c 0
 205.7109375 640.924804688 222.232421875 667.327148438 222.232421875 688.611328125 c 0
 222.232421875 716.34765625 194.727539062 743.440429688 153.033203125 743.440429688 c 0
 121.6796875 743.440429688 88.861328125 728.03125 66.6005859375 700.209960938 c 1
 33 734.610351562 l 1
 64.14453125 771.421875 109.172851562 792.297851562 155.8359375 792.297851562 c 0
466.599609375 279.900390625 m 1
 502.599609375 279.900390625 l 1
 502.599609375 52.7001953125 l 1
 561 52.7001953125 l 1
 561 8.7001953125 l 1
 502.599609375 8.7001953125 l 1
 502.599609375 -80.900390625 l 1
 449.799804688 -80.900390625 l 1
 449.799804688 9.5 l 1
 281 9.5 l 1
 281 42.2998046875 l 1
 466.599609375 279.900390625 l 1
450.599609375 189.5 m 1
 341.799804688 52.7001953125 l 1
 450.599609375 52.7001953125 l 1
 450.599609375 189.5 l 1
EndSplineSet
Validated: 524289
EndChar

StartChar: questiondown
Encoding: 191 191 127
Width: 600
GlyphClass: 2
Flags: W
LayerCount: 2
Fore
SplineSet
220.157226562 704.4765625 m 0
 220.157226562 740.959960938 250.607421875 771.014648438 288.717773438 771.014648438 c 0
 326.744140625 771.014648438 357.20703125 740.98828125 357.20703125 704.459960938 c 0
 357.20703125 668.005859375 326.776367188 637.966796875 288.697265625 637.966796875 c 0
 250.602539062 637.966796875 220.157226562 668.0078125 220.157226562 704.4765625 c 0
517.159179688 105.96875 m 1
 466.734375 28.2783203125 380.522460938 -15.0908203125 293.756835938 -15.0908203125 c 0
 162.459960938 -15.0908203125 87.9189453125 81.3359375 87.9189453125 189.330078125 c 0
 87.9189453125 298.212890625 164.512695312 342.302734375 202.754882812 376.29296875 c 0
 250.466796875 418.700195312 253.159179688 453.133789062 253.159179688 493.96875 c 2
 253.159179688 541.96875 l 1
 329.159179688 541.96875 l 1
 329.159179688 493.96875 l 2
 329.159179688 441.955078125 325.899414062 401.163085938 274.709960938 344.956054688 c 0
 239.6875 306.500976562 179.583007812 259.172851562 179.583007812 183.259765625 c 0
 179.583007812 114.787109375 232.2109375 60.81640625 301.525390625 60.81640625 c 0
 360.11328125 60.81640625 421.6171875 99.857421875 458.159179688 160.96875 c 1
 517.159179688 105.96875 l 1
EndSplineSet
Validated: 524289
EndChar

StartChar: Agrave
Encoding: 192 192 128
Width: 600
GlyphClass: 2
Flags: W
LayerCount: 2
Fore
SplineSet
220 917 m 1
 397 813 l 1
 370 765 l 1
 174 836 l 1
 220 917 l 1
27 -1 m 1
 282 735 l 1
 291 735 l 1
 570 0 l 1
 486 0 l 1
 406 211 l 1
 177 211 l 1
 107 -1 l 1
 27 -1 l 1
388 274 m 1
 286 549 l 1
 193 274 l 1
 388 274 l 1
EndSplineSet
Validated: 1
EndChar

StartChar: Aacute
Encoding: 193 193 129
Width: 600
GlyphClass: 2
Flags: W
LayerCount: 2
Fore
SplineSet
367 917 m 1
 413 836 l 1
 217 765 l 1
 190 813 l 1
 367 917 l 1
27 -1 m 1
 282 735 l 1
 291 735 l 1
 570 0 l 1
 486 0 l 1
 406 211 l 1
 177 211 l 1
 107 -1 l 1
 27 -1 l 1
388 274 m 1
 286 549 l 1
 193 274 l 1
 388 274 l 1
EndSplineSet
Validated: 1
EndChar

StartChar: Acircumflex
Encoding: 194 194 130
Width: 600
GlyphClass: 2
Flags: W
LayerCount: 2
Fore
SplineSet
128 802 m 1
 280 917 l 1
 305 917 l 1
 448 804 l 1
 410 760 l 1
 290 842 l 1
 161 763 l 1
 128 802 l 1
27 -1 m 1
 282 735 l 1
 291 735 l 1
 570 0 l 1
 486 0 l 1
 406 211 l 1
 177 211 l 1
 107 -1 l 1
 27 -1 l 1
388 274 m 1
 286 549 l 1
 193 274 l 1
 388 274 l 1
EndSplineSet
Validated: 1
EndChar

StartChar: Atilde
Encoding: 195 195 131
Width: 600
GlyphClass: 2
Flags: W
LayerCount: 2
Fore
SplineSet
162 792 m 1
 110 829 l 1
 152.860351562 896.836914062 195.853515625 929.267578125 241.029296875 929.267578125 c 0
 287.862304688 929.267578125 318.969726562 895.067382812 333.861328125 879.549804688 c 0
 352.641601562 859.978515625 370.041015625 842.9296875 391.658203125 842.9296875 c 0
 420.237304688 842.9296875 433.798828125 869.991210938 459 904 c 1
 502 858 l 1
 461.944335938 808.139648438 430.389648438 775.75390625 387.650390625 775.75390625 c 0
 320.263671875 775.75390625 288.883789062 863.431640625 237.84375 863.431640625 c 0
 207.153320312 863.431640625 189.762695312 836.786132812 162 792 c 1
27 -1 m 1
 282 735 l 1
 291 735 l 1
 570 0 l 1
 486 0 l 1
 406 211 l 1
 177 211 l 1
 107 -1 l 1
 27 -1 l 1
388 274 m 1
 286 549 l 1
 193 274 l 1
 388 274 l 1
EndSplineSet
Validated: 524289
EndChar

StartChar: Adieresis
Encoding: 196 196 132
Width: 600
GlyphClass: 2
Flags: W
LayerCount: 2
Fore
SplineSet
244.018554688 855.498046875 m 0
 244.018554688 823.2109375 217.7890625 796.981445312 185.501953125 796.981445312 c 0
 153.211914062 796.981445312 126.981445312 823.208984375 126.981445312 855.499023438 c 0
 126.981445312 887.7890625 153.209960938 914.018554688 185.5 914.018554688 c 0
 217.790039062 914.018554688 244.018554688 887.7890625 244.018554688 855.498046875 c 0
450.001953125 855.51171875 m 0
 450.001953125 823.16796875 423.956054688 796.991210938 392.004882812 796.991210938 c 0
 360.060546875 796.991210938 333.998046875 823.155273438 333.998046875 855.513671875 c 0
 333.998046875 887.862304688 360.051757812 914.03515625 392.0078125 914.03515625 c 0
 423.935546875 914.03515625 450.001953125 887.876953125 450.001953125 855.51171875 c 0
27 -1 m 1
 282 735 l 1
 291 735 l 1
 570 0 l 1
 486 0 l 1
 406 211 l 1
 177 211 l 1
 107 -1 l 1
 27 -1 l 1
388 274 m 1
 286 549 l 1
 193 274 l 1
 388 274 l 1
EndSplineSet
Validated: 524289
EndChar

StartChar: Aring
Encoding: 197 197 133
Width: 600
GlyphClass: 2
Flags: W
LayerCount: 2
Fore
SplineSet
394.004882812 818.997070312 m 0
 394.004882812 763.14453125 347.0390625 716.958007812 287.923828125 716.958007812 c 0
 228.950195312 716.958007812 181.920898438 763.100585938 181.920898438 819.065429688 c 0
 181.920898438 874.856445312 228.860351562 921.004882812 287.911132812 921.004882812 c 0
 347.012695312 921.004882812 394.004882812 874.836914062 394.004882812 818.997070312 c 0
240.9140625 819.774414062 m 0
 240.9140625 790.110351562 262.626953125 766.896484375 288.995117188 766.896484375 c 0
 315.032226562 766.896484375 337.03515625 789.836914062 337.03515625 820.068359375 c 0
 337.03515625 849.828125 315.33203125 873.01171875 289.022460938 873.01171875 c 0
 263 873.01171875 240.9140625 850.072265625 240.9140625 819.774414062 c 0
27 -1 m 1
 282 735 l 1
 291 735 l 1
 570 0 l 1
 486 0 l 1
 406 211 l 1
 177 211 l 1
 107 -1 l 1
 27 -1 l 1
388 274 m 1
 286 549 l 1
 193 274 l 1
 388 274 l 1
EndSplineSet
Validated: 524293
EndChar

StartChar: AE
Encoding: 198 198 134
Width: 600
GlyphClass: 2
Flags: W
LayerCount: 2
Fore
SplineSet
242 723 m 1
 571 723 l 1
 571 651 l 1
 370 651 l 1
 372 414 l 1
 541 414 l 1
 541 340 l 1
 373 340 l 1
 375 72 l 1
 568 72 l 1
 568 0 l 1
 302 0 l 1
 302 196 l 1
 151 196 l 1
 89 0 l 1
 15 0 l 1
 242 723 l 1
302 651 m 1
 289 651 l 1
 168 263 l 1
 302 263 l 1
 302 651 l 1
EndSplineSet
Validated: 1
EndChar

StartChar: Ccedilla
Encoding: 199 199 135
Width: 600
GlyphClass: 2
Flags: W
LayerCount: 2
Fore
SplineSet
313 0 m 1
 363 0 l 1
 357 -55 l 1
 376 -56 l 2
 391 -57 406 -58 421 -65 c 0
 443 -76 455 -96 455 -119 c 0
 455 -160 414 -205 329 -205 c 0
 285 -205 235 -192 192 -162 c 1
 221 -114 l 1
 257 -143 301 -155 336 -155 c 0
 381 -155 389 -137 389 -127 c 0
 389 -120 385 -112 376 -107 c 0
 364 -99 347 -99 334 -99 c 2
 300 -99 l 1
 313 0 l 1
331.618164062 728 m 0
 427.541992188 728 514.17578125 672.041992188 553 585 c 1
 476 547 l 1
 470.669921875 550.736328125 470.715820312 557.018554688 470.715820312 558.375 c 0
 470.715820312 561.256835938 471.20703125 564.141601562 471.20703125 567.015625 c 0
 471.20703125 572.403320312 469.515625 575.396484375 467.215820312 579.368164062 c 0
 438.075195312 629.69921875 385.397460938 663.16796875 328.881835938 663.16796875 c 0
 226.81640625 663.16796875 135.987304688 555.779296875 135.987304688 363.96875 c 0
 135.987304688 168.838867188 229.41796875 57.994140625 335.655273438 57.994140625 c 0
 392.317382812 57.994140625 449.702148438 90.884765625 483 146 c 1
 543 107 l 1
 497.694335938 32.978515625 417.216796875 -12.001953125 331.109375 -12.001953125 c 0
 212.177734375 -12.001953125 56.966796875 77.8505859375 56.966796875 356.806640625 c 0
 56.966796875 645.837890625 219.327148438 728 331.618164062 728 c 0
EndSplineSet
Validated: 524293
EndChar

StartChar: Egrave
Encoding: 200 200 136
Width: 600
GlyphClass: 2
Flags: W
LayerCount: 2
Fore
SplineSet
220 917 m 1
 397 813 l 1
 370 765 l 1
 174 836 l 1
 220 917 l 1
78 723 m 1
 521 723 l 1
 521 651 l 1
 155 651 l 1
 155 414 l 1
 457 414 l 1
 457 340 l 1
 155 340 l 1
 155 72 l 1
 518 72 l 1
 518 0 l 1
 78 0 l 1
 78 723 l 1
EndSplineSet
Validated: 1
EndChar

StartChar: Eacute
Encoding: 201 201 137
Width: 600
GlyphClass: 2
Flags: W
LayerCount: 2
Fore
SplineSet
387 917 m 1
 433 836 l 1
 237 765 l 1
 210 813 l 1
 387 917 l 1
78 723 m 1
 521 723 l 1
 521 651 l 1
 155 651 l 1
 155 414 l 1
 457 414 l 1
 457 340 l 1
 155 340 l 1
 155 72 l 1
 518 72 l 1
 518 0 l 1
 78 0 l 1
 78 723 l 1
EndSplineSet
Validated: 1
EndChar

StartChar: Ecircumflex
Encoding: 202 202 138
Width: 600
GlyphClass: 2
Flags: W
LayerCount: 2
Fore
SplineSet
138 802 m 1
 290 917 l 1
 315 917 l 1
 458 804 l 1
 420 760 l 1
 300 842 l 1
 171 763 l 1
 138 802 l 1
78 723 m 1
 521 723 l 1
 521 651 l 1
 155 651 l 1
 155 414 l 1
 457 414 l 1
 457 340 l 1
 155 340 l 1
 155 72 l 1
 518 72 l 1
 518 0 l 1
 78 0 l 1
 78 723 l 1
EndSplineSet
Validated: 1
EndChar

StartChar: Edieresis
Encoding: 203 203 139
Width: 600
GlyphClass: 2
Flags: W
LayerCount: 2
Fore
SplineSet
252.018554688 855.498046875 m 0
 252.018554688 823.2109375 225.7890625 796.981445312 193.501953125 796.981445312 c 0
 161.211914062 796.981445312 134.981445312 823.208984375 134.981445312 855.499023438 c 0
 134.981445312 887.7890625 161.209960938 914.018554688 193.5 914.018554688 c 0
 225.790039062 914.018554688 252.018554688 887.7890625 252.018554688 855.498046875 c 0
458.001953125 855.51171875 m 0
 458.001953125 823.16796875 431.956054688 796.991210938 400.004882812 796.991210938 c 0
 368.060546875 796.991210938 341.998046875 823.155273438 341.998046875 855.513671875 c 0
 341.998046875 887.862304688 368.051757812 914.03515625 400.0078125 914.03515625 c 0
 431.935546875 914.03515625 458.001953125 887.876953125 458.001953125 855.51171875 c 0
78 723 m 1
 521 723 l 1
 521 651 l 1
 155 651 l 1
 155 414 l 1
 457 414 l 1
 457 340 l 1
 155 340 l 1
 155 72 l 1
 518 72 l 1
 518 0 l 1
 78 0 l 1
 78 723 l 1
EndSplineSet
Validated: 524289
EndChar

StartChar: Igrave
Encoding: 204 204 140
Width: 600
GlyphClass: 2
Flags: W
LayerCount: 2
Fore
SplineSet
220 917 m 1
 397 813 l 1
 370 765 l 1
 174 836 l 1
 220 917 l 1
112 722 m 1
 470 722 l 1
 470 654 l 1
 327 654 l 1
 327 66 l 1
 477 66 l 1
 477 -1 l 1
 104 -1 l 1
 104 67 l 1
 246 67 l 1
 246 654 l 1
 112 654 l 1
 112 722 l 1
EndSplineSet
Validated: 1
EndChar

StartChar: Iacute
Encoding: 205 205 141
Width: 600
GlyphClass: 2
Flags: W
LayerCount: 2
Fore
SplineSet
387 917 m 1
 433 836 l 1
 237 765 l 1
 210 813 l 1
 387 917 l 1
112 722 m 1
 470 722 l 1
 470 654 l 1
 327 654 l 1
 327 66 l 1
 477 66 l 1
 477 -1 l 1
 104 -1 l 1
 104 67 l 1
 246 67 l 1
 246 654 l 1
 112 654 l 1
 112 722 l 1
EndSplineSet
Validated: 1
EndChar

StartChar: Icircumflex
Encoding: 206 206 142
Width: 600
GlyphClass: 2
Flags: W
LayerCount: 2
Fore
SplineSet
127 802 m 1
 279 917 l 1
 304 917 l 1
 447 804 l 1
 409 760 l 1
 289 842 l 1
 160 763 l 1
 127 802 l 1
112 722 m 1
 470 722 l 1
 470 654 l 1
 327 654 l 1
 327 66 l 1
 477 66 l 1
 477 -1 l 1
 104 -1 l 1
 104 67 l 1
 246 67 l 1
 246 654 l 1
 112 654 l 1
 112 722 l 1
EndSplineSet
Validated: 1
EndChar

StartChar: Idieresis
Encoding: 207 207 143
Width: 600
GlyphClass: 2
Flags: W
LayerCount: 2
Fore
SplineSet
248.018554688 855.498046875 m 0
 248.018554688 823.2109375 221.7890625 796.981445312 189.501953125 796.981445312 c 0
 157.211914062 796.981445312 130.981445312 823.208984375 130.981445312 855.499023438 c 0
 130.981445312 887.7890625 157.209960938 914.018554688 189.5 914.018554688 c 0
 221.790039062 914.018554688 248.018554688 887.7890625 248.018554688 855.498046875 c 0
454.001953125 855.51171875 m 0
 454.001953125 823.16796875 427.956054688 796.991210938 396.004882812 796.991210938 c 0
 364.060546875 796.991210938 337.998046875 823.155273438 337.998046875 855.513671875 c 0
 337.998046875 887.862304688 364.051757812 914.03515625 396.0078125 914.03515625 c 0
 427.935546875 914.03515625 454.001953125 887.876953125 454.001953125 855.51171875 c 0
112 722 m 1
 470 722 l 1
 470 654 l 1
 327 654 l 1
 327 66 l 1
 477 66 l 1
 477 -1 l 1
 104 -1 l 1
 104 67 l 1
 246 67 l 1
 246 654 l 1
 112 654 l 1
 112 722 l 1
EndSplineSet
Validated: 524289
EndChar

StartChar: Eth
Encoding: 208 208 144
Width: 600
GlyphClass: 2
Flags: W
LayerCount: 2
Fore
SplineSet
101 722 m 1
 263 722 l 2
 326 722 376 716 426 679 c 0
 513 615 550 488 550 365 c 0
 550 211 491 73 380 21 c 0
 339 2 300 -1 249 -1 c 2
 101 -1 l 1
 101 349 l 1
 45 349 l 1
 45 416 l 1
 101 416 l 1
 101 722 l 1
176 349 m 1
 176 66 l 1
 245 66 l 2
 286 66 325 68 366 96 c 0
 435 143 472 241 472 355 c 0
 472 436 455 525 411 585 c 0
 362 652 303 654 258 654 c 2
 176 654 l 1
 176 416 l 1
 297 416 l 1
 297 349 l 1
 176 349 l 1
EndSplineSet
Validated: 1
EndChar

StartChar: Ntilde
Encoding: 209 209 145
Width: 600
GlyphClass: 2
Flags: W
LayerCount: 2
Fore
SplineSet
167 792 m 1
 115 829 l 1
 157.860351562 896.836914062 200.853515625 929.267578125 246.029296875 929.267578125 c 0
 292.862304688 929.267578125 323.969726562 895.067382812 338.861328125 879.549804688 c 0
 357.641601562 859.978515625 375.041015625 842.9296875 396.658203125 842.9296875 c 0
 425.237304688 842.9296875 438.798828125 869.991210938 464 904 c 1
 507 858 l 1
 466.944335938 808.139648438 435.389648438 775.75390625 392.650390625 775.75390625 c 0
 325.263671875 775.75390625 293.883789062 863.431640625 242.84375 863.431640625 c 0
 212.153320312 863.431640625 194.762695312 836.786132812 167 792 c 1
68 0 m 1
 68 722 l 1
 147 722 l 1
 450 187 l 1
 450 723 l 1
 536 723 l 1
 536.928710938 716.254882812 533.916015625 710.682617188 532.62109375 708.219726562 c 0
 529.84375 702.9375 528 700.057617188 528 692 c 2
 528 -1 l 1
 464 -1 l 1
 146 568 l 1
 146 0 l 1
 68 0 l 1
EndSplineSet
Validated: 524289
EndChar

StartChar: Ograve
Encoding: 210 210 146
Width: 600
GlyphClass: 2
Flags: W
LayerCount: 2
Fore
SplineSet
220 917 m 1
 397 813 l 1
 370 765 l 1
 174 836 l 1
 220 917 l 1
556.0078125 359.50390625 m 0
 556.0078125 296.094726562 551.427734375 206.2734375 513.069335938 128.64453125 c 0
 465.538085938 32.45703125 382.42578125 -11.0146484375 304.485351562 -11.0146484375 c 0
 193.975585938 -11.0146484375 44 78.3984375 44 362.11328125 c 0
 44 645.883789062 196.081054688 730 303.760742188 730 c 0
 382.352539062 730 464.443359375 686.669921875 511.791992188 593.90234375 c 0
 551.171875 516.748046875 556.0078125 427.049804688 556.0078125 359.50390625 c 0
300.361328125 654.009765625 m 0
 224.49609375 654.009765625 123.970703125 587.911132812 123.970703125 372.659179688 c 0
 123.970703125 143.052734375 223.619140625 67.9873046875 304.833984375 67.9873046875 c 0
 353.415039062 67.9873046875 409.35546875 95.4453125 442.764648438 165.716796875 c 0
 472.35546875 227.951171875 475.084960938 301.614257812 475.084960938 348.897460938 c 0
 475.084960938 410.009765625 471.385742188 479.154296875 446.984375 539.848632812 c 0
 413.334960938 623.54296875 351.590820312 654.009765625 300.361328125 654.009765625 c 0
EndSplineSet
Validated: 524289
EndChar

StartChar: Oacute
Encoding: 211 211 147
Width: 600
GlyphClass: 2
Flags: W
LayerCount: 2
Fore
SplineSet
387 917 m 1
 433 836 l 1
 237 765 l 1
 210 813 l 1
 387 917 l 1
556.0078125 359.50390625 m 0
 556.0078125 296.094726562 551.427734375 206.2734375 513.069335938 128.64453125 c 0
 465.538085938 32.45703125 382.42578125 -11.0146484375 304.485351562 -11.0146484375 c 0
 193.975585938 -11.0146484375 44 78.3984375 44 362.11328125 c 0
 44 645.883789062 196.081054688 730 303.760742188 730 c 0
 382.352539062 730 464.443359375 686.669921875 511.791992188 593.90234375 c 0
 551.171875 516.748046875 556.0078125 427.049804688 556.0078125 359.50390625 c 0
300.361328125 654.009765625 m 0
 224.49609375 654.009765625 123.970703125 587.911132812 123.970703125 372.659179688 c 0
 123.970703125 143.052734375 223.619140625 67.9873046875 304.833984375 67.9873046875 c 0
 353.415039062 67.9873046875 409.35546875 95.4453125 442.764648438 165.716796875 c 0
 472.35546875 227.951171875 475.084960938 301.614257812 475.084960938 348.897460938 c 0
 475.084960938 410.009765625 471.385742188 479.154296875 446.984375 539.848632812 c 0
 413.334960938 623.54296875 351.590820312 654.009765625 300.361328125 654.009765625 c 0
EndSplineSet
Validated: 524289
EndChar

StartChar: Ocircumflex
Encoding: 212 212 148
Width: 600
GlyphClass: 2
Flags: W
LayerCount: 2
Fore
SplineSet
141 802 m 1
 293 917 l 1
 318 917 l 1
 461 804 l 1
 423 760 l 1
 303 842 l 1
 174 763 l 1
 141 802 l 1
556.0078125 359.50390625 m 0
 556.0078125 296.094726562 551.427734375 206.2734375 513.069335938 128.64453125 c 0
 465.538085938 32.45703125 382.42578125 -11.0146484375 304.485351562 -11.0146484375 c 0
 193.975585938 -11.0146484375 44 78.3984375 44 362.11328125 c 0
 44 645.883789062 196.081054688 730 303.760742188 730 c 0
 382.352539062 730 464.443359375 686.669921875 511.791992188 593.90234375 c 0
 551.171875 516.748046875 556.0078125 427.049804688 556.0078125 359.50390625 c 0
300.361328125 654.009765625 m 0
 224.49609375 654.009765625 123.970703125 587.911132812 123.970703125 372.659179688 c 0
 123.970703125 143.052734375 223.619140625 67.9873046875 304.833984375 67.9873046875 c 0
 353.415039062 67.9873046875 409.35546875 95.4453125 442.764648438 165.716796875 c 0
 472.35546875 227.951171875 475.084960938 301.614257812 475.084960938 348.897460938 c 0
 475.084960938 410.009765625 471.385742188 479.154296875 446.984375 539.848632812 c 0
 413.334960938 623.54296875 351.590820312 654.009765625 300.361328125 654.009765625 c 0
EndSplineSet
Validated: 524289
EndChar

StartChar: Otilde
Encoding: 213 213 149
Width: 600
GlyphClass: 2
Flags: W
LayerCount: 2
Fore
SplineSet
167 792 m 1
 115 829 l 1
 157.860351562 896.836914062 200.853515625 929.267578125 246.029296875 929.267578125 c 0
 292.862304688 929.267578125 323.969726562 895.067382812 338.861328125 879.549804688 c 0
 357.641601562 859.978515625 375.041015625 842.9296875 396.658203125 842.9296875 c 0
 425.237304688 842.9296875 438.798828125 869.991210938 464 904 c 1
 507 858 l 1
 466.944335938 808.139648438 435.389648438 775.75390625 392.650390625 775.75390625 c 0
 325.263671875 775.75390625 293.883789062 863.431640625 242.84375 863.431640625 c 0
 212.153320312 863.431640625 194.762695312 836.786132812 167 792 c 1
556.0078125 359.50390625 m 0
 556.0078125 296.094726562 551.427734375 206.2734375 513.069335938 128.64453125 c 0
 465.538085938 32.45703125 382.42578125 -11.0146484375 304.485351562 -11.0146484375 c 0
 193.975585938 -11.0146484375 44 78.3984375 44 362.11328125 c 0
 44 645.883789062 196.081054688 730 303.760742188 730 c 0
 382.352539062 730 464.443359375 686.669921875 511.791992188 593.90234375 c 0
 551.171875 516.748046875 556.0078125 427.049804688 556.0078125 359.50390625 c 0
300.361328125 654.009765625 m 0
 224.49609375 654.009765625 123.970703125 587.911132812 123.970703125 372.659179688 c 0
 123.970703125 143.052734375 223.619140625 67.9873046875 304.833984375 67.9873046875 c 0
 353.415039062 67.9873046875 409.35546875 95.4453125 442.764648438 165.716796875 c 0
 472.35546875 227.951171875 475.084960938 301.614257812 475.084960938 348.897460938 c 0
 475.084960938 410.009765625 471.385742188 479.154296875 446.984375 539.848632812 c 0
 413.334960938 623.54296875 351.590820312 654.009765625 300.361328125 654.009765625 c 0
EndSplineSet
Validated: 524289
EndChar

StartChar: Odieresis
Encoding: 214 214 150
Width: 600
GlyphClass: 2
Flags: W
LayerCount: 2
Fore
SplineSet
252.018554688 855.498046875 m 0
 252.018554688 823.2109375 225.7890625 796.981445312 193.501953125 796.981445312 c 0
 161.211914062 796.981445312 134.981445312 823.208984375 134.981445312 855.499023438 c 0
 134.981445312 887.7890625 161.209960938 914.018554688 193.5 914.018554688 c 0
 225.790039062 914.018554688 252.018554688 887.7890625 252.018554688 855.498046875 c 0
458.001953125 855.51171875 m 0
 458.001953125 823.16796875 431.956054688 796.991210938 400.004882812 796.991210938 c 0
 368.060546875 796.991210938 341.998046875 823.155273438 341.998046875 855.513671875 c 0
 341.998046875 887.862304688 368.051757812 914.03515625 400.0078125 914.03515625 c 0
 431.935546875 914.03515625 458.001953125 887.876953125 458.001953125 855.51171875 c 0
556.0078125 359.50390625 m 0
 556.0078125 296.094726562 551.427734375 206.2734375 513.069335938 128.64453125 c 0
 465.538085938 32.45703125 382.42578125 -11.0146484375 304.485351562 -11.0146484375 c 0
 193.975585938 -11.0146484375 44 78.3984375 44 362.11328125 c 0
 44 645.883789062 196.081054688 730 303.760742188 730 c 0
 382.352539062 730 464.443359375 686.669921875 511.791992188 593.90234375 c 0
 551.171875 516.748046875 556.0078125 427.049804688 556.0078125 359.50390625 c 0
300.361328125 654.009765625 m 0
 224.49609375 654.009765625 123.970703125 587.911132812 123.970703125 372.659179688 c 0
 123.970703125 143.052734375 223.619140625 67.9873046875 304.833984375 67.9873046875 c 0
 353.415039062 67.9873046875 409.35546875 95.4453125 442.764648438 165.716796875 c 0
 472.35546875 227.951171875 475.084960938 301.614257812 475.084960938 348.897460938 c 0
 475.084960938 410.009765625 471.385742188 479.154296875 446.984375 539.848632812 c 0
 413.334960938 623.54296875 351.590820312 654.009765625 300.361328125 654.009765625 c 0
EndSplineSet
Validated: 524289
EndChar

StartChar: multiply
Encoding: 215 215 151
Width: 600
GlyphClass: 2
Flags: W
LayerCount: 2
Fore
SplineSet
453 583 m 1
 508 532 l 1
 357.682617188 376.931640625 l 1
 505 221 l 1
 451 168 l 1
 304.76171875 322.337890625 l 1
 160 173 l 1
 108 224 l 1
 253.994140625 375.918945312 l 1
 108 530 l 1
 163 583 l 1
 306.763671875 430.829101562 l 1
 453 583 l 1
EndSplineSet
Validated: 524289
EndChar

StartChar: Oslash
Encoding: 216 216 152
Width: 600
GlyphClass: 2
Flags: W
LayerCount: 2
Fore
SplineSet
300.361328125 654.009765625 m 0
 224.49609375 654.009765625 123.970703125 587.911132812 123.970703125 372.659179688 c 0
 123.970703125 281.791015625 139.578125 215.127929688 163.473632812 167.7421875 c 1
 399.758789062 612.32421875 l 1
 368.854492188 641.994140625 332.534179688 654.009765625 300.361328125 654.009765625 c 0
556.008789062 359.50390625 m 0
 556.008789062 296.094726562 551.430664062 206.271484375 513.071289062 128.643554688 c 0
 465.540039062 32.455078125 382.427734375 -11.0166015625 304.486328125 -11.0166015625 c 0
 261.834960938 -11.0166015625 213.3046875 2.302734375 169.787109375 34.970703125 c 1
 112.000976562 -73.0009765625 l 1
 52.0009765625 -42.0009765625 l 1
 119.6171875 85.2216796875 l 1
 75.197265625 143.736328125 44.0009765625 232.716796875 44.0009765625 362.11328125 c 0
 44.0009765625 645.883789062 196.08203125 730 303.76171875 730 c 0
 349.840820312 730 397.122070312 715.10546875 437.8984375 684.0859375 c 1
 491.000976562 784.000976562 l 1
 553.000976562 751.000976562 l 1
 488.971679688 631.364257812 l 1
 497.23828125 619.916992188 504.885742188 607.435546875 511.79296875 593.90234375 c 0
 551.172851562 516.748046875 556.008789062 427.049804688 556.008789062 359.50390625 c 0
443.9140625 547.16796875 m 1
 208.344726562 107.008789062 l 1
 238.63671875 79.41796875 273.140625 67.984375 304.836914062 67.984375 c 0
 353.41796875 67.984375 409.357421875 95.443359375 442.768554688 165.71484375 c 0
 472.357421875 227.94921875 475.088867188 301.612304688 475.088867188 348.895507812 c 0
 475.088867188 410.008789062 471.389648438 479.15234375 446.987304688 539.84765625 c 2
 443.9140625 547.16796875 l 1
EndSplineSet
Validated: 524289
EndChar

StartChar: Ugrave
Encoding: 217 217 153
Width: 600
GlyphClass: 2
Flags: W
LayerCount: 2
Fore
SplineSet
220 917 m 1
 397 813 l 1
 370 765 l 1
 174 836 l 1
 220 917 l 1
68 722 m 1
 159 722 l 2
 159.791015625 720.163085938 160.200195312 718.171875 160.200195312 716.150390625 c 0
 160.200195312 709.235351562 155.630859375 704.498046875 152.571289062 700.1953125 c 0
 148.295898438 694.181640625 148 690.265625 148 685 c 2
 148 248 l 2
 148 212.141601562 148.701171875 177.155273438 165.3359375 141.578125 c 0
 191.298828125 86.052734375 245.8046875 55.9208984375 303.067382812 55.9208984375 c 0
 359.4140625 55.9208984375 413.783203125 85.34375 440.466796875 140.548828125 c 0
 458.224609375 177.288085938 459 213.693359375 459 251 c 2
 459 722 l 1
 536 722 l 1
 536 253 l 2
 536 200.192382812 534.408203125 150.172851562 507.084960938 99.8134765625 c 0
 466.017578125 24.125 384.91015625 -13.0732421875 301.4609375 -13.0732421875 c 0
 216.264648438 -13.0732421875 136.155273438 24.9775390625 96.1416015625 99.216796875 c 0
 69.4091796875 148.814453125 68 197.959960938 68 249 c 2
 68 722 l 1
EndSplineSet
Validated: 524289
EndChar

StartChar: Uacute
Encoding: 218 218 154
Width: 600
GlyphClass: 2
Flags: W
LayerCount: 2
Fore
SplineSet
387 917 m 1
 433 836 l 1
 237 765 l 1
 210 813 l 1
 387 917 l 1
68 722 m 1
 159 722 l 2
 159.791015625 720.163085938 160.200195312 718.171875 160.200195312 716.150390625 c 0
 160.200195312 709.235351562 155.630859375 704.498046875 152.571289062 700.1953125 c 0
 148.295898438 694.181640625 148 690.265625 148 685 c 2
 148 248 l 2
 148 212.141601562 148.701171875 177.155273438 165.3359375 141.578125 c 0
 191.298828125 86.052734375 245.8046875 55.9208984375 303.067382812 55.9208984375 c 0
 359.4140625 55.9208984375 413.783203125 85.34375 440.466796875 140.548828125 c 0
 458.224609375 177.288085938 459 213.693359375 459 251 c 2
 459 722 l 1
 536 722 l 1
 536 253 l 2
 536 200.192382812 534.408203125 150.172851562 507.084960938 99.8134765625 c 0
 466.017578125 24.125 384.91015625 -13.0732421875 301.4609375 -13.0732421875 c 0
 216.264648438 -13.0732421875 136.155273438 24.9775390625 96.1416015625 99.216796875 c 0
 69.4091796875 148.814453125 68 197.959960938 68 249 c 2
 68 722 l 1
EndSplineSet
Validated: 524289
EndChar

StartChar: Ucircumflex
Encoding: 219 219 155
Width: 600
GlyphClass: 2
Flags: W
LayerCount: 2
Fore
SplineSet
141 802 m 1
 293 917 l 1
 318 917 l 1
 461 804 l 1
 423 760 l 1
 303 842 l 1
 174 763 l 1
 141 802 l 1
68 722 m 1
 159 722 l 2
 159.791015625 720.163085938 160.200195312 718.171875 160.200195312 716.150390625 c 0
 160.200195312 709.235351562 155.630859375 704.498046875 152.571289062 700.1953125 c 0
 148.295898438 694.181640625 148 690.265625 148 685 c 2
 148 248 l 2
 148 212.141601562 148.701171875 177.155273438 165.3359375 141.578125 c 0
 191.298828125 86.052734375 245.8046875 55.9208984375 303.067382812 55.9208984375 c 0
 359.4140625 55.9208984375 413.783203125 85.34375 440.466796875 140.548828125 c 0
 458.224609375 177.288085938 459 213.693359375 459 251 c 2
 459 722 l 1
 536 722 l 1
 536 253 l 2
 536 200.192382812 534.408203125 150.172851562 507.084960938 99.8134765625 c 0
 466.017578125 24.125 384.91015625 -13.0732421875 301.4609375 -13.0732421875 c 0
 216.264648438 -13.0732421875 136.155273438 24.9775390625 96.1416015625 99.216796875 c 0
 69.4091796875 148.814453125 68 197.959960938 68 249 c 2
 68 722 l 1
EndSplineSet
Validated: 524289
EndChar

StartChar: Udieresis
Encoding: 220 220 156
Width: 600
GlyphClass: 2
Flags: W
LayerCount: 2
Fore
SplineSet
262.018554688 855.498046875 m 0
 262.018554688 823.2109375 235.7890625 796.981445312 203.501953125 796.981445312 c 0
 171.211914062 796.981445312 144.981445312 823.208984375 144.981445312 855.499023438 c 0
 144.981445312 887.7890625 171.209960938 914.018554688 203.5 914.018554688 c 0
 235.790039062 914.018554688 262.018554688 887.7890625 262.018554688 855.498046875 c 0
468.001953125 855.51171875 m 0
 468.001953125 823.16796875 441.956054688 796.991210938 410.004882812 796.991210938 c 0
 378.060546875 796.991210938 351.998046875 823.155273438 351.998046875 855.513671875 c 0
 351.998046875 887.862304688 378.051757812 914.03515625 410.0078125 914.03515625 c 0
 441.935546875 914.03515625 468.001953125 887.876953125 468.001953125 855.51171875 c 0
68 722 m 1
 159 722 l 2
 159.791015625 720.163085938 160.200195312 718.171875 160.200195312 716.150390625 c 0
 160.200195312 709.235351562 155.630859375 704.498046875 152.571289062 700.1953125 c 0
 148.295898438 694.181640625 148 690.265625 148 685 c 2
 148 248 l 2
 148 212.141601562 148.701171875 177.155273438 165.3359375 141.578125 c 0
 191.298828125 86.052734375 245.8046875 55.9208984375 303.067382812 55.9208984375 c 0
 359.4140625 55.9208984375 413.783203125 85.34375 440.466796875 140.548828125 c 0
 458.224609375 177.288085938 459 213.693359375 459 251 c 2
 459 722 l 1
 536 722 l 1
 536 253 l 2
 536 200.192382812 534.408203125 150.172851562 507.084960938 99.8134765625 c 0
 466.017578125 24.125 384.91015625 -13.0732421875 301.4609375 -13.0732421875 c 0
 216.264648438 -13.0732421875 136.155273438 24.9775390625 96.1416015625 99.216796875 c 0
 69.4091796875 148.814453125 68 197.959960938 68 249 c 2
 68 722 l 1
EndSplineSet
Validated: 524289
EndChar

StartChar: Yacute
Encoding: 221 221 157
Width: 600
GlyphClass: 2
Flags: W
LayerCount: 2
Fore
SplineSet
387 917 m 1
 433 836 l 1
 237 765 l 1
 210 813 l 1
 387 917 l 1
43 723 m 1
 135 723 l 1
 312 372 l 1
 472 722 l 1
 558 722 l 1
 353 285 l 1
 353 0 l 1
 265 0 l 1
 265 285 l 1
 43 723 l 1
EndSplineSet
Validated: 1
EndChar

StartChar: Thorn
Encoding: 222 222 158
Width: 600
GlyphClass: 2
Flags: W
LayerCount: 2
Fore
SplineSet
78 722 m 1
 168.998046875 722 l 2
 169.518554688 720.465820312 169.782226562 718.849609375 169.782226562 717.215820312 c 0
 169.782226562 710.791992188 165.817382812 706.356445312 163.315429688 702.380859375 c 0
 160.181640625 697.3984375 159.998046875 694.170898438 159.998046875 690.000976562 c 2
 159.998046875 586.000976562 l 1
 297.998046875 586.000976562 l 2
 344.58203125 586.000976562 389.357421875 584.805664062 434.622070312 561.495117188 c 0
 502.826171875 526.372070312 538.014648438 455.71875 538.014648438 382.700195312 c 0
 538.014648438 309.50390625 502.881835938 240.352539062 436.11328125 206.409179688 c 0
 392.26171875 184.116210938 348.9765625 183 304 183 c 2
 160 183 l 1
 160 0 l 1
 78 0 l 1
 78 722 l 1
159.998046875 510 m 1
 159.998046875 254.000976562 l 1
 306.998046875 254.000976562 l 2
 335.463867188 254.000976562 362.991210938 254.678710938 390.829101562 268.763671875 c 0
 432.657226562 289.926757812 455.000976562 332.944335938 455.000976562 378.986328125 c 0
 455.000976562 425.985351562 431.626953125 471.920898438 386.6171875 494.5 c 0
 357.188476562 509.262695312 328.163085938 510 297.998046875 510 c 2
 159.998046875 510 l 1
EndSplineSet
Validated: 524289
EndChar

StartChar: germandbls
Encoding: 223 223 159
Width: 600
GlyphClass: 2
Flags: W
LayerCount: 2
Fore
SplineSet
74 0 m 1
 73.9970703125 489.999023438 l 2
 73.9970703125 542.805664062 74.6640625 596.233398438 98.2060546875 649.708984375 c 0
 133.727539062 730.3984375 208.295898438 775.002929688 287.296875 775.002929688 c 0
 402.903320312 775.002929688 497.208007812 681.29296875 497.208007812 571.107421875 c 0
 497.208007812 504.486328125 461.8984375 445.29296875 404.998046875 415.999023438 c 1
 491.888671875 389.078125 548.00390625 305.599609375 548.00390625 209.319335938 c 0
 548.00390625 83.4287109375 454.188476562 -12.0302734375 335.409179688 -12.0302734375 c 0
 292.7734375 -12.0302734375 250.91796875 0.4697265625 214.997070312 23.9990234375 c 1
 255.997070312 88.9990234375 l 1
 278.146484375 71.5078125 305.63671875 61.96484375 334.041992188 61.96484375 c 0
 407.899414062 61.96484375 471.130859375 125.490234375 471.130859375 209.3984375 c 0
 471.130859375 270.280273438 438.459960938 323.525390625 394.788085938 350.881835938 c 0
 362.071289062 371.375 330.750976562 374 292.999023438 374 c 2
 257.999023438 374 l 1
 257.999023438 440 l 1
 290.999023438 440 l 2
 308.30078125 440 324.827148438 440.513671875 344.200195312 449.182617188 c 0
 387.875 468.725585938 418.114257812 518.563476562 418.114257812 573.124023438 c 0
 418.114257812 649.49609375 360.646484375 708.193359375 291.765625 708.193359375 c 0
 253.833007812 708.193359375 213.869140625 689.798828125 186.71875 650.3671875 c 0
 153.728515625 602.454101562 153 543.204101562 153 492 c 2
 153 0 l 1
 74 0 l 1
EndSplineSet
Validated: 524289
EndChar

StartChar: agrave
Encoding: 224 224 160
Width: 600
GlyphClass: 2
Flags: W
LayerCount: 2
Fore
SplineSet
292 810 m 1
 394 640 l 1
 336 605 l 1
 219 761 l 1
 292 810 l 1
115 467 m 1
 164 518 233 541 304 541 c 0
 386 541 453 511 488 453 c 0
 512 412 514 371 514 328 c 2
 514 0 l 1
 435 0 l 1
 435 58 l 1
 377 11 310 -13 245 -13 c 0
 134 -13 67 59 67 137 c 0
 67 196 105 257 188 288 c 0
 250.962890625 311.1484375 326.786132812 312.004882812 399.591796875 312.004882812 c 0
 405.416992188 312.004882812 411.221679688 312 417 312 c 2
 434 312 l 1
 434 331 l 2
 434 359 434 393 417 422 c 0
 402 447 371 473 308 473 c 0
 259 473 199 459 156 414 c 1
 115 467 l 1
437 248 m 1
 418 248 l 2
 398.587890625 248 377.182617188 248.374023438 355.5 248.374023438 c 0
 315.747070312 248.374023438 275.05859375 247.118164062 244 240 c 0
 178 224 151 181 151 142 c 0
 151 95 192 51 262 51 c 0
 331 51 382 93 401 113 c 0
 437 151 437 186 437 213 c 2
 437 248 l 1
EndSplineSet
Validated: 524289
EndChar

StartChar: aacute
Encoding: 225 225 161
Width: 600
GlyphClass: 2
Flags: W
LayerCount: 2
Fore
SplineSet
348 810 m 1
 421 761 l 1
 304 605 l 1
 246 640 l 1
 348 810 l 1
115 467 m 1
 164 518 233 541 304 541 c 0
 386 541 453 511 488 453 c 0
 512 412 514 371 514 328 c 2
 514 0 l 1
 435 0 l 1
 435 58 l 1
 377 11 310 -13 245 -13 c 0
 134 -13 67 59 67 137 c 0
 67 196 105 257 188 288 c 0
 250.962890625 311.1484375 326.786132812 312.004882812 399.591796875 312.004882812 c 0
 405.416992188 312.004882812 411.221679688 312 417 312 c 2
 434 312 l 1
 434 331 l 2
 434 359 434 393 417 422 c 0
 402 447 371 473 308 473 c 0
 259 473 199 459 156 414 c 1
 115 467 l 1
437 248 m 1
 418 248 l 2
 398.587890625 248 377.182617188 248.374023438 355.5 248.374023438 c 0
 315.747070312 248.374023438 275.05859375 247.118164062 244 240 c 0
 178 224 151 181 151 142 c 0
 151 95 192 51 262 51 c 0
 331 51 382 93 401 113 c 0
 437 151 437 186 437 213 c 2
 437 248 l 1
EndSplineSet
Validated: 524289
EndChar

StartChar: acircumflex
Encoding: 226 226 162
Width: 600
GlyphClass: 2
Flags: W
LayerCount: 2
Fore
SplineSet
173 631 m 1
 302 794 l 1
 327 794 l 1
 455 630 l 1
 401 590 l 1
 311 709 l 1
 217 591 l 1
 173 631 l 1
115 467 m 1
 164 518 233 541 304 541 c 0
 386 541 453 511 488 453 c 0
 512 412 514 371 514 328 c 2
 514 0 l 1
 435 0 l 1
 435 58 l 1
 377 11 310 -13 245 -13 c 0
 134 -13 67 59 67 137 c 0
 67 196 105 257 188 288 c 0
 250.962890625 311.1484375 326.786132812 312.004882812 399.591796875 312.004882812 c 0
 405.416992188 312.004882812 411.221679688 312 417 312 c 2
 434 312 l 1
 434 331 l 2
 434 359 434 393 417 422 c 0
 402 447 371 473 308 473 c 0
 259 473 199 459 156 414 c 1
 115 467 l 1
437 248 m 1
 418 248 l 2
 398.587890625 248 377.182617188 248.374023438 355.5 248.374023438 c 0
 315.747070312 248.374023438 275.05859375 247.118164062 244 240 c 0
 178 224 151 181 151 142 c 0
 151 95 192 51 262 51 c 0
 331 51 382 93 401 113 c 0
 437 151 437 186 437 213 c 2
 437 248 l 1
EndSplineSet
Validated: 524289
EndChar

StartChar: atilde
Encoding: 227 227 163
Width: 600
GlyphClass: 2
Flags: W
LayerCount: 2
Fore
SplineSet
178 646 m 1
 126 683 l 1
 168.860351562 750.836914062 211.853515625 783.267578125 257.029296875 783.267578125 c 0
 303.862304688 783.267578125 334.969726562 749.067382812 349.861328125 733.549804688 c 0
 368.641601562 713.978515625 386.041015625 696.9296875 407.658203125 696.9296875 c 0
 436.237304688 696.9296875 449.798828125 723.991210938 475 758 c 1
 518 712 l 1
 477.944335938 662.139648438 446.389648438 629.75390625 403.650390625 629.75390625 c 0
 336.263671875 629.75390625 304.883789062 717.431640625 253.84375 717.431640625 c 0
 223.153320312 717.431640625 205.762695312 690.786132812 178 646 c 1
115 467 m 1
 164 518 233 541 304 541 c 0
 386 541 453 511 488 453 c 0
 512 412 514 371 514 328 c 2
 514 0 l 1
 435 0 l 1
 435 58 l 1
 377 11 310 -13 245 -13 c 0
 134 -13 67 59 67 137 c 0
 67 196 105 257 188 288 c 0
 250.962890625 311.1484375 326.786132812 312.004882812 399.591796875 312.004882812 c 0
 405.416992188 312.004882812 411.221679688 312 417 312 c 2
 434 312 l 1
 434 331 l 2
 434 359 434 393 417 422 c 0
 402 447 371 473 308 473 c 0
 259 473 199 459 156 414 c 1
 115 467 l 1
437 248 m 1
 418 248 l 2
 398.587890625 248 377.182617188 248.374023438 355.5 248.374023438 c 0
 315.747070312 248.374023438 275.05859375 247.118164062 244 240 c 0
 178 224 151 181 151 142 c 0
 151 95 192 51 262 51 c 0
 331 51 382 93 401 113 c 0
 437 151 437 186 437 213 c 2
 437 248 l 1
EndSplineSet
Validated: 524289
EndChar

StartChar: adieresis
Encoding: 228 228 164
Width: 600
GlyphClass: 2
Flags: W
LayerCount: 2
Fore
SplineSet
272.018554688 711.498046875 m 0
 272.018554688 679.2109375 245.7890625 652.981445312 213.501953125 652.981445312 c 0
 181.211914062 652.981445312 154.981445312 679.208984375 154.981445312 711.499023438 c 0
 154.981445312 743.7890625 181.209960938 770.018554688 213.5 770.018554688 c 0
 245.790039062 770.018554688 272.018554688 743.7890625 272.018554688 711.498046875 c 0
478.001953125 711.51171875 m 0
 478.001953125 679.16796875 451.956054688 652.991210938 420.004882812 652.991210938 c 0
 388.060546875 652.991210938 361.998046875 679.155273438 361.998046875 711.513671875 c 0
 361.998046875 743.862304688 388.051757812 770.03515625 420.0078125 770.03515625 c 0
 451.935546875 770.03515625 478.001953125 743.876953125 478.001953125 711.51171875 c 0
115 467 m 1
 164 518 233 541 304 541 c 0
 386 541 453 511 488 453 c 0
 512 412 514 371 514 328 c 2
 514 0 l 1
 435 0 l 1
 435 58 l 1
 377 11 310 -13 245 -13 c 0
 134 -13 67 59 67 137 c 0
 67 196 105 257 188 288 c 0
 250.962890625 311.1484375 326.786132812 312.004882812 399.591796875 312.004882812 c 0
 405.416992188 312.004882812 411.221679688 312 417 312 c 2
 434 312 l 1
 434 331 l 2
 434 359 434 393 417 422 c 0
 402 447 371 473 308 473 c 0
 259 473 199 459 156 414 c 1
 115 467 l 1
437 248 m 1
 418 248 l 2
 398.587890625 248 377.182617188 248.374023438 355.5 248.374023438 c 0
 315.747070312 248.374023438 275.05859375 247.118164062 244 240 c 0
 178 224 151 181 151 142 c 0
 151 95 192 51 262 51 c 0
 331 51 382 93 401 113 c 0
 437 151 437 186 437 213 c 2
 437 248 l 1
EndSplineSet
Validated: 524289
EndChar

StartChar: aring
Encoding: 229 229 165
Width: 600
GlyphClass: 2
Flags: W
LayerCount: 2
Fore
SplineSet
413.004882812 700.997070312 m 0
 413.004882812 645.14453125 366.0390625 598.958007812 306.923828125 598.958007812 c 0
 247.950195312 598.958007812 200.920898438 645.100585938 200.920898438 701.065429688 c 0
 200.920898438 756.856445312 247.860351562 803.004882812 306.911132812 803.004882812 c 0
 366.012695312 803.004882812 413.004882812 756.836914062 413.004882812 700.997070312 c 0
259.9140625 701.774414062 m 0
 259.9140625 672.110351562 281.626953125 648.896484375 307.995117188 648.896484375 c 0
 334.032226562 648.896484375 356.03515625 671.836914062 356.03515625 702.068359375 c 0
 356.03515625 731.828125 334.33203125 755.01171875 308.022460938 755.01171875 c 0
 282 755.01171875 259.9140625 732.072265625 259.9140625 701.774414062 c 0
115 467 m 1
 164 518 233 541 304 541 c 0
 386 541 453 511 488 453 c 0
 512 412 514 371 514 328 c 2
 514 0 l 1
 435 0 l 1
 435 58 l 1
 377 11 310 -13 245 -13 c 0
 134 -13 67 59 67 137 c 0
 67 196 105 257 188 288 c 0
 250.962890625 311.1484375 326.786132812 312.004882812 399.591796875 312.004882812 c 0
 405.416992188 312.004882812 411.221679688 312 417 312 c 2
 434 312 l 1
 434 331 l 2
 434 359 434 393 417 422 c 0
 402 447 371 473 308 473 c 0
 259 473 199 459 156 414 c 1
 115 467 l 1
437 248 m 1
 418 248 l 2
 398.587890625 248 377.182617188 248.374023438 355.5 248.374023438 c 0
 315.747070312 248.374023438 275.05859375 247.118164062 244 240 c 0
 178 224 151 181 151 142 c 0
 151 95 192 51 262 51 c 0
 331 51 382 93 401 113 c 0
 437 151 437 186 437 213 c 2
 437 248 l 1
EndSplineSet
Validated: 524289
EndChar

StartChar: ae
Encoding: 230 230 166
Width: 600
GlyphClass: 2
Flags: W
LayerCount: 2
Fore
SplineSet
46 477 m 1
 79 518 129 541 180 541 c 0
 236 541 284 513 309 469 c 1
 335 514 382 541 431 541 c 0
 473 541 519 521 547 473 c 0
 578 423 578 363 578 311 c 2
 578 267 l 1
 337 257 l 1
 337 203 l 2
 337 175 338 152 349 127 c 0
 369 82 412 55 457 55 c 0
 491 55 522 70 542 97 c 1
 583 49 l 1
 550 10 502 -13 451 -13 c 0
 392 -13 337 17 305 67 c 1
 280 18 230 -13 174 -13 c 0
 91 -13 22 56 22 143 c 0
 22 203 55 267 128 300 c 0
 171 319 212 321 240 322 c 2
 266 323 l 1
 266 353 l 2
 266 374 265 394 258 413 c 0
 244 452 211 476 174 476 c 0
 142 476 108 457 87 426 c 1
 46 477 l 1
266 254 m 1
 241 253 l 2
 211 252 181 251 151 236 c 0
 114 217 96 181 96 148 c 0
 96 98 135 58 182 58 c 0
 214 58 246 76 259 112 c 0
 265 129 266 147 266 169 c 2
 266 210 l 1
 266 254 l 1
337 323 m 1
 511 330 l 1
 511 353 l 2
 511 377 511 401 500 425 c 0
 486 457 459 476 430 476 c 0
 401 476 376 458 359 433 c 0
 338 402 337 371 337 343 c 2
 337 323 l 1
EndSplineSet
Validated: 1
EndChar

StartChar: ccedilla
Encoding: 231 231 167
Width: 600
GlyphClass: 2
Flags: W
LayerCount: 2
Fore
SplineSet
313 0 m 1
 363 0 l 1
 357 -55 l 1
 376 -56 l 2
 391 -57 406 -58 421 -65 c 0
 443 -76 455 -96 455 -119 c 0
 455 -160 414 -205 329 -205 c 0
 285 -205 235 -192 192 -162 c 1
 221 -114 l 1
 257 -143 301 -155 336 -155 c 0
 381 -155 389 -137 389 -127 c 0
 389 -120 385 -112 376 -107 c 0
 364 -99 347 -99 334 -99 c 2
 300 -99 l 1
 313 0 l 1
539 442 m 1
 480 373 l 1
 470.825195312 379.923828125 477.125976562 390.80859375 472.703125 399.752929688 c 0
 469.633789062 405.959960938 426.1640625 469.07421875 335.780273438 469.07421875 c 0
 238.50390625 469.07421875 160.96875 393.767578125 160.96875 273.125976562 c 0
 160.96875 149.419921875 239.599609375 62.978515625 342.755859375 62.978515625 c 0
 395.810546875 62.978515625 447.208984375 86.443359375 483 127 c 1
 531 71 l 1
 480.515625 16.5810546875 409.6875 -13.0009765625 335.78125 -13.0009765625 c 0
 186.047851562 -13.0009765625 75 104.891601562 75 264.508789062 c 0
 75 423.379882812 185.475585938 540.028320312 341.05078125 540.028320312 c 0
 426.1796875 540.028320312 497.315429688 503.102539062 539 442 c 1
EndSplineSet
Validated: 524293
EndChar

StartChar: egrave
Encoding: 232 232 168
Width: 600
GlyphClass: 2
Flags: W
LayerCount: 2
Fore
SplineSet
292 810 m 1
 394 640 l 1
 336 605 l 1
 219 761 l 1
 292 810 l 1
310 542 m 0
 396 542 495 496 519 354 c 0
 522.846679688 334.125976562 524.637695312 313.018554688 524.637695312 290.942382812 c 0
 524.637695312 278.583007812 524.077148438 265.919921875 523 253 c 1
 147 253 l 1
 154 94 256 55 327 55 c 0
 380 55 429 76 464 115 c 1
 510 70 l 1
 465 16 396 -12 320 -12 c 0
 177 -12 66 82 66 259 c 0
 66 452 183 542 310 542 c 0
150 317 m 1
 441 317 l 1
 441.720703125 323.201171875 442.073242188 329.344726562 442.073242188 335.408203125 c 0
 442.073242188 413.42578125 383.798828125 478 304 478 c 0
 247 478 166 442 150 317 c 1
EndSplineSet
Validated: 524289
EndChar

StartChar: eacute
Encoding: 233 233 169
Width: 600
GlyphClass: 2
Flags: W
LayerCount: 2
Fore
SplineSet
348 810 m 1
 421 761 l 1
 304 605 l 1
 246 640 l 1
 348 810 l 1
310 542 m 0
 396 542 495 496 519 354 c 0
 522.846679688 334.125976562 524.637695312 313.018554688 524.637695312 290.942382812 c 0
 524.637695312 278.583007812 524.077148438 265.919921875 523 253 c 1
 147 253 l 1
 154 94 256 55 327 55 c 0
 380 55 429 76 464 115 c 1
 510 70 l 1
 465 16 396 -12 320 -12 c 0
 177 -12 66 82 66 259 c 0
 66 452 183 542 310 542 c 0
150 317 m 1
 441 317 l 1
 441.720703125 323.201171875 442.073242188 329.344726562 442.073242188 335.408203125 c 0
 442.073242188 413.42578125 383.798828125 478 304 478 c 0
 247 478 166 442 150 317 c 1
EndSplineSet
Validated: 524289
EndChar

StartChar: ecircumflex
Encoding: 234 234 170
Width: 600
GlyphClass: 2
Flags: W
LayerCount: 2
Fore
SplineSet
165 631 m 1
 294 794 l 1
 319 794 l 1
 447 630 l 1
 393 590 l 1
 303 709 l 1
 209 591 l 1
 165 631 l 1
310 542 m 0
 396 542 495 496 519 354 c 0
 522.846679688 334.125976562 524.637695312 313.018554688 524.637695312 290.942382812 c 0
 524.637695312 278.583007812 524.077148438 265.919921875 523 253 c 1
 147 253 l 1
 154 94 256 55 327 55 c 0
 380 55 429 76 464 115 c 1
 510 70 l 1
 465 16 396 -12 320 -12 c 0
 177 -12 66 82 66 259 c 0
 66 452 183 542 310 542 c 0
150 317 m 1
 441 317 l 1
 441.720703125 323.201171875 442.073242188 329.344726562 442.073242188 335.408203125 c 0
 442.073242188 413.42578125 383.798828125 478 304 478 c 0
 247 478 166 442 150 317 c 1
EndSplineSet
Validated: 524289
EndChar

StartChar: edieresis
Encoding: 235 235 171
Width: 600
GlyphClass: 2
Flags: W
LayerCount: 2
Fore
SplineSet
259.018554688 711.498046875 m 0
 259.018554688 679.2109375 232.7890625 652.981445312 200.501953125 652.981445312 c 0
 168.211914062 652.981445312 141.981445312 679.208984375 141.981445312 711.499023438 c 0
 141.981445312 743.7890625 168.209960938 770.018554688 200.5 770.018554688 c 0
 232.790039062 770.018554688 259.018554688 743.7890625 259.018554688 711.498046875 c 0
465.001953125 711.51171875 m 0
 465.001953125 679.16796875 438.956054688 652.991210938 407.004882812 652.991210938 c 0
 375.060546875 652.991210938 348.998046875 679.155273438 348.998046875 711.513671875 c 0
 348.998046875 743.862304688 375.051757812 770.03515625 407.0078125 770.03515625 c 0
 438.935546875 770.03515625 465.001953125 743.876953125 465.001953125 711.51171875 c 0
310 542 m 0
 396 542 495 496 519 354 c 0
 522.846679688 334.125976562 524.637695312 313.018554688 524.637695312 290.942382812 c 0
 524.637695312 278.583007812 524.077148438 265.919921875 523 253 c 1
 147 253 l 1
 154 94 256 55 327 55 c 0
 380 55 429 76 464 115 c 1
 510 70 l 1
 465 16 396 -12 320 -12 c 0
 177 -12 66 82 66 259 c 0
 66 452 183 542 310 542 c 0
150 317 m 1
 441 317 l 1
 441.720703125 323.201171875 442.073242188 329.344726562 442.073242188 335.408203125 c 0
 442.073242188 413.42578125 383.798828125 478 304 478 c 0
 247 478 166 442 150 317 c 1
EndSplineSet
Validated: 524289
EndChar

StartChar: igrave
Encoding: 236 236 172
Width: 600
GlyphClass: 2
Flags: W
LayerCount: 2
Fore
SplineSet
242 810 m 1
 344 640 l 1
 286 605 l 1
 169 761 l 1
 242 810 l 1
133 530 m 1
 345 530 l 1
 345 67 l 1
 469 67 l 1
 469 0 l 1
 126 0 l 1
 126 67 l 1
 261 67 l 1
 261 462 l 1
 133 462 l 1
 133 530 l 1
EndSplineSet
Validated: 1
EndChar

StartChar: iacute
Encoding: 237 237 173
Width: 600
GlyphClass: 2
Flags: W
LayerCount: 2
Fore
SplineSet
348 810 m 1
 421 761 l 1
 304 605 l 1
 246 640 l 1
 348 810 l 1
133 530 m 1
 345 530 l 1
 345 67 l 1
 469 67 l 1
 469 0 l 1
 126 0 l 1
 126 67 l 1
 261 67 l 1
 261 462 l 1
 133 462 l 1
 133 530 l 1
EndSplineSet
Validated: 1
EndChar

StartChar: icircumflex
Encoding: 238 238 174
Width: 600
GlyphClass: 2
Flags: W
LayerCount: 2
Fore
SplineSet
151 631 m 1
 280 794 l 1
 305 794 l 1
 433 630 l 1
 379 590 l 1
 289 709 l 1
 195 591 l 1
 151 631 l 1
133 530 m 1
 345 530 l 1
 345 67 l 1
 469 67 l 1
 469 0 l 1
 126 0 l 1
 126 67 l 1
 261 67 l 1
 261 462 l 1
 133 462 l 1
 133 530 l 1
EndSplineSet
Validated: 1
EndChar

StartChar: idieresis
Encoding: 239 239 175
Width: 600
GlyphClass: 2
Flags: W
LayerCount: 2
Fore
SplineSet
255.018554688 711.498046875 m 0
 255.018554688 679.2109375 228.7890625 652.981445312 196.501953125 652.981445312 c 0
 164.211914062 652.981445312 137.981445312 679.208984375 137.981445312 711.499023438 c 0
 137.981445312 743.7890625 164.209960938 770.018554688 196.5 770.018554688 c 0
 228.790039062 770.018554688 255.018554688 743.7890625 255.018554688 711.498046875 c 0
461.001953125 711.51171875 m 0
 461.001953125 679.16796875 434.956054688 652.991210938 403.004882812 652.991210938 c 0
 371.060546875 652.991210938 344.998046875 679.155273438 344.998046875 711.513671875 c 0
 344.998046875 743.862304688 371.051757812 770.03515625 403.0078125 770.03515625 c 0
 434.935546875 770.03515625 461.001953125 743.876953125 461.001953125 711.51171875 c 0
133 530 m 1
 345 530 l 1
 345 67 l 1
 469 67 l 1
 469 0 l 1
 126 0 l 1
 126 67 l 1
 261 67 l 1
 261 462 l 1
 133 462 l 1
 133 530 l 1
EndSplineSet
Validated: 524289
EndChar

StartChar: eth
Encoding: 240 240 176
Width: 600
GlyphClass: 2
Flags: W
LayerCount: 2
Fore
SplineSet
305.227539062 470.010742188 m 0
 226.95703125 470.010742188 144.997070312 405.543945312 144.997070312 269.224609375 c 0
 144.997070312 134.4765625 222.953125 57.9970703125 306.09765625 57.9970703125 c 0
 371.358398438 57.9970703125 459.001953125 107.826171875 459.001953125 268.7578125 c 0
 459.001953125 429.626953125 365.392578125 470.010742188 305.227539062 470.010742188 c 0
411.850585938 660.892578125 m 1
 482.806640625 580.388671875 543.3203125 462.26953125 543.3203125 293.321289062 c 0
 543.3203125 230.904296875 536.10546875 156.905273438 498.4921875 94.525390625 c 0
 455.935546875 23.947265625 383.680664062 -14.005859375 306.6875 -14.005859375 c 0
 172.73828125 -14.005859375 56.78125 98.759765625 56.78125 258.020507812 c 0
 56.78125 417.046875 169.436523438 541.310546875 298.020507812 541.310546875 c 0
 351.946289062 541.310546875 401.983398438 518.8828125 437.001953125 481.000976562 c 1
 413.6796875 540.163085938 379.783203125 593.874023438 337.518554688 639.8203125 c 1
 190.001953125 598.000976562 l 1
 169.001953125 653.000976562 l 1
 289.258789062 685.866210938 l 1
 253.709960938 715.61328125 213.991210938 740.638671875 171.001953125 760.001953125 c 1
 265.001953125 779.001953125 l 1
 294.810546875 762.217773438 330.446289062 738.684570312 366.106445312 706.868164062 c 1
 491.000976562 741.000976562 l 1
 511.000976562 689.000976562 l 1
 411.850585938 660.892578125 l 1
EndSplineSet
Validated: 524289
EndChar

StartChar: ntilde
Encoding: 241 241 177
Width: 600
GlyphClass: 2
Flags: W
LayerCount: 2
Fore
SplineSet
161 646 m 1
 109 683 l 1
 151.860351562 750.836914062 194.853515625 783.267578125 240.029296875 783.267578125 c 0
 286.862304688 783.267578125 317.969726562 749.067382812 332.861328125 733.549804688 c 0
 351.641601562 713.978515625 369.041015625 696.9296875 390.658203125 696.9296875 c 0
 419.237304688 696.9296875 432.798828125 723.991210938 458 758 c 1
 501 712 l 1
 460.944335938 662.139648438 429.389648438 629.75390625 386.650390625 629.75390625 c 0
 319.263671875 629.75390625 287.883789062 717.431640625 236.84375 717.431640625 c 0
 206.153320312 717.431640625 188.762695312 690.786132812 161 646 c 1
89 0 m 1
 89 529 l 1
 174 529 l 1
 174 436 l 1
 212.87109375 495.001953125 278.120117188 542.002929688 349.95703125 542.002929688 c 0
 410.28125 542.002929688 464.543945312 508.12890625 490.899414062 448.568359375 c 0
 509.728515625 406.013671875 510 362.333984375 510 321 c 2
 510 0 l 1
 428 0 l 1
 428 319 l 2
 428 356.392578125 427.76171875 401.823242188 399.110351562 436.060546875 c 0
 380.096679688 458.78125 353.908203125 469.580078125 327.340820312 469.580078125 c 0
 271.362304688 469.580078125 220.490234375 422.787109375 200.307617188 395.892578125 c 0
 178.287109375 366.549804688 174 340.651367188 174 305 c 2
 174 0 l 1
 89 0 l 1
EndSplineSet
Validated: 524289
EndChar

StartChar: ograve
Encoding: 242 242 178
Width: 600
GlyphClass: 2
Flags: W
LayerCount: 2
Fore
SplineSet
292 810 m 1
 394 640 l 1
 336 605 l 1
 219 761 l 1
 292 810 l 1
543.11328125 262.303710938 m 0
 543.11328125 86.8046875 430.326171875 -14 304.96875 -14 c 0
 171.547851562 -14 56.8681640625 99.5322265625 56.8681640625 260.578125 c 0
 56.8681640625 424.139648438 172.530273438 541.004882812 307.440429688 541.004882812 c 0
 427.750976562 541.004882812 543.11328125 445.083984375 543.11328125 262.303710938 c 0
301.7578125 470.102539062 m 0
 220.794921875 470.102539062 144.985351562 397.575195312 144.985351562 267.805664062 c 0
 144.985351562 137.224609375 221.249023438 57.9931640625 305.614257812 57.9931640625 c 0
 382.883789062 57.9931640625 459.166992188 125.599609375 459.166992188 258.84375 c 0
 459.166992188 404.202148438 378.127929688 470.102539062 301.7578125 470.102539062 c 0
EndSplineSet
Validated: 524289
EndChar

StartChar: oacute
Encoding: 243 243 179
Width: 600
GlyphClass: 2
Flags: W
LayerCount: 2
Fore
SplineSet
348 810 m 1
 421 761 l 1
 304 605 l 1
 246 640 l 1
 348 810 l 1
543.11328125 262.303710938 m 0
 543.11328125 86.8046875 430.326171875 -14 304.96875 -14 c 0
 171.547851562 -14 56.8681640625 99.5322265625 56.8681640625 260.578125 c 0
 56.8681640625 424.139648438 172.530273438 541.004882812 307.440429688 541.004882812 c 0
 427.750976562 541.004882812 543.11328125 445.083984375 543.11328125 262.303710938 c 0
301.7578125 470.102539062 m 0
 220.794921875 470.102539062 144.985351562 397.575195312 144.985351562 267.805664062 c 0
 144.985351562 137.224609375 221.249023438 57.9931640625 305.614257812 57.9931640625 c 0
 382.883789062 57.9931640625 459.166992188 125.599609375 459.166992188 258.84375 c 0
 459.166992188 404.202148438 378.127929688 470.102539062 301.7578125 470.102539062 c 0
EndSplineSet
Validated: 524289
EndChar

StartChar: ocircumflex
Encoding: 244 244 180
Width: 600
GlyphClass: 2
Flags: W
LayerCount: 2
Fore
SplineSet
165 631 m 1
 294 794 l 1
 319 794 l 1
 447 630 l 1
 393 590 l 1
 303 709 l 1
 209 591 l 1
 165 631 l 1
543.11328125 262.303710938 m 0
 543.11328125 86.8046875 430.326171875 -14 304.96875 -14 c 0
 171.547851562 -14 56.8681640625 99.5322265625 56.8681640625 260.578125 c 0
 56.8681640625 424.139648438 172.530273438 541.004882812 307.440429688 541.004882812 c 0
 427.750976562 541.004882812 543.11328125 445.083984375 543.11328125 262.303710938 c 0
301.7578125 470.102539062 m 0
 220.794921875 470.102539062 144.985351562 397.575195312 144.985351562 267.805664062 c 0
 144.985351562 137.224609375 221.249023438 57.9931640625 305.614257812 57.9931640625 c 0
 382.883789062 57.9931640625 459.166992188 125.599609375 459.166992188 258.84375 c 0
 459.166992188 404.202148438 378.127929688 470.102539062 301.7578125 470.102539062 c 0
EndSplineSet
Validated: 524289
EndChar

StartChar: otilde
Encoding: 245 245 181
Width: 600
GlyphClass: 2
Flags: W
LayerCount: 2
Fore
SplineSet
167 646 m 1
 115 683 l 1
 157.860351562 750.836914062 200.853515625 783.267578125 246.029296875 783.267578125 c 0
 292.862304688 783.267578125 323.969726562 749.067382812 338.861328125 733.549804688 c 0
 357.641601562 713.978515625 375.041015625 696.9296875 396.658203125 696.9296875 c 0
 425.237304688 696.9296875 438.798828125 723.991210938 464 758 c 1
 507 712 l 1
 466.944335938 662.139648438 435.389648438 629.75390625 392.650390625 629.75390625 c 0
 325.263671875 629.75390625 293.883789062 717.431640625 242.84375 717.431640625 c 0
 212.153320312 717.431640625 194.762695312 690.786132812 167 646 c 1
543.11328125 262.303710938 m 0
 543.11328125 86.8046875 430.326171875 -14 304.96875 -14 c 0
 171.547851562 -14 56.8681640625 99.5322265625 56.8681640625 260.578125 c 0
 56.8681640625 424.139648438 172.530273438 541.004882812 307.440429688 541.004882812 c 0
 427.750976562 541.004882812 543.11328125 445.083984375 543.11328125 262.303710938 c 0
301.7578125 470.102539062 m 0
 220.794921875 470.102539062 144.985351562 397.575195312 144.985351562 267.805664062 c 0
 144.985351562 137.224609375 221.249023438 57.9931640625 305.614257812 57.9931640625 c 0
 382.883789062 57.9931640625 459.166992188 125.599609375 459.166992188 258.84375 c 0
 459.166992188 404.202148438 378.127929688 470.102539062 301.7578125 470.102539062 c 0
EndSplineSet
Validated: 524289
EndChar

StartChar: odieresis
Encoding: 246 246 182
Width: 600
GlyphClass: 2
Flags: W
LayerCount: 2
Fore
SplineSet
257.018554688 711.498046875 m 0
 257.018554688 679.2109375 230.7890625 652.981445312 198.501953125 652.981445312 c 0
 166.211914062 652.981445312 139.981445312 679.208984375 139.981445312 711.499023438 c 0
 139.981445312 743.7890625 166.209960938 770.018554688 198.5 770.018554688 c 0
 230.790039062 770.018554688 257.018554688 743.7890625 257.018554688 711.498046875 c 0
463.001953125 711.51171875 m 0
 463.001953125 679.16796875 436.956054688 652.991210938 405.004882812 652.991210938 c 0
 373.060546875 652.991210938 346.998046875 679.155273438 346.998046875 711.513671875 c 0
 346.998046875 743.862304688 373.051757812 770.03515625 405.0078125 770.03515625 c 0
 436.935546875 770.03515625 463.001953125 743.876953125 463.001953125 711.51171875 c 0
543.11328125 262.303710938 m 0
 543.11328125 86.8046875 430.326171875 -14 304.96875 -14 c 0
 171.547851562 -14 56.8681640625 99.5322265625 56.8681640625 260.578125 c 0
 56.8681640625 424.139648438 172.530273438 541.004882812 307.440429688 541.004882812 c 0
 427.750976562 541.004882812 543.11328125 445.083984375 543.11328125 262.303710938 c 0
301.7578125 470.102539062 m 0
 220.794921875 470.102539062 144.985351562 397.575195312 144.985351562 267.805664062 c 0
 144.985351562 137.224609375 221.249023438 57.9931640625 305.614257812 57.9931640625 c 0
 382.883789062 57.9931640625 459.166992188 125.599609375 459.166992188 258.84375 c 0
 459.166992188 404.202148438 378.127929688 470.102539062 301.7578125 470.102539062 c 0
EndSplineSet
Validated: 524289
EndChar

StartChar: divide
Encoding: 247 247 183
Width: 600
GlyphClass: 2
Flags: W
LayerCount: 2
Fore
SplineSet
92 403 m 1
 509 403 l 1
 509 326 l 1
 92 326 l 1
 92 403 l 1
358 540.9921875 m 0
 358 512.296875 334.6953125 488.971679688 305.98046875 488.971679688 c 0
 277.279296875 488.971679688 253.961914062 512.2890625 253.961914062 540.990234375 c 0
 253.961914062 569.692382812 277.27734375 593.010742188 305.98046875 593.010742188 c 0
 334.693359375 593.010742188 358 569.686523438 358 540.9921875 c 0
358.009765625 183.993164062 m 0
 358.009765625 155.275390625 334.681640625 131.943359375 305.963867188 131.943359375 c 0
 277.243164062 131.943359375 253.913085938 155.271484375 253.913085938 183.9921875 c 0
 253.913085938 212.711914062 277.2421875 236.040039062 305.962890625 236.040039062 c 0
 334.6796875 236.040039062 358.009765625 212.709960938 358.009765625 183.993164062 c 0
EndSplineSet
Validated: 524289
EndChar

StartChar: oslash
Encoding: 248 248 184
Width: 600
GlyphClass: 2
Flags: W
LayerCount: 2
Fore
SplineSet
301.7578125 470.102539062 m 0
 220.794921875 470.102539062 144.985351562 397.57421875 144.985351562 267.805664062 c 0
 144.985351562 210.231445312 159.811523438 162.639648438 183.620117188 127.419921875 c 1
 362.111328125 455.84375 l 1
 342.740234375 465.434570312 322.083007812 470.102539062 301.7578125 470.102539062 c 0
543.11328125 262.303710938 m 0
 543.11328125 86.8037109375 430.326171875 -14 304.96875 -14 c 0
 267.108398438 -14 230.756835938 -4.8583984375 198.106445312 11.9169921875 c 1
 150.999023438 -74 l 1
 90.9990234375 -43 l 1
 142.31640625 51.423828125 l 1
 90.4091796875 100.283203125 56.8671875 173.482421875 56.8671875 260.578125 c 0
 56.8671875 424.139648438 172.529296875 541.004882812 307.439453125 541.004882812 c 0
 338.594726562 541.004882812 369.41796875 534.573242188 397.9921875 521.866210938 c 1
 441 601 l 1
 503 568 l 1
 456.732421875 483.61328125 l 1
 508.189453125 437.145507812 543.11328125 362.872070312 543.11328125 262.303710938 c 0
416.34375 409.94921875 m 1
 234.443359375 78.1884765625 l 1
 256.267578125 64.9677734375 280.584960938 57.9931640625 305.615234375 57.9931640625 c 0
 382.884765625 57.9931640625 459.16796875 125.600585938 459.16796875 258.844726562 c 0
 459.16796875 325.471679688 442.141601562 375.404296875 416.34375 409.94921875 c 1
EndSplineSet
Validated: 524289
EndChar

StartChar: ugrave
Encoding: 249 249 185
Width: 600
GlyphClass: 2
Flags: W
LayerCount: 2
Fore
SplineSet
292 810 m 1
 394 640 l 1
 336 605 l 1
 219 761 l 1
 292 810 l 1
83 529 m 1
 167 529 l 1
 167 234 l 2
 167 198 167 157 186 120 c 0
 207 78 245 55 287 55 c 0
 338 55 385 89 409 133 c 0
 427 166 430 197 430 238 c 2
 430 529 l 1
 514 529 l 1
 514 48 l 2
 514 32 515 16 520 0 c 1
 432 0 l 1
 430 14 430 27 430 41 c 2
 431 81 l 1
 397 23 334 -13 268 -13 c 0
 199 -13 134 25 103 95 c 0
 82 141 82 188 82 234 c 2
 83 529 l 1
EndSplineSet
Validated: 1
EndChar

StartChar: uacute
Encoding: 250 250 186
Width: 600
GlyphClass: 2
Flags: W
LayerCount: 2
Fore
SplineSet
348 810 m 1
 421 761 l 1
 304 605 l 1
 246 640 l 1
 348 810 l 1
83 529 m 1
 167 529 l 1
 167 234 l 2
 167 198 167 157 186 120 c 0
 207 78 245 55 287 55 c 0
 338 55 385 89 409 133 c 0
 427 166 430 197 430 238 c 2
 430 529 l 1
 514 529 l 1
 514 48 l 2
 514 32 515 16 520 0 c 1
 432 0 l 1
 430 14 430 27 430 41 c 2
 431 81 l 1
 397 23 334 -13 268 -13 c 0
 199 -13 134 25 103 95 c 0
 82 141 82 188 82 234 c 2
 83 529 l 1
EndSplineSet
Validated: 1
EndChar

StartChar: ucircumflex
Encoding: 251 251 187
Width: 600
GlyphClass: 2
Flags: W
LayerCount: 2
Fore
SplineSet
165 631 m 1
 294 794 l 1
 319 794 l 1
 447 630 l 1
 393 590 l 1
 303 709 l 1
 209 591 l 1
 165 631 l 1
83 529 m 1
 167 529 l 1
 167 234 l 2
 167 198 167 157 186 120 c 0
 207 78 245 55 287 55 c 0
 338 55 385 89 409 133 c 0
 427 166 430 197 430 238 c 2
 430 529 l 1
 514 529 l 1
 514 48 l 2
 514 32 515 16 520 0 c 1
 432 0 l 1
 430 14 430 27 430 41 c 2
 431 81 l 1
 397 23 334 -13 268 -13 c 0
 199 -13 134 25 103 95 c 0
 82 141 82 188 82 234 c 2
 83 529 l 1
EndSplineSet
Validated: 1
EndChar

StartChar: udieresis
Encoding: 252 252 188
Width: 600
GlyphClass: 2
Flags: W
LayerCount: 2
Fore
SplineSet
257.018554688 711.498046875 m 0
 257.018554688 679.2109375 230.7890625 652.981445312 198.501953125 652.981445312 c 0
 166.211914062 652.981445312 139.981445312 679.208984375 139.981445312 711.499023438 c 0
 139.981445312 743.7890625 166.209960938 770.018554688 198.5 770.018554688 c 0
 230.790039062 770.018554688 257.018554688 743.7890625 257.018554688 711.498046875 c 0
463.001953125 711.51171875 m 0
 463.001953125 679.16796875 436.956054688 652.991210938 405.004882812 652.991210938 c 0
 373.060546875 652.991210938 346.998046875 679.155273438 346.998046875 711.513671875 c 0
 346.998046875 743.862304688 373.051757812 770.03515625 405.0078125 770.03515625 c 0
 436.935546875 770.03515625 463.001953125 743.876953125 463.001953125 711.51171875 c 0
83 529 m 1
 167 529 l 1
 167 234 l 2
 167 198 167 157 186 120 c 0
 207 78 245 55 287 55 c 0
 338 55 385 89 409 133 c 0
 427 166 430 197 430 238 c 2
 430 529 l 1
 514 529 l 1
 514 48 l 2
 514 32 515 16 520 0 c 1
 432 0 l 1
 430 14 430 27 430 41 c 2
 431 81 l 1
 397 23 334 -13 268 -13 c 0
 199 -13 134 25 103 95 c 0
 82 141 82 188 82 234 c 2
 83 529 l 1
EndSplineSet
Validated: 524289
EndChar

StartChar: yacute
Encoding: 253 253 189
Width: 600
GlyphClass: 2
Flags: W
LayerCount: 2
Fore
SplineSet
348 810 m 1
 421 761 l 1
 304 605 l 1
 246 640 l 1
 348 810 l 1
63 529 m 1
 167 529 l 1
 167.651367188 518.579101562 161.833007812 512.754882812 161.833007812 504.225585938 c 0
 161.833007812 500.852539062 162.694335938 498.287109375 164 495 c 2
 319 105 l 1
 420 389 l 2
 436.208984375 434.578125 451.254882812 481.532226562 460 530 c 1
 547 530 l 1
 531.43359375 478.243164062 513.03515625 427.412109375 494 377 c 2
 329 -60 l 2
 317.684570312 -89.966796875 306.504882812 -117.88671875 283.380859375 -143.905273438 c 0
 248.107421875 -183.592773438 198.5078125 -201.1796875 150.696289062 -201.1796875 c 0
 107.171875 -201.1796875 66.548828125 -186.250976562 36 -157 c 1
 79 -82 l 1
 85.8369140625 -87.3564453125 85.248046875 -95.083984375 88.240234375 -100.819335938 c 0
 91.1875 -106.46484375 111.209960938 -132.772460938 150.447265625 -132.772460938 c 0
 175.241210938 -132.772460938 202.435546875 -121.950195312 224.473632812 -98.482421875 c 0
 241.247070312 -80.62109375 251.822265625 -58.0556640625 261 -37 c 2
 278 2 l 1
 63 529 l 1
EndSplineSet
Validated: 524289
EndChar

StartChar: thorn
Encoding: 254 254 190
Width: 600
GlyphClass: 2
Flags: W
LayerCount: 2
Fore
SplineSet
80 770 m 1
 172 770 l 1
 172 768 l 2
 172 754 164 750 164 732 c 2
 164 448 l 1
 200 506 263 541 331 541 c 0
 435 541 546 458 546 271 c 0
 546 77 432 -14 324 -14 c 0
 260 -14 200 18 165 70 c 1
 165 -193 l 1
 80 -193 l 1
 80 770 l 1
301 470 m 0
 247 470 198 441 178 393 c 0
 166 366 164 334 164 289 c 0
 164 212 164 169 179 133 c 0
 200 85 250 60 300 60 c 0
 350 60 459 87 459 253 c 0
 459 446 347 470 301 470 c 0
EndSplineSet
Validated: 1
EndChar

StartChar: ydieresis
Encoding: 255 255 191
Width: 600
GlyphClass: 2
Flags: W
LayerCount: 2
Fore
SplineSet
257.018554688 711.498046875 m 0
 257.018554688 679.2109375 230.7890625 652.981445312 198.501953125 652.981445312 c 0
 166.211914062 652.981445312 139.981445312 679.208984375 139.981445312 711.499023438 c 0
 139.981445312 743.7890625 166.209960938 770.018554688 198.5 770.018554688 c 0
 230.790039062 770.018554688 257.018554688 743.7890625 257.018554688 711.498046875 c 0
463.001953125 711.51171875 m 0
 463.001953125 679.16796875 436.956054688 652.991210938 405.004882812 652.991210938 c 0
 373.060546875 652.991210938 346.998046875 679.155273438 346.998046875 711.513671875 c 0
 346.998046875 743.862304688 373.051757812 770.03515625 405.0078125 770.03515625 c 0
 436.935546875 770.03515625 463.001953125 743.876953125 463.001953125 711.51171875 c 0
63 529 m 1
 167 529 l 1
 167.651367188 518.579101562 161.833007812 512.754882812 161.833007812 504.225585938 c 0
 161.833007812 500.852539062 162.694335938 498.287109375 164 495 c 2
 319 105 l 1
 420 389 l 2
 436.208984375 434.578125 451.254882812 481.532226562 460 530 c 1
 547 530 l 1
 531.43359375 478.243164062 513.03515625 427.412109375 494 377 c 2
 329 -60 l 2
 317.684570312 -89.966796875 306.504882812 -117.88671875 283.380859375 -143.905273438 c 0
 248.107421875 -183.592773438 198.5078125 -201.1796875 150.696289062 -201.1796875 c 0
 107.171875 -201.1796875 66.548828125 -186.250976562 36 -157 c 1
 79 -82 l 1
 85.8369140625 -87.3564453125 85.248046875 -95.083984375 88.240234375 -100.819335938 c 0
 91.1875 -106.46484375 111.209960938 -132.772460938 150.447265625 -132.772460938 c 0
 175.241210938 -132.772460938 202.435546875 -121.950195312 224.473632812 -98.482421875 c 0
 241.247070312 -80.62109375 251.822265625 -58.0556640625 261 -37 c 2
 278 2 l 1
 63 529 l 1
EndSplineSet
Validated: 524289
EndChar

StartChar: Amacron
Encoding: 256 256 192
Width: 600
GlyphClass: 2
Flags: W
LayerCount: 2
Fore
SplineSet
153 917 m 1
 447 917 l 1
 447 852 l 1
 153 852 l 1
 153 917 l 1
27 -1 m 1
 282 735 l 1
 291 735 l 1
 570 0 l 1
 486 0 l 1
 406 211 l 1
 177 211 l 1
 107 -1 l 1
 27 -1 l 1
388 274 m 1
 286 549 l 1
 193 274 l 1
 388 274 l 1
EndSplineSet
Validated: 1
EndChar

StartChar: amacron
Encoding: 257 257 193
Width: 600
GlyphClass: 2
Flags: W
LayerCount: 2
Fore
SplineSet
153 720 m 1
 447 720 l 1
 447 655 l 1
 153 655 l 1
 153 720 l 1
115 467 m 1
 164 518 233 541 304 541 c 0
 386 541 453 511 488 453 c 0
 512 412 514 371 514 328 c 2
 514 0 l 1
 435 0 l 1
 435 58 l 1
 377 11 310 -13 245 -13 c 0
 134 -13 67 59 67 137 c 0
 67 196 105 257 188 288 c 0
 250.962890625 311.1484375 326.786132812 312.004882812 399.591796875 312.004882812 c 0
 405.416992188 312.004882812 411.221679688 312 417 312 c 2
 434 312 l 1
 434 331 l 2
 434 359 434 393 417 422 c 0
 402 447 371 473 308 473 c 0
 259 473 199 459 156 414 c 1
 115 467 l 1
437 248 m 1
 418 248 l 2
 398.587890625 248 377.182617188 248.374023438 355.5 248.374023438 c 0
 315.747070312 248.374023438 275.05859375 247.118164062 244 240 c 0
 178 224 151 181 151 142 c 0
 151 95 192 51 262 51 c 0
 331 51 382 93 401 113 c 0
 437 151 437 186 437 213 c 2
 437 248 l 1
EndSplineSet
Validated: 524289
EndChar

StartChar: Abreve
Encoding: 258 258 194
Width: 600
GlyphClass: 2
Flags: W
LayerCount: 2
Fore
SplineSet
158 909 m 1
 184.427734375 867.211914062 231.084960938 826.993164062 288.3203125 826.993164062 c 0
 336.637695312 826.993164062 386.466796875 856.856445312 426 908 c 1
 459 860 l 1
 419.784179688 806.837890625 358.514648438 766.983398438 288.498046875 766.983398438 c 0
 225.205078125 766.983398438 161.96484375 800.672851562 116 856 c 1
 158 909 l 1
27 -1 m 1
 282 735 l 1
 291 735 l 1
 570 0 l 1
 486 0 l 1
 406 211 l 1
 177 211 l 1
 107 -1 l 1
 27 -1 l 1
388 274 m 1
 286 549 l 1
 193 274 l 1
 388 274 l 1
EndSplineSet
Validated: 524289
EndChar

StartChar: abreve
Encoding: 259 259 195
Width: 600
GlyphClass: 2
Flags: W
LayerCount: 2
Fore
SplineSet
179 749 m 1
 205.427734375 707.211914062 252.084960938 666.993164062 309.3203125 666.993164062 c 0
 357.637695312 666.993164062 407.466796875 696.856445312 447 748 c 1
 480 700 l 1
 440.784179688 646.837890625 379.514648438 606.983398438 309.498046875 606.983398438 c 0
 246.205078125 606.983398438 182.96484375 640.672851562 137 696 c 1
 179 749 l 1
115 467 m 1
 164 518 233 541 304 541 c 0
 386 541 453 511 488 453 c 0
 512 412 514 371 514 328 c 2
 514 0 l 1
 435 0 l 1
 435 58 l 1
 377 11 310 -13 245 -13 c 0
 134 -13 67 59 67 137 c 0
 67 196 105 257 188 288 c 0
 250.962890625 311.1484375 326.786132812 312.004882812 399.591796875 312.004882812 c 0
 405.416992188 312.004882812 411.221679688 312 417 312 c 2
 434 312 l 1
 434 331 l 2
 434 359 434 393 417 422 c 0
 402 447 371 473 308 473 c 0
 259 473 199 459 156 414 c 1
 115 467 l 1
437 248 m 1
 418 248 l 2
 398.587890625 248 377.182617188 248.374023438 355.5 248.374023438 c 0
 315.747070312 248.374023438 275.05859375 247.118164062 244 240 c 0
 178 224 151 181 151 142 c 0
 151 95 192 51 262 51 c 0
 331 51 382 93 401 113 c 0
 437 151 437 186 437 213 c 2
 437 248 l 1
EndSplineSet
Validated: 524289
EndChar

StartChar: Aogonek
Encoding: 260 260 196
Width: 600
GlyphClass: 2
Flags: W
LayerCount: 2
Fore
SplineSet
494 0 m 1
 571 0 l 1
 532.041992188 -34.9921875 503.396484375 -66.5966796875 493.555664062 -77.740234375 c 0
 485.412109375 -86.96484375 474.047851562 -100.705078125 474.047851562 -117.841796875 c 0
 474.047851562 -135.639648438 486.848632812 -150.796875 507.947265625 -150.796875 c 0
 515.137695312 -150.796875 523.676757812 -149.114257812 535.857421875 -144.678710938 c 0
 553.95703125 -138.086914062 565.633789062 -130.111328125 573 -124 c 1
 573 -177 l 1
 550.280273438 -196.689453125 521.700195312 -204.001953125 492.900390625 -204.001953125 c 0
 432.858398438 -204.001953125 402.05078125 -171.745117188 402.05078125 -133.09375 c 0
 402.05078125 -95.76171875 433.961914062 -49.529296875 494 0 c 1
27 -1 m 1
 282 735 l 1
 291 735 l 1
 570 0 l 1
 486 0 l 1
 406 211 l 1
 177 211 l 1
 107 -1 l 1
 27 -1 l 1
388 274 m 1
 286 549 l 1
 193 274 l 1
 388 274 l 1
EndSplineSet
Validated: 524293
EndChar

StartChar: aogonek
Encoding: 261 261 197
Width: 600
GlyphClass: 2
Flags: W
LayerCount: 2
Fore
SplineSet
436 0 m 1
 513 0 l 1
 474.041992188 -34.9921875 445.396484375 -66.5966796875 435.555664062 -77.740234375 c 0
 427.412109375 -86.96484375 416.047851562 -100.705078125 416.047851562 -117.841796875 c 0
 416.047851562 -135.639648438 428.848632812 -150.796875 449.947265625 -150.796875 c 0
 457.137695312 -150.796875 465.676757812 -149.114257812 477.857421875 -144.678710938 c 0
 495.95703125 -138.086914062 507.633789062 -130.111328125 515 -124 c 1
 515 -177 l 1
 492.280273438 -196.689453125 463.700195312 -204.001953125 434.900390625 -204.001953125 c 0
 374.858398438 -204.001953125 344.05078125 -171.745117188 344.05078125 -133.09375 c 0
 344.05078125 -95.76171875 375.961914062 -49.529296875 436 0 c 1
115 467 m 1
 164 518 233 541 304 541 c 0
 386 541 453 511 488 453 c 0
 512 412 514 371 514 328 c 2
 514 0 l 1
 435 0 l 1
 435 58 l 1
 377 11 310 -13 245 -13 c 0
 134 -13 67 59 67 137 c 0
 67 196 105 257 188 288 c 0
 250.962890625 311.1484375 326.786132812 312.004882812 399.591796875 312.004882812 c 0
 405.416992188 312.004882812 411.221679688 312 417 312 c 2
 434 312 l 1
 434 331 l 2
 434 359 434 393 417 422 c 0
 402 447 371 473 308 473 c 0
 259 473 199 459 156 414 c 1
 115 467 l 1
437 248 m 1
 418 248 l 2
 398.587890625 248 377.182617188 248.374023438 355.5 248.374023438 c 0
 315.747070312 248.374023438 275.05859375 247.118164062 244 240 c 0
 178 224 151 181 151 142 c 0
 151 95 192 51 262 51 c 0
 331 51 382 93 401 113 c 0
 437 151 437 186 437 213 c 2
 437 248 l 1
EndSplineSet
Validated: 524293
EndChar

StartChar: Cacute
Encoding: 262 262 198
Width: 600
GlyphClass: 2
Flags: W
LayerCount: 2
Fore
SplineSet
367 917 m 1
 413 836 l 1
 217 765 l 1
 190 813 l 1
 367 917 l 1
331.618164062 728 m 0
 427.541992188 728 514.17578125 672.041992188 553 585 c 1
 476 547 l 1
 470.669921875 550.736328125 470.715820312 557.018554688 470.715820312 558.375 c 0
 470.715820312 561.256835938 471.20703125 564.141601562 471.20703125 567.015625 c 0
 471.20703125 572.403320312 469.515625 575.396484375 467.215820312 579.368164062 c 0
 438.075195312 629.69921875 385.397460938 663.16796875 328.881835938 663.16796875 c 0
 226.81640625 663.16796875 135.987304688 555.779296875 135.987304688 363.96875 c 0
 135.987304688 168.838867188 229.41796875 57.994140625 335.655273438 57.994140625 c 0
 392.317382812 57.994140625 449.702148438 90.884765625 483 146 c 1
 543 107 l 1
 497.694335938 32.978515625 417.216796875 -12.001953125 331.109375 -12.001953125 c 0
 212.177734375 -12.001953125 56.966796875 77.8505859375 56.966796875 356.806640625 c 0
 56.966796875 645.837890625 219.327148438 728 331.618164062 728 c 0
EndSplineSet
Validated: 524289
EndChar

StartChar: cacute
Encoding: 263 263 199
Width: 600
GlyphClass: 2
Flags: W
LayerCount: 2
Fore
SplineSet
348 810 m 1
 421 761 l 1
 304 605 l 1
 246 640 l 1
 348 810 l 1
539 442 m 1
 480 373 l 1
 470.825195312 379.923828125 477.125976562 390.80859375 472.703125 399.752929688 c 0
 469.633789062 405.959960938 426.1640625 469.07421875 335.780273438 469.07421875 c 0
 238.50390625 469.07421875 160.96875 393.767578125 160.96875 273.125976562 c 0
 160.96875 149.419921875 239.599609375 62.978515625 342.755859375 62.978515625 c 0
 395.810546875 62.978515625 447.208984375 86.443359375 483 127 c 1
 531 71 l 1
 480.515625 16.5810546875 409.6875 -13.0009765625 335.78125 -13.0009765625 c 0
 186.047851562 -13.0009765625 75 104.891601562 75 264.508789062 c 0
 75 423.379882812 185.475585938 540.028320312 341.05078125 540.028320312 c 0
 426.1796875 540.028320312 497.315429688 503.102539062 539 442 c 1
EndSplineSet
Validated: 524289
EndChar

StartChar: Ccircumflex
Encoding: 264 264 200
Width: 600
GlyphClass: 2
Flags: W
LayerCount: 2
Fore
SplineSet
141 802 m 1
 293 917 l 1
 318 917 l 1
 461 804 l 1
 423 760 l 1
 303 842 l 1
 174 763 l 1
 141 802 l 1
331.618164062 728 m 0
 427.541992188 728 514.17578125 672.041992188 553 585 c 1
 476 547 l 1
 470.669921875 550.736328125 470.715820312 557.018554688 470.715820312 558.375 c 0
 470.715820312 561.256835938 471.20703125 564.141601562 471.20703125 567.015625 c 0
 471.20703125 572.403320312 469.515625 575.396484375 467.215820312 579.368164062 c 0
 438.075195312 629.69921875 385.397460938 663.16796875 328.881835938 663.16796875 c 0
 226.81640625 663.16796875 135.987304688 555.779296875 135.987304688 363.96875 c 0
 135.987304688 168.838867188 229.41796875 57.994140625 335.655273438 57.994140625 c 0
 392.317382812 57.994140625 449.702148438 90.884765625 483 146 c 1
 543 107 l 1
 497.694335938 32.978515625 417.216796875 -12.001953125 331.109375 -12.001953125 c 0
 212.177734375 -12.001953125 56.966796875 77.8505859375 56.966796875 356.806640625 c 0
 56.966796875 645.837890625 219.327148438 728 331.618164062 728 c 0
EndSplineSet
Validated: 524289
EndChar

StartChar: ccircumflex
Encoding: 265 265 201
Width: 600
GlyphClass: 2
Flags: W
LayerCount: 2
Fore
SplineSet
165 631 m 1
 294 794 l 1
 319 794 l 1
 447 630 l 1
 393 590 l 1
 303 709 l 1
 209 591 l 1
 165 631 l 1
539 442 m 1
 480 373 l 1
 470.825195312 379.923828125 477.125976562 390.80859375 472.703125 399.752929688 c 0
 469.633789062 405.959960938 426.1640625 469.07421875 335.780273438 469.07421875 c 0
 238.50390625 469.07421875 160.96875 393.767578125 160.96875 273.125976562 c 0
 160.96875 149.419921875 239.599609375 62.978515625 342.755859375 62.978515625 c 0
 395.810546875 62.978515625 447.208984375 86.443359375 483 127 c 1
 531 71 l 1
 480.515625 16.5810546875 409.6875 -13.0009765625 335.78125 -13.0009765625 c 0
 186.047851562 -13.0009765625 75 104.891601562 75 264.508789062 c 0
 75 423.379882812 185.475585938 540.028320312 341.05078125 540.028320312 c 0
 426.1796875 540.028320312 497.315429688 503.102539062 539 442 c 1
EndSplineSet
Validated: 524289
EndChar

StartChar: Cdotaccent
Encoding: 266 266 202
Width: 600
GlyphClass: 2
Flags: W
LayerCount: 2
Fore
SplineSet
305.002929688 907 m 0
 338.170898438 907 365.018554688 880.280273438 365.018554688 847.493164062 c 0
 365.018554688 814.7265625 338.181640625 787.9921875 304.990234375 787.9921875 c 0
 271.818359375 787.9921875 244.981445312 814.715820312 244.981445312 847.486328125 c 0
 244.981445312 880.263671875 271.822265625 907 305.002929688 907 c 0
331.618164062 728 m 0
 427.541992188 728 514.17578125 672.041992188 553 585 c 1
 476 547 l 1
 470.669921875 550.736328125 470.715820312 557.018554688 470.715820312 558.375 c 0
 470.715820312 561.256835938 471.20703125 564.141601562 471.20703125 567.015625 c 0
 471.20703125 572.403320312 469.515625 575.396484375 467.215820312 579.368164062 c 0
 438.075195312 629.69921875 385.397460938 663.16796875 328.881835938 663.16796875 c 0
 226.81640625 663.16796875 135.987304688 555.779296875 135.987304688 363.96875 c 0
 135.987304688 168.838867188 229.41796875 57.994140625 335.655273438 57.994140625 c 0
 392.317382812 57.994140625 449.702148438 90.884765625 483 146 c 1
 543 107 l 1
 497.694335938 32.978515625 417.216796875 -12.001953125 331.109375 -12.001953125 c 0
 212.177734375 -12.001953125 56.966796875 77.8505859375 56.966796875 356.806640625 c 0
 56.966796875 645.837890625 219.327148438 728 331.618164062 728 c 0
EndSplineSet
Validated: 524289
EndChar

StartChar: cdotaccent
Encoding: 267 267 203
Width: 600
GlyphClass: 2
Flags: W
LayerCount: 2
Fore
SplineSet
305.002929688 760 m 0
 338.170898438 760 365.018554688 733.280273438 365.018554688 700.493164062 c 0
 365.018554688 667.7265625 338.181640625 640.9921875 304.990234375 640.9921875 c 0
 271.818359375 640.9921875 244.981445312 667.715820312 244.981445312 700.486328125 c 0
 244.981445312 733.263671875 271.822265625 760 305.002929688 760 c 0
539 442 m 1
 480 373 l 1
 470.825195312 379.923828125 477.125976562 390.80859375 472.703125 399.752929688 c 0
 469.633789062 405.959960938 426.1640625 469.07421875 335.780273438 469.07421875 c 0
 238.50390625 469.07421875 160.96875 393.767578125 160.96875 273.125976562 c 0
 160.96875 149.419921875 239.599609375 62.978515625 342.755859375 62.978515625 c 0
 395.810546875 62.978515625 447.208984375 86.443359375 483 127 c 1
 531 71 l 1
 480.515625 16.5810546875 409.6875 -13.0009765625 335.78125 -13.0009765625 c 0
 186.047851562 -13.0009765625 75 104.891601562 75 264.508789062 c 0
 75 423.379882812 185.475585938 540.028320312 341.05078125 540.028320312 c 0
 426.1796875 540.028320312 497.315429688 503.102539062 539 442 c 1
EndSplineSet
Validated: 524289
EndChar

StartChar: Ccaron
Encoding: 268 268 204
Width: 600
GlyphClass: 2
Flags: W
LayerCount: 2
Fore
SplineSet
489 875 m 1
 337 760 l 1
 312 760 l 1
 169 873 l 1
 207 917 l 1
 327 835 l 1
 456 914 l 1
 489 875 l 1
331.618164062 728 m 0
 427.541992188 728 514.17578125 672.041992188 553 585 c 1
 476 547 l 1
 470.669921875 550.736328125 470.715820312 557.018554688 470.715820312 558.375 c 0
 470.715820312 561.256835938 471.20703125 564.141601562 471.20703125 567.015625 c 0
 471.20703125 572.403320312 469.515625 575.396484375 467.215820312 579.368164062 c 0
 438.075195312 629.69921875 385.397460938 663.16796875 328.881835938 663.16796875 c 0
 226.81640625 663.16796875 135.987304688 555.779296875 135.987304688 363.96875 c 0
 135.987304688 168.838867188 229.41796875 57.994140625 335.655273438 57.994140625 c 0
 392.317382812 57.994140625 449.702148438 90.884765625 483 146 c 1
 543 107 l 1
 497.694335938 32.978515625 417.216796875 -12.001953125 331.109375 -12.001953125 c 0
 212.177734375 -12.001953125 56.966796875 77.8505859375 56.966796875 356.806640625 c 0
 56.966796875 645.837890625 219.327148438 728 331.618164062 728 c 0
EndSplineSet
Validated: 524289
EndChar

StartChar: ccaron
Encoding: 269 269 205
Width: 600
GlyphClass: 2
Flags: W
LayerCount: 2
Fore
SplineSet
539 442 m 1
 480 373 l 1
 470.825195312 379.923828125 477.125976562 390.80859375 472.703125 399.752929688 c 0
 469.633789062 405.959960938 426.1640625 469.07421875 335.780273438 469.07421875 c 0
 238.50390625 469.07421875 160.96875 393.767578125 160.96875 273.125976562 c 0
 160.96875 149.419921875 239.599609375 62.978515625 342.755859375 62.978515625 c 0
 395.810546875 62.978515625 447.208984375 86.443359375 483 127 c 1
 531 71 l 1
 480.515625 16.5810546875 409.6875 -13.0009765625 335.78125 -13.0009765625 c 0
 186.047851562 -13.0009765625 75 104.891601562 75 264.508789062 c 0
 75 423.379882812 185.475585938 540.028320312 341.05078125 540.028320312 c 0
 426.1796875 540.028320312 497.315429688 503.102539062 539 442 c 1
447 763 m 1
 318 600 l 1
 293 600 l 1
 165 764 l 1
 219 804 l 1
 309 685 l 1
 403 803 l 1
 447 763 l 1
EndSplineSet
Validated: 524289
EndChar

StartChar: Dcaron
Encoding: 270 270 206
Width: 600
GlyphClass: 2
Flags: W
LayerCount: 2
Fore
SplineSet
440 875 m 1
 288 760 l 1
 263 760 l 1
 120 873 l 1
 158 917 l 1
 278 835 l 1
 407 914 l 1
 440 875 l 1
72 722 m 1
 241 722 l 2
 304.676757812 722 356.64453125 717.43359375 409.103515625 683.299804688 c 0
 501.965820312 622.875976562 543.180664062 501.212890625 543.180664062 362.19921875 c 0
 543.180664062 204.202148438 486.700195312 81.193359375 383.192382812 27.978515625 c 0
 332.291992188 1.810546875 284.390625 -1 227 -1 c 2
 72 -1 l 1
 72 722 l 1
149 653 m 1
 149 63 l 1
 223 63 l 2
 268.397460938 63 312.737304688 65.01953125 358.001953125 95.5625 c 0
 415.690429688 134.48828125 461.3515625 213.696289062 461.3515625 351.331054688 c 0
 461.3515625 455.016601562 438.9453125 557.739257812 371.849609375 613.3515625 c 0
 327.165039062 650.389648438 281.491210938 653 236 653 c 2
 149 653 l 1
EndSplineSet
Validated: 524289
EndChar

StartChar: dcaron
Encoding: 271 271 207
Width: 600
GlyphClass: 2
Flags: W
LayerCount: 2
Fore
SplineSet
368 452 m 1
 368 771 l 1
 447 771 l 1
 447 49 l 2
 447 32.9912109375 447.786132812 16.2109375 452 0 c 1
 369 -0 l 1
 364.7578125 12.84765625 364 26.4228515625 364 39 c 2
 364 85 l 1
 331.671875 29.4833984375 274.150390625 -12.013671875 209.491210938 -12.013671875 c 0
 97.8564453125 -12.013671875 9.998046875 105.708007812 9.998046875 268.875 c 0
 9.998046875 443.625 112.896484375 543.229492188 220.225585938 543.229492188 c 0
 283.502929688 543.229492188 340.553710938 507.905273438 368 452 c 1
224.35546875 475.159179688 m 0
 149.202148438 475.159179688 90.9326171875 392.788085938 90.9326171875 278.778320312 c 0
 90.9326171875 171.017578125 142.046875 61.880859375 227.749023438 61.880859375 c 0
 273.538085938 61.880859375 313.654296875 94.3154296875 335.296875 129.689453125 c 0
 358.192382812 167.108398438 361.3125 207.25 361.3125 255.021484375 c 0
 361.3125 325.70703125 359.8359375 363.1171875 343.568359375 397.26953125 c 0
 320.504882812 445.688476562 266.849609375 475.159179688 224.35546875 475.159179688 c 0
597.837890625 700.66015625 m 0
 597.837890625 652.396484375 563.880859375 591.946289062 499.31640625 526.391601562 c 1
 467.31640625 554.391601562 l 1
 489.30078125 574.611328125 504.876953125 597.168945312 513.931640625 612.044921875 c 0
 518.458007812 619.481445312 527.657226562 635.325195312 527.657226562 650.665039062 c 0
 527.657226562 669.75 513.997070312 678.28515625 505.943359375 683.641601562 c 0
 497.75390625 689.088867188 480.094726562 699.747070312 480.094726562 724.673828125 c 0
 480.094726562 752.671875 502.944335938 777.536132812 533.454101562 777.536132812 c 0
 566.42578125 777.536132812 597.837890625 748.098632812 597.837890625 700.66015625 c 0
EndSplineSet
Validated: 524289
EndChar

StartChar: Dcroat
Encoding: 272 272 208
Width: 600
GlyphClass: 2
Flags: W
LayerCount: 2
Fore
SplineSet
101 722 m 1
 263 722 l 2
 326 722 376 716 426 679 c 0
 513 615 550 488 550 365 c 0
 550 211 491 73 380 21 c 0
 339 2 300 -1 249 -1 c 2
 101 -1 l 1
 101 349 l 1
 45 349 l 1
 45 416 l 1
 101 416 l 1
 101 722 l 1
176 349 m 1
 176 66 l 1
 245 66 l 2
 286 66 325 68 366 96 c 0
 435 143 472 241 472 355 c 0
 472 436 455 525 411 585 c 0
 362 652 303 654 258 654 c 2
 176 654 l 1
 176 416 l 1
 297 416 l 1
 297 349 l 1
 176 349 l 1
EndSplineSet
Validated: 1
EndChar

StartChar: dcroat
Encoding: 273 273 209
Width: 600
GlyphClass: 2
Flags: W
LayerCount: 2
Fore
SplineSet
280.637695312 475.041015625 m 0
 219.728515625 475.041015625 134.874023438 433.439453125 134.874023438 282.731445312 c 0
 134.874023438 108.36328125 223.935546875 61.8095703125 283.870117188 61.8095703125 c 0
 339.081054688 61.8095703125 393.87109375 98.71875 414.259765625 162.21484375 c 0
 422.842773438 188.943359375 425.290039062 218.61328125 425.290039062 258.526367188 c 0
 425.290039062 317.620117188 422.953125 347.16796875 416.390625 371.787109375 c 0
 395.44140625 450.3828125 327.052734375 475.041015625 280.637695312 475.041015625 c 0
510.158203125 630 m 1
 511 49.001953125 l 2
 511.0234375 32.9775390625 511.825195312 16.2109375 516 0.0009765625 c 1
 433 0.0009765625 l 1
 428.7578125 12.8486328125 428 26.423828125 428 39.0009765625 c 2
 428 85.0009765625 l 1
 394.75390625 25.5830078125 332.198242188 -11.7421875 264.501953125 -11.7421875 c 0
 162.171875 -11.7421875 53.9990234375 73.6689453125 53.9990234375 269.087890625 c 0
 53.9990234375 471.408203125 175.850585938 543.088867188 276.756835938 543.088867188 c 0
 349.90625 543.088867188 406.551757812 506.411132812 432.000976562 452 c 1
 432.000976562 630 l 1
 344.000976562 630 l 1
 344.000976562 692 l 1
 432.000976562 692 l 1
 432.000976562 771 l 1
 521.000976562 771 l 1
 521.4296875 763.115234375 517.034179688 757.358398438 514.645507812 753.665039062 c 0
 510.516601562 747.282226562 509.9921875 744.040039062 510.000976562 738 c 2
 510.068359375 692 l 1
 561.000976562 692 l 1
 561.000976562 630 l 1
 510.158203125 630 l 1
EndSplineSet
Validated: 524289
EndChar

StartChar: Emacron
Encoding: 274 274 210
Width: 600
GlyphClass: 2
Flags: W
LayerCount: 2
Fore
SplineSet
153 917 m 1
 447 917 l 1
 447 852 l 1
 153 852 l 1
 153 917 l 1
78 723 m 1
 521 723 l 1
 521 651 l 1
 155 651 l 1
 155 414 l 1
 457 414 l 1
 457 340 l 1
 155 340 l 1
 155 72 l 1
 518 72 l 1
 518 0 l 1
 78 0 l 1
 78 723 l 1
EndSplineSet
Validated: 1
EndChar

StartChar: emacron
Encoding: 275 275 211
Width: 600
GlyphClass: 2
Flags: W
LayerCount: 2
Fore
SplineSet
153 720 m 1
 447 720 l 1
 447 655 l 1
 153 655 l 1
 153 720 l 1
310 542 m 0
 396 542 495 496 519 354 c 0
 522.846679688 334.125976562 524.637695312 313.018554688 524.637695312 290.942382812 c 0
 524.637695312 278.583007812 524.077148438 265.919921875 523 253 c 1
 147 253 l 1
 154 94 256 55 327 55 c 0
 380 55 429 76 464 115 c 1
 510 70 l 1
 465 16 396 -12 320 -12 c 0
 177 -12 66 82 66 259 c 0
 66 452 183 542 310 542 c 0
150 317 m 1
 441 317 l 1
 441.720703125 323.201171875 442.073242188 329.344726562 442.073242188 335.408203125 c 0
 442.073242188 413.42578125 383.798828125 478 304 478 c 0
 247 478 166 442 150 317 c 1
EndSplineSet
Validated: 524289
EndChar

StartChar: Ebreve
Encoding: 276 276 212
Width: 600
GlyphClass: 2
Flags: W
LayerCount: 2
Fore
SplineSet
158 909 m 1
 184.427734375 867.211914062 231.084960938 826.993164062 288.3203125 826.993164062 c 0
 336.637695312 826.993164062 386.466796875 856.856445312 426 908 c 1
 459 860 l 1
 419.784179688 806.837890625 358.514648438 766.983398438 288.498046875 766.983398438 c 0
 225.205078125 766.983398438 161.96484375 800.672851562 116 856 c 1
 158 909 l 1
78 723 m 1
 521 723 l 1
 521 651 l 1
 155 651 l 1
 155 414 l 1
 457 414 l 1
 457 340 l 1
 155 340 l 1
 155 72 l 1
 518 72 l 1
 518 0 l 1
 78 0 l 1
 78 723 l 1
EndSplineSet
Validated: 524289
EndChar

StartChar: ebreve
Encoding: 277 277 213
Width: 600
GlyphClass: 2
Flags: W
LayerCount: 2
Fore
SplineSet
179 749 m 1
 205.427734375 707.211914062 252.084960938 666.993164062 309.3203125 666.993164062 c 0
 357.637695312 666.993164062 407.466796875 696.856445312 447 748 c 1
 480 700 l 1
 440.784179688 646.837890625 379.514648438 606.983398438 309.498046875 606.983398438 c 0
 246.205078125 606.983398438 182.96484375 640.672851562 137 696 c 1
 179 749 l 1
310 542 m 0
 396 542 495 496 519 354 c 0
 522.846679688 334.125976562 524.637695312 313.018554688 524.637695312 290.942382812 c 0
 524.637695312 278.583007812 524.077148438 265.919921875 523 253 c 1
 147 253 l 1
 154 94 256 55 327 55 c 0
 380 55 429 76 464 115 c 1
 510 70 l 1
 465 16 396 -12 320 -12 c 0
 177 -12 66 82 66 259 c 0
 66 452 183 542 310 542 c 0
150 317 m 1
 441 317 l 1
 441.720703125 323.201171875 442.073242188 329.344726562 442.073242188 335.408203125 c 0
 442.073242188 413.42578125 383.798828125 478 304 478 c 0
 247 478 166 442 150 317 c 1
EndSplineSet
Validated: 524289
EndChar

StartChar: Edotaccent
Encoding: 278 278 214
Width: 600
GlyphClass: 2
Flags: W
LayerCount: 2
Fore
SplineSet
305.002929688 907 m 0
 338.170898438 907 365.018554688 880.280273438 365.018554688 847.493164062 c 0
 365.018554688 814.7265625 338.181640625 787.9921875 304.990234375 787.9921875 c 0
 271.818359375 787.9921875 244.981445312 814.715820312 244.981445312 847.486328125 c 0
 244.981445312 880.263671875 271.822265625 907 305.002929688 907 c 0
78 723 m 1
 521 723 l 1
 521 651 l 1
 155 651 l 1
 155 414 l 1
 457 414 l 1
 457 340 l 1
 155 340 l 1
 155 72 l 1
 518 72 l 1
 518 0 l 1
 78 0 l 1
 78 723 l 1
EndSplineSet
Validated: 524289
EndChar

StartChar: edotaccent
Encoding: 279 279 215
Width: 600
GlyphClass: 2
Flags: W
LayerCount: 2
Fore
SplineSet
305.002929688 760 m 0
 338.170898438 760 365.018554688 733.280273438 365.018554688 700.493164062 c 0
 365.018554688 667.7265625 338.181640625 640.9921875 304.990234375 640.9921875 c 0
 271.818359375 640.9921875 244.981445312 667.715820312 244.981445312 700.486328125 c 0
 244.981445312 733.263671875 271.822265625 760 305.002929688 760 c 0
310 542 m 0
 396 542 495 496 519 354 c 0
 522.846679688 334.125976562 524.637695312 313.018554688 524.637695312 290.942382812 c 0
 524.637695312 278.583007812 524.077148438 265.919921875 523 253 c 1
 147 253 l 1
 154 94 256 55 327 55 c 0
 380 55 429 76 464 115 c 1
 510 70 l 1
 465 16 396 -12 320 -12 c 0
 177 -12 66 82 66 259 c 0
 66 452 183 542 310 542 c 0
150 317 m 1
 441 317 l 1
 441.720703125 323.201171875 442.073242188 329.344726562 442.073242188 335.408203125 c 0
 442.073242188 413.42578125 383.798828125 478 304 478 c 0
 247 478 166 442 150 317 c 1
EndSplineSet
Validated: 524289
EndChar

StartChar: Eogonek
Encoding: 280 280 216
Width: 600
GlyphClass: 2
Flags: W
LayerCount: 2
Fore
SplineSet
439 0 m 1
 516 0 l 1
 477.041992188 -34.9921875 448.396484375 -66.5966796875 438.555664062 -77.740234375 c 0
 430.412109375 -86.96484375 419.047851562 -100.705078125 419.047851562 -117.841796875 c 0
 419.047851562 -135.639648438 431.848632812 -150.796875 452.947265625 -150.796875 c 0
 460.137695312 -150.796875 468.676757812 -149.114257812 480.857421875 -144.678710938 c 0
 498.95703125 -138.086914062 510.633789062 -130.111328125 518 -124 c 1
 518 -177 l 1
 495.280273438 -196.689453125 466.700195312 -204.001953125 437.900390625 -204.001953125 c 0
 377.858398438 -204.001953125 347.05078125 -171.745117188 347.05078125 -133.09375 c 0
 347.05078125 -95.76171875 378.961914062 -49.529296875 439 0 c 1
78 723 m 1
 521 723 l 1
 521 651 l 1
 155 651 l 1
 155 414 l 1
 457 414 l 1
 457 340 l 1
 155 340 l 1
 155 72 l 1
 518 72 l 1
 518 0 l 1
 78 0 l 1
 78 723 l 1
EndSplineSet
Validated: 524293
EndChar

StartChar: eogonek
Encoding: 281 281 217
Width: 600
GlyphClass: 2
Flags: W
LayerCount: 2
Fore
SplineSet
309.848632812 542.279296875 m 0
 396.961914062 542.279296875 495.688476562 495.776367188 519.465820312 353.28125 c 0
 522.822265625 333.170898438 524.633789062 311.92578125 524.633789062 289.768554688 c 0
 524.633789062 277.76953125 524.1015625 265.502929688 522.997070312 253.00390625 c 1
 147.294921875 253.00390625 l 1
 153.594726562 94.4892578125 256.127929688 55.4443359375 326.950195312 55.4443359375 c 0
 379.5859375 55.4443359375 429.493164062 76.3603515625 463.997070312 115.002929688 c 1
 509.997070312 70.0029296875 l 1
 468.997070312 19.0029296875 l 2
 429.069335938 -30.666015625 396.598632812 -67.9541015625 396.598632812 -101.8046875 c 0
 396.598632812 -127.99609375 415.5859375 -147.00390625 441.831054688 -147.00390625 c 0
 447.911132812 -147.00390625 467.619140625 -146.293945312 500.998046875 -124.998046875 c 1
 499.998046875 -181.998046875 l 1
 478.220703125 -193.940429688 451.108398438 -202.751953125 423.729492188 -202.751953125 c 0
 365.921875 -202.751953125 327.821289062 -164.02734375 327.821289062 -116.5234375 c 0
 327.821289062 -82.287109375 349.345703125 -41.4453125 391.999023438 -0.9990234375 c 1
 366.18359375 -8.275390625 339.547851562 -12.0048828125 312.826171875 -12.0048828125 c 0
 173.797851562 -12.0048828125 66.4384765625 87.365234375 66.4384765625 261.323242188 c 0
 66.4384765625 451.743164062 183.5703125 542.279296875 309.848632812 542.279296875 c 0
150.004882812 317.00390625 m 1
 440.997070312 317.00390625 l 1
 441.708007812 323.139648438 442.0546875 329.22265625 442.0546875 335.228515625 c 0
 442.0546875 413.227539062 383.543945312 478.172851562 303.879882812 478.172851562 c 0
 247.069335938 478.172851562 166.4921875 441.853515625 150.004882812 317.00390625 c 1
EndSplineSet
Validated: 524289
EndChar

StartChar: Ecaron
Encoding: 282 282 218
Width: 600
GlyphClass: 2
Flags: W
LayerCount: 2
Fore
SplineSet
470 875 m 1
 318 760 l 1
 293 760 l 1
 150 873 l 1
 188 917 l 1
 308 835 l 1
 437 914 l 1
 470 875 l 1
78 723 m 1
 521 723 l 1
 521 651 l 1
 155 651 l 1
 155 414 l 1
 457 414 l 1
 457 340 l 1
 155 340 l 1
 155 72 l 1
 518 72 l 1
 518 0 l 1
 78 0 l 1
 78 723 l 1
EndSplineSet
Validated: 1
EndChar

StartChar: ecaron
Encoding: 283 283 219
Width: 600
GlyphClass: 2
Flags: W
LayerCount: 2
Fore
SplineSet
447 763 m 1
 318 600 l 1
 293 600 l 1
 165 764 l 1
 219 804 l 1
 309 685 l 1
 403 803 l 1
 447 763 l 1
310 542 m 0
 396 542 495 496 519 354 c 0
 522.846679688 334.125976562 524.637695312 313.018554688 524.637695312 290.942382812 c 0
 524.637695312 278.583007812 524.077148438 265.919921875 523 253 c 1
 147 253 l 1
 154 94 256 55 327 55 c 0
 380 55 429 76 464 115 c 1
 510 70 l 1
 465 16 396 -12 320 -12 c 0
 177 -12 66 82 66 259 c 0
 66 452 183 542 310 542 c 0
150 317 m 1
 441 317 l 1
 441.720703125 323.201171875 442.073242188 329.344726562 442.073242188 335.408203125 c 0
 442.073242188 413.42578125 383.798828125 478 304 478 c 0
 247 478 166 442 150 317 c 1
EndSplineSet
Validated: 524289
EndChar

StartChar: Gcircumflex
Encoding: 284 284 220
Width: 600
GlyphClass: 2
Flags: W
LayerCount: 2
Fore
SplineSet
141 802 m 1
 293 917 l 1
 318 917 l 1
 461 804 l 1
 423 760 l 1
 303 842 l 1
 174 763 l 1
 141 802 l 1
331.255859375 729.021484375 m 0
 420.2109375 729.021484375 499.720703125 682.8203125 541 608 c 1
 484 550 l 1
 474.93359375 555.815429688 472.124023438 564.98828125 468.568359375 572.778320312 c 0
 446.485351562 621.163085938 395.19140625 658.068359375 330.752929688 658.068359375 c 0
 269.930664062 658.068359375 205.563476562 624.733398438 168.311523438 554.633789062 c 0
 140.06640625 501.478515625 131.993164062 436.709960938 131.993164062 369.474609375 c 0
 131.993164062 293.212890625 140.466796875 191.911132812 200.744140625 123.215820312 c 0
 240.012695312 78.4619140625 291.334960938 59.9970703125 338.045898438 59.9970703125 c 0
 381.069335938 59.9970703125 427.485351562 75.1279296875 468 104 c 1
 468 276 l 1
 337 276 l 1
 337 346 l 1
 543 346 l 1
 543 64 l 1
 474.934570312 13.8818359375 397.762695312 -11.048828125 330.883789062 -11.048828125 c 0
 204.890625 -11.048828125 51.88671875 79.109375 51.88671875 352.37109375 c 0
 51.88671875 669.165039062 235.235351562 729.021484375 331.255859375 729.021484375 c 0
EndSplineSet
Validated: 524289
EndChar

StartChar: gcircumflex
Encoding: 285 285 221
Width: 600
GlyphClass: 2
Flags: W
LayerCount: 2
Fore
SplineSet
165 631 m 1
 294 794 l 1
 319 794 l 1
 447 630 l 1
 393 590 l 1
 303 709 l 1
 209 591 l 1
 165 631 l 1
156 364 m 0
 156 300 208 248 272 248 c 0
 337 248 389 300 389 364 c 0
 389 428 337 481 273 481 c 0
 208 481 156 428 156 364 c 0
278 547 m 0
 326 547 370 529 403 496 c 1
 440.05859375 526.732421875 486.921875 543.575195312 534.728515625 543.575195312 c 0
 539.8125 543.575195312 544.90625 543.384765625 550 543 c 1
 560 475 l 1
 550 477 540 478 529 478 c 0
 497 478 465 469 437 452 c 1
 455 426 464 394 464 362 c 0
 464 265 378 181 273 181 c 0
 250 181 228 185 206 193 c 1
 201 189 168 162 168 134 c 0
 168 117 180 105 200 99 c 0
 212 96 236 92 276 92 c 0
 300.615234375 92 325.904296875 93.3466796875 350.967773438 93.3466796875 c 0
 386.998046875 93.3466796875 422.564453125 90.564453125 455 77 c 0
 511 55 537 8 537 -38 c 0
 537 -109 473 -199 294 -199 c 0
 108 -199 54 -132 54 -74 c 0
 54 -32 84 7 141 43 c 1
 107 61 98 92 98 114 c 0
 98 148 120 184 158 216 c 1
 109 248 80 301 80 359 c 0
 80 463 172 547 278 547 c 0
197 28 m 1
 167 12 131 -16 131 -54 c 0
 131 -73 140 -102 183 -119 c 0
 223 -135 268 -136 292 -136 c 0
 328 -136 373 -134 411 -113 c 0
 448 -93 461 -66 461 -43 c 0
 461 -19 447 11 398 19 c 0
 382.5 21 364.25 21.25 345 21.25 c 0
 338.583007812 21.25 332.055664062 21.22265625 325.481445312 21.22265625 c 0
 312.333007812 21.22265625 299 21.3330078125 286 22 c 0
 245 23 217 26 197 28 c 1
EndSplineSet
Validated: 524289
EndChar

StartChar: Gbreve
Encoding: 286 286 222
Width: 600
GlyphClass: 2
Flags: W
LayerCount: 2
Fore
SplineSet
179 916 m 1
 205.427734375 874.211914062 252.084960938 833.993164062 309.3203125 833.993164062 c 0
 357.637695312 833.993164062 407.466796875 863.856445312 447 915 c 1
 480 867 l 1
 440.784179688 813.837890625 379.514648438 773.983398438 309.498046875 773.983398438 c 0
 246.205078125 773.983398438 182.96484375 807.672851562 137 863 c 1
 179 916 l 1
331.255859375 729.021484375 m 0
 420.2109375 729.021484375 499.720703125 682.8203125 541 608 c 1
 484 550 l 1
 474.93359375 555.815429688 472.124023438 564.98828125 468.568359375 572.778320312 c 0
 446.485351562 621.163085938 395.19140625 658.068359375 330.752929688 658.068359375 c 0
 269.930664062 658.068359375 205.563476562 624.733398438 168.311523438 554.633789062 c 0
 140.06640625 501.478515625 131.993164062 436.709960938 131.993164062 369.474609375 c 0
 131.993164062 293.212890625 140.466796875 191.911132812 200.744140625 123.215820312 c 0
 240.012695312 78.4619140625 291.334960938 59.9970703125 338.045898438 59.9970703125 c 0
 381.069335938 59.9970703125 427.485351562 75.1279296875 468 104 c 1
 468 276 l 1
 337 276 l 1
 337 346 l 1
 543 346 l 1
 543 64 l 1
 474.934570312 13.8818359375 397.762695312 -11.048828125 330.883789062 -11.048828125 c 0
 204.890625 -11.048828125 51.88671875 79.109375 51.88671875 352.37109375 c 0
 51.88671875 669.165039062 235.235351562 729.021484375 331.255859375 729.021484375 c 0
EndSplineSet
Validated: 524289
EndChar

